<svg width="221" height="206" viewBox="0 0 221 206" fill="none" xmlns="http://www.w3.org/2000/svg">
<g filter="url(#filter0_d)">
<path d="M53.2303 2.51099L208.072 42.8119L177 196.582L4.00001 152.082L53.2303 2.51099Z" fill="#FFDF00"/>
<path d="M74.5455 89.9342C74.5777 89.619 74.6047 88.9415 74.6264 87.9017C74.6775 86.8447 74.6921 85.6413 74.67 84.2914C74.3315 84.2531 73.9991 84.1915 73.6727 84.1065C73.3464 84.0216 73.0083 83.9336 72.6586 83.8426C72.1924 83.7213 71.7029 83.5938 71.19 83.4604C70.6832 83.3036 70.2291 83.1356 69.8277 82.9564C69.4323 82.754 69.116 82.5348 68.8788 82.2988C68.6476 82.0395 68.5744 81.7466 68.6594 81.4203C68.7261 81.1638 68.8856 80.9813 69.1379 80.8727C69.4135 80.7702 69.7611 80.7736 70.1807 80.8828C71.0768 81.2654 71.9911 81.578 72.9235 81.8207C73.2033 81.8935 73.483 81.9663 73.7628 82.0391C74.0425 82.1119 74.3283 82.1614 74.6202 82.1876C74.5892 81.159 74.5405 80.1507 74.4741 79.1627C74.4137 78.1513 74.3261 77.2449 74.2111 76.4433C74.1195 75.6478 74.0031 74.9953 73.8619 74.4856C73.7208 73.9759 73.5453 73.6938 73.3355 73.6392C72.9392 73.536 72.4255 73.7882 71.7945 74.3956C71.1635 75.0029 70.4839 75.7968 69.7558 76.7772C69.0277 77.7576 68.2956 78.8489 67.5596 80.0512C66.8296 81.2302 66.1527 82.3484 65.529 83.4058C64.9287 84.4692 64.4291 85.3846 64.0302 86.1519C63.6374 86.896 63.4228 87.338 63.3864 87.4778C63.2791 87.6988 63.1171 87.8433 62.9002 87.9113C62.7067 87.9854 62.5167 87.9982 62.3302 87.9497C62.0505 87.8769 61.8183 87.7169 61.6337 87.4697C61.4492 87.2225 61.3993 86.9358 61.4843 86.6094C62.9743 83.5622 64.4666 80.889 65.9611 78.5898C66.5899 77.6084 67.2476 76.6595 67.9342 75.743C68.6268 74.8032 69.321 74.0007 70.0169 73.3355C70.7188 72.647 71.4015 72.1278 72.0651 71.7778C72.752 71.4338 73.3869 71.3377 73.9697 71.4894C74.5758 71.6471 75.0499 72.1688 75.3919 73.0543C75.7572 73.9459 76.033 75.0382 76.2191 76.3312C76.4114 77.6009 76.5267 78.9751 76.565 80.4536C76.6094 81.9088 76.6223 83.2937 76.6038 84.6081C76.5913 85.8992 76.557 87.0352 76.5008 88.0162C76.4507 88.9739 76.4302 89.5784 76.4395 89.8298L76.3849 90.0396C76.2878 90.4126 76.0924 90.6853 75.7986 90.8577C75.5342 91.0129 75.2737 91.0572 75.0173 90.9904C74.8308 90.9419 74.6828 90.8411 74.5733 90.6882C74.4931 90.5179 74.4839 90.2666 74.5455 89.9342ZM85.3002 76.1559C84.9592 76.9881 84.6106 77.9926 84.2545 79.1694C83.9218 80.3522 83.5886 81.5847 83.2549 82.8668C82.909 84.1956 82.5925 85.5072 82.3055 86.8014C82.0417 88.1018 81.8082 89.2856 81.6052 90.3528C82.035 90.6141 82.4389 90.8312 82.817 91.0043C83.2012 91.1541 83.5798 91.2775 83.9528 91.3746C85.3282 91.7325 86.4642 91.7669 87.3609 91.4775C88.287 91.171 88.9109 90.3999 89.2324 89.1644C89.3599 88.6749 89.3824 88.158 89.3 87.6138C89.2409 87.0758 89.0967 86.5777 88.8674 86.1198C88.6615 85.6679 88.379 85.2708 88.0201 84.9285C87.6844 84.5922 87.3068 84.3695 86.8872 84.2603C86.5608 84.1753 86.2107 84.134 85.8367 84.1362C85.4628 84.1385 85.1233 84.1995 84.8183 84.3192C84.7363 84.3476 84.6253 84.3436 84.4854 84.3072C84.229 84.2405 84.0293 84.0516 83.8862 83.7406C83.7431 83.4295 83.705 83.1458 83.7717 82.8894C83.8384 82.6329 83.998 82.4504 84.2502 82.3419C84.5319 82.216 84.8394 82.1343 85.1728 82.0966C85.5295 82.065 85.8771 82.0683 86.2156 82.1067C86.5541 82.145 86.8399 82.1945 87.0731 82.2551C87.8657 82.4614 88.5545 82.8274 89.1395 83.353C89.7479 83.8847 90.2326 84.5087 90.5938 85.225C90.961 85.918 91.1991 86.6769 91.308 87.5018C91.423 88.3033 91.3773 89.1004 91.171 89.893C90.9283 90.8254 90.5472 91.5725 90.0276 92.1343C89.5314 92.7021 88.9372 93.1199 88.2452 93.3878C87.5532 93.6558 86.7866 93.7798 85.9455 93.76C85.1043 93.7402 84.2408 93.6151 83.355 93.3845C82.8421 93.251 82.35 93.0856 81.8787 92.8882C81.4367 92.6736 81.0418 92.4215 80.6941 92.1319C80.4367 92.1645 80.2381 92.1625 80.0982 92.1261C79.8651 92.0655 79.6735 91.9409 79.5234 91.7525C79.3966 91.5702 79.364 91.3128 79.4257 90.9803C79.6204 89.5625 79.8922 88.0402 80.2409 86.4135C80.613 84.7928 81.0083 83.1782 81.4269 81.5697C81.7364 80.3808 82.057 79.2446 82.3888 78.161C82.7206 77.0775 83.0575 76.07 83.3995 75.1385C83.6454 74.4806 84.0364 74.2215 84.5726 74.361C84.8523 74.4339 85.0784 74.6172 85.2509 74.911C85.4233 75.2047 85.458 75.5498 85.3548 75.9461L85.3002 76.1559ZM98.4117 85.169C98.7218 85.1252 98.9468 85.1215 99.0867 85.1579C99.2732 85.2065 99.4445 85.3133 99.6006 85.4784C99.7699 85.4976 99.9508 85.5198 100.143 85.545C100.365 85.553 100.546 85.5752 100.686 85.6116C101.455 85.8118 102.112 86.157 102.657 86.6472C103.207 87.1141 103.634 87.6732 103.938 88.3247C104.264 88.9822 104.462 89.7057 104.53 90.4951C104.598 91.2845 104.526 92.0871 104.314 92.9031C104.126 93.6257 103.804 94.2887 103.348 94.8919C102.922 95.4779 102.397 95.9636 101.774 96.3491C101.175 96.7406 100.521 97.006 99.8124 97.1452C99.1041 97.2844 98.4002 97.263 97.7009 97.081C96.8384 96.8565 96.0822 96.5103 95.4323 96.0425C94.7824 95.5747 94.2648 95.0292 93.8793 94.4062C93.4939 93.7832 93.2376 93.0942 93.1105 92.3393C93.0067 91.5904 93.058 90.8197 93.2643 90.0271C93.4281 89.3977 93.6649 88.7748 93.9747 88.1585C94.2905 87.5188 94.6727 86.9587 95.1214 86.4781C95.5701 85.9975 96.0644 85.6283 96.6044 85.3706C97.1677 85.119 97.7702 85.0518 98.4117 85.169ZM98.3581 87.0965C97.8503 87.039 97.4288 87.1284 97.0935 87.3647C96.7643 87.5777 96.4781 87.8642 96.2351 88.2241C96.0154 88.5901 95.8363 88.9915 95.6977 89.4283C95.5651 89.8419 95.4534 90.2235 95.3624 90.5732C95.2531 90.9928 95.2108 91.4423 95.2354 91.9216C95.2661 92.3776 95.3874 92.8199 95.5995 93.2484C95.8409 93.6598 96.1674 94.031 96.579 94.3621C96.9907 94.6933 97.5345 94.9469 98.2106 95.1228C98.7234 95.2563 99.2023 95.2814 99.6471 95.198C100.121 95.0974 100.529 94.9173 100.871 94.6577C101.241 94.3808 101.551 94.0508 101.8 93.6676C102.049 93.2844 102.235 92.8596 102.356 92.3934C102.671 91.1812 102.638 90.1146 102.255 89.1936C101.879 88.2493 101.21 87.6148 100.249 87.29L99.5848 87.1171C99.3983 87.0686 99.188 87.0636 98.954 87.1022C98.7199 87.1409 98.5213 87.139 98.3581 87.0965ZM119.943 91.6691L119.798 92.2286C119.513 93.3243 119.131 94.457 118.652 95.6267C118.197 96.8025 117.626 97.8487 116.939 98.7652C116.282 99.6644 115.504 100.358 114.605 100.846C113.713 101.311 112.695 101.394 111.553 101.097C110.737 100.885 109.99 100.504 109.312 99.9536C108.663 99.3865 108.237 98.6783 108.035 97.8292C107.872 97.2142 107.744 96.5089 107.652 95.7134C107.584 94.924 107.548 94.1057 107.545 93.2585C107.57 92.394 107.634 91.527 107.736 90.6575C107.861 89.794 108.027 88.9659 108.233 88.1733C108.312 87.8702 108.466 87.6614 108.695 87.5468C108.953 87.4149 109.223 87.3853 109.502 87.4581C109.782 87.5309 110.014 87.6909 110.199 87.9381C110.389 88.162 110.451 88.4518 110.383 88.8075C110.174 89.8981 110 90.9977 109.861 92.1065C109.745 93.2213 109.714 94.2464 109.77 95.1817C109.854 96.0998 110.06 96.8876 110.387 97.5452C110.737 98.2087 111.261 98.6315 111.961 98.8136C112.543 98.9653 113.108 98.9006 113.654 98.6196C114.206 98.3152 114.725 97.8528 115.21 97.2324C115.718 96.6179 116.178 95.8541 116.59 94.9408C117.008 94.0041 117.363 92.9763 117.654 91.8574L117.863 91.0531C117.948 90.7267 118.105 90.5062 118.334 90.3916C118.593 90.2597 118.85 90.2271 119.106 90.2939C119.363 90.3606 119.583 90.5176 119.768 90.7647C119.959 90.9886 120.017 91.2901 119.943 91.6691ZM128.98 105.148C126.744 104.366 125.263 103.172 124.537 101.564C123.81 99.9562 123.768 97.9167 124.412 95.4456L124.794 93.977C123.885 93.7403 123.148 93.4616 122.585 93.1406C122.027 92.7964 121.824 92.3329 121.976 91.7501C122.077 91.5524 122.227 91.4049 122.427 91.3075C122.633 91.1867 122.887 91.1658 123.19 91.2447C123.47 91.3175 123.799 91.4405 124.177 91.6135C124.555 91.7866 124.977 91.9338 125.443 92.0552C125.637 91.3092 125.858 90.5576 126.105 89.8005C126.358 89.02 126.624 88.3302 126.905 87.7311C127.208 87.1381 127.517 86.6708 127.83 86.3291C128.149 85.9641 128.483 85.8271 128.833 85.9181C129.089 85.9848 129.292 86.1621 129.441 86.4498C129.596 86.7142 129.625 87.0329 129.528 87.4059C129.377 87.9887 129.103 88.7514 128.709 89.6941C128.314 90.6368 127.942 91.6352 127.593 92.6894C127.774 92.7612 127.954 92.8331 128.134 92.9049C128.344 92.9596 128.554 93.0142 128.764 93.0688C129.137 93.1658 129.513 93.2513 129.892 93.325C130.294 93.4049 130.7 93.4731 131.108 93.5296C131.434 93.6145 131.678 93.7775 131.84 94.0186C132.001 94.2597 132.051 94.4969 131.99 94.73C131.905 95.0563 131.749 95.2768 131.52 95.3915C131.297 95.4828 131.025 95.524 130.703 95.5151C130.411 95.4889 130.067 95.4242 129.671 95.3211C129.298 95.224 128.925 95.1269 128.552 95.0298L126.944 94.6112C126.854 94.8616 126.778 95.1033 126.717 95.3364C126.657 95.5695 126.596 95.8026 126.535 96.0358C126.317 96.875 126.19 97.6508 126.154 98.3633C126.147 99.0585 126.263 99.7111 126.503 100.321C126.742 100.931 127.123 101.478 127.644 101.962C128.165 102.446 128.85 102.873 129.7 103.244C129.944 103.357 130.103 103.511 130.177 103.704C130.251 103.898 130.261 104.099 130.207 104.309C130.134 104.589 129.985 104.824 129.762 105.015C129.567 105.188 129.307 105.232 128.98 105.148ZM145.843 92.287C146.029 91.8623 146.244 91.6073 146.491 91.522C146.76 91.4428 147.011 91.4336 147.245 91.4942C147.466 91.6015 147.63 91.7813 147.739 92.0336C147.847 92.2859 147.856 92.5869 147.765 92.9365C147.698 93.193 147.62 93.4464 147.53 93.6967C147.44 93.9471 147.356 94.2238 147.277 94.5269C147.058 95.3661 146.854 96.296 146.663 97.3166C146.478 98.3139 146.325 99.332 146.204 100.371C146.083 101.41 146 102.396 145.956 103.331C145.935 104.271 145.971 105.089 146.064 105.786C146.134 106.376 146.293 106.816 146.542 107.105C146.79 107.393 147.116 107.578 147.518 107.658C148.177 107.804 148.85 107.656 149.538 107.213C150.255 106.752 150.955 106.026 151.636 105.033C152.324 104.017 152.99 102.747 153.636 101.222C154.288 99.6746 154.878 97.8866 155.405 95.8585C155.49 95.5321 155.561 95.2144 155.616 94.9053C155.678 94.5728 155.745 94.2667 155.818 93.987C155.903 93.6606 156.045 93.4487 156.245 93.3513C156.474 93.2367 156.693 93.2067 156.903 93.2613C157.509 93.419 157.806 93.8075 157.794 94.4267C157.812 95.0287 157.699 95.7959 157.457 96.7284C157.226 97.6142 156.913 98.5782 156.517 99.6202C156.151 100.645 155.738 101.658 155.279 102.658C154.842 103.665 154.383 104.615 153.901 105.511C153.419 106.406 152.957 107.132 152.513 107.688C152.176 108.123 151.763 108.513 151.275 108.859C150.793 109.182 150.288 109.449 149.76 109.66C149.238 109.848 148.696 109.968 148.135 110.021C147.58 110.051 147.057 110.002 146.568 109.874C145.915 109.704 145.384 109.355 144.974 108.825C144.588 108.301 144.284 107.65 144.064 106.87C143.867 106.097 143.744 105.231 143.695 104.273C143.669 103.32 143.69 102.33 143.758 101.302C143.856 100.258 143.992 99.2102 144.165 98.1602C144.369 97.0929 144.594 96.0814 144.843 95.1256C145.001 94.5195 145.155 93.9747 145.306 93.4912C145.48 93.0138 145.659 92.6124 145.843 92.287ZM162.015 103.889C161.547 103.966 161.255 104.226 161.14 104.669C161.067 104.949 161.189 105.341 161.505 105.847C161.845 106.358 162.228 106.894 162.655 107.453C163.112 107.995 163.548 108.519 163.963 109.026C164.379 109.532 164.65 109.926 164.776 110.208C164.998 110.788 165.043 111.335 164.909 111.848C164.77 112.384 164.541 112.785 164.223 113.051C163.928 113.322 163.558 113.5 163.113 113.583C162.692 113.673 162.215 113.686 161.684 113.622C161.177 113.565 160.655 113.466 160.118 113.327C159.745 113.23 159.294 113.1 158.764 112.937C158.234 112.774 157.724 112.579 157.236 112.352C156.77 112.132 156.384 111.894 156.077 111.64C155.776 111.362 155.662 111.084 155.735 110.804C155.795 110.571 155.929 110.344 156.135 110.124C156.342 109.904 156.574 109.828 156.83 109.894C156.853 109.901 156.874 109.918 156.891 109.948C156.914 109.954 156.949 109.963 156.996 109.975C157.472 110.248 158.098 110.523 158.872 110.799C159.646 111.076 160.407 111.311 161.153 111.505C161.549 111.608 161.89 111.635 162.177 111.585C162.47 111.512 162.65 111.347 162.717 111.091C162.777 110.857 162.724 110.582 162.558 110.265C162.398 109.925 162.176 109.581 161.893 109.233C161.634 108.892 161.348 108.556 161.035 108.226C160.746 107.902 160.498 107.613 160.29 107.36C159.677 106.653 159.254 106.033 159.02 105.499C158.815 104.947 158.782 104.404 158.921 103.868C159.079 103.261 159.358 102.811 159.758 102.517C160.188 102.206 160.678 101.997 161.228 101.892C161.778 101.786 162.354 101.774 162.955 101.856C163.585 101.92 164.18 102.025 164.739 102.171C165.066 102.256 165.389 102.352 165.709 102.461C166.03 102.569 166.306 102.703 166.538 102.863C166.776 103 166.956 103.171 167.077 103.377C167.203 103.559 167.233 103.778 167.167 104.035C167.1 104.291 166.984 104.497 166.819 104.654C166.677 104.816 166.49 104.867 166.257 104.806C166.047 104.751 165.741 104.634 165.34 104.455C164.962 104.282 164.504 104.126 163.968 103.986C163.246 103.798 162.594 103.766 162.015 103.889Z" fill="black"/>
</g>
<defs>
<filter id="filter0_d" x="0" y="0" width="220.454" height="205.076" filterUnits="userSpaceOnUse" color-interpolation-filters="sRGB">
<feFlood flood-opacity="0" result="BackgroundImageFix"/>
<feColorMatrix in="SourceAlpha" type="matrix" values="0 0 0 0 0 0 0 0 0 0 0 0 0 0 0 0 0 0 127 0"/>
<feOffset dy="4"/>
<feGaussianBlur stdDeviation="2"/>
<feColorMatrix type="matrix" values="0 0 0 0 0 0 0 0 0 0 0 0 0 0 0 0 0 0 0.25 0"/>
<feBlend mode="normal" in2="BackgroundImageFix" result="effect1_dropShadow"/>
<feBlend mode="normal" in="SourceGraphic" in2="effect1_dropShadow" result="shape"/>
</filter>
</defs>
</svg>
