<svg width="1349" height="4793" viewBox="0 0 1349 4793" fill="none" xmlns="http://www.w3.org/2000/svg">
<path d="M1215.47 240.29C1215.47 240.29 1171.5 243 1153.2 234.789C1153.2 234.789 1025.78 182.134 1057.43 140.773C1068.57 126.212 1078.94 117.005 1097.72 115.268C1129.84 112.299 1168.59 146.681 1153.2 173.778C1137.8 200.876 1076.27 217.53 1076.27 217.53C985.488 260.527 816.824 217.53 816.824 217.53C657.245 191.452 389 104.945 370 115.268C351 125.592 356 121.5 351 126.5C342.44 135.06 342.843 148.554 351 157.5C359.946 167.312 376.934 168.047 385 157.5C391.168 149.434 386.404 141.556 385 131.5C383.36 119.756 380.871 113.311 376 102.5C370.813 90.9887 365.969 85.5283 359 75C352.272 64.8356 344.203 61.2611 341 49.5C338.537 40.4568 333.689 31.3643 341 25.5C349.383 18.7761 362.734 26.7619 366 37C370.214 50.2077 330.5 37 330.5 37C324.123 30.6268 322.227 23.9256 323.5 15C324.388 8.7751 330.5 0.5 330.5 0.5M1215.47 240.29C1215.47 240.29 1243.87 239.473 1265.19 234.789C1304.94 226.05 1340.82 212.177 1347.87 173.778C1355.55 131.919 1323.15 90.3406 1278.79 87.2638C1250.8 85.3217 1230.33 94.0493 1213.16 115.268C1198.13 133.839 1199.64 150.319 1198.72 173.778C1197.78 197.906 1215.47 240.29 1215.47 240.29ZM1215.47 240.29L1247.4 299.207C1326.5 437 1313.51 552.132 1213.16 669.706C1091.82 811.87 906.265 786.317 701.347 786.317C390.201 786.317 201.233 857.419 97.6662 944.645C-5.90059 1031.87 -18.7831 1163 23.8785 1297.2C80.21 1474.42 358.397 1485 489.542 1463.84C620.687 1442.69 803.76 1343.88 1001.36 1384.13C1105.13 1405.27 1177.21 1408.46 1247.4 1485C1247.4 1485 1314.03 1588.93 1277 1636.5C1261.8 1656.03 1249.07 1669.03 1224.5 1672C1201.88 1674.73 1182.64 1672.25 1169 1654C1154.86 1635.07 1160.27 1615.46 1169 1593.5C1177.57 1571.93 1187.98 1558.71 1209.5 1550C1246.74 1534.93 1290.15 1530.26 1302.73 1593.5C1315.31 1656.74 1304.77 1725.38 1310 1805C1319.88 1955.38 1389.03 2088.69 1277 2189.5C1177.27 2279.25 1067.64 2199.92 934.5 2216.5C648.312 2252.13 419.906 2176.57 214 2378.5C134.31 2456.65 89.6172 2509.89 55 2616C-0.815166 2787.09 -13.3047 2949.43 118 3072.5C194.35 3144.06 264.302 3151.41 367 3171.5C501.892 3197.89 581.063 3155.32 718.5 3153.5C903.921 3151.04 1055.98 3046.55 1193 3171.5C1278.26 3249.25 1299.7 3326.88 1313 3441.5C1326.22 3555.36 1331.47 3641.19 1259 3730C1170.66 3838.26 1050.61 3796.1 913.5 3823C738.93 3857.25 636.812 3847.3 460.5 3871C312.175 3890.94 179.204 3817.21 82 3931C11.7207 4013.27 28.2601 4093.48 22 4201.5C14.896 4324.09 -13.241 4415.69 61 4513.5C148.976 4629.4 383 4513.5 418.5 4618.5C454 4723.5 539.626 4653.38 619.5 4660.5C680.181 4665.91 715.089 4668.38 775.5 4660.5C873.054 4647.78 916.196 4558.97 1013 4576.5C1078.06 4588.28 1147.6 4595.55 1160 4660.5C1170.26 4714.21 1144.77 4763.68 1094 4784C1040.1 4805.57 981.53 4781.89 955.5 4730C919.297 4657.83 1019.36 4607.28 1094 4576.5C1130.33 4561.52 1153.71 4558.85 1193 4558.5C1250.96 4557.99 1296.35 4553.18 1337 4594.5C1343.42 4601.02 1352 4612.5 1352 4612.5" stroke="black" stroke-linejoin="round" stroke-dasharray="3 5"/>
</svg>
