<svg width="194" height="182" viewBox="0 0 194 182" fill="none" xmlns="http://www.w3.org/2000/svg">
<g filter="url(#filter0_d)">
<path d="M9.08898 21.9719L160.378 1.3766C160.378 1.3766 169.697 110.429 186.003 127.351C160.378 162.426 24.6266 172.272 24.6266 172.272L9.08898 21.9719Z" fill="#FFDF00"/>
</g>
<path d="M65.6012 79.6662C65.8874 79.6253 66.0884 79.6696 66.2042 79.799C66.3166 79.9046 66.3882 80.0647 66.4189 80.2793C66.4393 80.5927 66.378 80.8448 66.2349 81.0356C66.0885 81.2025 65.9011 81.3388 65.6729 81.4444C65.4685 81.5466 65.247 81.6148 65.0086 81.6489C64.7701 81.6829 64.5555 81.7136 64.3647 81.7409C63.3155 81.8908 62.331 81.8125 61.4112 81.5059C60.4914 81.1994 59.655 80.7106 58.9021 80.0395C58.1731 79.365 57.5564 78.5406 57.0522 77.5664C56.5684 76.5648 56.2413 75.4679 56.0709 74.2756C55.8767 72.9164 56.018 71.6065 56.4949 70.346C56.9718 69.0856 57.6377 67.9562 58.4927 66.958C59.3477 65.9599 60.3135 65.1405 61.39 64.5C62.4664 63.8595 63.5054 63.4677 64.507 63.3246C64.8408 63.2769 65.0929 63.3382 65.2633 63.5085C65.4302 63.655 65.529 63.8355 65.5597 64.0502C65.5971 64.3125 65.5733 64.5714 65.4882 64.8269C65.3996 65.0585 65.2838 65.1846 65.1407 65.205C64.1834 65.4878 63.2603 65.9239 62.3712 66.5133C61.4821 67.1027 60.7054 67.7977 60.0411 68.5983C59.4007 69.3954 58.917 70.2676 58.59 71.2146C58.2596 72.1378 58.1643 73.0883 58.304 74.066C58.6856 76.2258 59.4811 77.7911 60.6905 78.7619C61.8965 79.7089 63.2626 80.0734 64.7888 79.8553C64.908 79.8382 65.0392 79.8195 65.1822 79.799C65.3219 79.7548 65.4616 79.7105 65.6012 79.6662ZM68.0541 80.9946C67.9314 80.4768 67.8156 79.9216 67.7065 79.3288C67.5941 78.7122 67.4867 78.0462 67.3845 77.3308C67.2823 76.6154 67.209 75.9324 67.1647 75.2818C67.1204 74.6311 67.1067 74.0247 67.1237 73.4626L67.1135 73.3911C66.3368 73.5751 65.5908 73.7182 64.8754 73.8204C62.8007 74.1169 61.7021 73.8359 61.5794 72.9774C61.5487 72.7628 61.6407 72.555 61.8553 72.354C62.0699 72.153 62.3918 72.0218 62.8211 71.9605C63.4752 71.94 64.1599 71.8787 64.8753 71.7764C65.8053 71.6435 66.7421 71.4732 67.6857 71.2653C68.6259 71.0336 69.4657 70.865 70.2049 70.7593C70.6103 70.7014 70.9322 70.7405 71.1707 70.8768C71.433 71.0096 71.5829 71.2072 71.6204 71.4695C71.6749 71.8511 71.4773 72.1713 71.0277 72.4302C70.5746 72.6653 69.9785 72.8357 69.2392 72.9413C69.229 73.7214 69.2444 74.5101 69.2853 75.3072C69.3467 76.0771 69.4353 76.8674 69.5511 77.6782C69.6261 78.2028 69.7249 78.724 69.8476 79.2418C69.9668 79.7358 70.064 80.2451 70.1389 80.7697C70.19 81.1274 70.1202 81.405 69.9295 81.6026C69.7659 81.8207 69.5769 81.945 69.3623 81.9757C69.1 82.0132 68.8359 81.9536 68.5702 81.7969C68.3045 81.6402 68.1324 81.3728 68.0541 80.9946ZM75.8211 79.1547C75.8245 78.3269 75.7972 77.54 75.7393 76.7939C75.7017 76.0206 75.6302 75.2643 75.5245 74.5251C75.3167 73.0705 74.9589 71.5886 74.4512 70.0795C74.4172 70.0114 74.3916 69.9177 74.3746 69.7985C74.3269 69.4646 74.3831 69.1767 74.5432 68.9349C74.7271 68.6896 74.9622 68.5465 75.2483 68.5056C75.5583 68.4613 75.8002 68.5362 75.9739 68.7304C76.1715 68.9212 76.33 69.1784 76.4492 69.502C76.565 69.8018 76.6622 70.1407 76.7405 70.5188C76.8393 70.8697 76.9484 71.207 77.0676 71.5306C77.3333 71.1763 77.6842 70.822 78.1202 70.4677C78.5562 70.1134 79.0212 69.7914 79.5152 69.5018C80.033 69.2088 80.5576 68.9635 81.089 68.7659C81.617 68.5445 82.1195 68.3997 82.5964 68.3315C82.8587 68.294 83.1006 68.369 83.3221 68.5563C83.5435 68.7437 83.673 68.9685 83.7104 69.2308C83.7445 69.4693 83.7071 69.718 83.5981 69.9769C83.4856 70.2119 83.2744 70.3516 82.9644 70.3959C82.3921 70.4777 81.8113 70.6702 81.222 70.9734C80.6292 71.2528 80.0808 71.5867 79.5766 71.9751C79.0963 72.36 78.6807 72.7722 78.3298 73.2117C78.0028 73.6478 77.7933 74.0549 77.7014 74.433C77.7218 74.9168 77.7678 75.4942 77.8394 76.1653C77.9314 76.8091 77.9723 77.436 77.9621 78.0458C77.9724 78.6283 77.9111 79.1359 77.7783 79.5685C77.6454 80.0012 77.3882 80.2448 77.0067 80.2993C76.7682 80.3334 76.5178 80.284 76.2555 80.1511C76.017 80.0149 75.8722 79.7679 75.8211 79.4102C75.8075 79.3148 75.8075 79.2297 75.8211 79.1547ZM89.6583 66.6654C89.9274 66.5052 90.1335 66.415 90.2766 66.3945C90.4674 66.3672 90.6667 66.3996 90.8745 66.4916C91.038 66.4439 91.2134 66.3945 91.4008 66.3434C91.6086 66.265 91.784 66.2156 91.9271 66.1951C92.714 66.0827 93.4533 66.1474 94.1448 66.3892C94.833 66.6072 95.4428 66.9581 95.9742 67.4418C96.5295 67.9221 96.9912 68.5131 97.3591 69.2149C97.7271 69.9166 97.9707 70.6848 98.0899 71.5194C98.1956 72.2587 98.1547 72.9945 97.9674 73.7269C97.8005 74.4321 97.5042 75.0828 97.0784 75.679C96.6764 76.2718 96.1757 76.7691 95.5761 77.1712C94.9766 77.5732 94.3191 77.8253 93.6037 77.9275C92.7214 78.0536 91.8902 78.0264 91.11 77.8459C90.3299 77.6654 89.6418 77.3622 89.0456 76.9364C88.4494 76.5106 87.9469 75.9741 87.5381 75.3268C87.1531 74.6762 86.9027 73.9455 86.7868 73.1347C86.6948 72.4908 86.6726 71.8248 86.7203 71.1367C86.7645 70.4247 86.9008 69.7604 87.129 69.1438C87.3572 68.5272 87.6706 67.9957 88.0691 67.5495C88.4916 67.0998 89.0213 66.8051 89.6583 66.6654ZM90.3533 68.464C89.8628 68.6071 89.5085 68.8524 89.2905 69.1999C89.0691 69.5236 88.9158 69.8983 88.8307 70.3241C88.7694 70.7465 88.7592 71.186 88.8001 71.6425C88.8376 72.0751 88.8819 72.4703 88.933 72.828C88.9943 73.2572 89.1289 73.6882 89.3367 74.1208C89.5411 74.5296 89.8239 74.8907 90.185 75.2041C90.5666 75.4902 91.0111 75.7065 91.5187 75.853C92.0263 75.9994 92.6259 76.0233 93.3174 75.9244C93.8421 75.8495 94.2934 75.6876 94.6716 75.4389C95.0701 75.163 95.3767 74.8393 95.5913 74.468C95.8264 74.0694 95.9847 73.6453 96.0665 73.1956C96.1482 72.7459 96.155 72.2826 96.0869 71.8057C95.9097 70.5657 95.4667 69.5948 94.7581 68.8931C94.0461 68.1675 93.1842 67.8405 92.1725 67.9121L91.4928 68.0092C91.3021 68.0365 91.1062 68.1131 90.9052 68.2392C90.7042 68.3652 90.5203 68.4402 90.3533 68.464ZM112.03 64.3444L112.111 64.9167C112.272 66.0375 112.357 67.2298 112.367 68.4937C112.401 69.7541 112.279 70.9397 111.999 72.0502C111.74 73.1336 111.291 74.0738 110.65 74.871C110.007 75.6443 109.1 76.1145 107.932 76.2815C107.097 76.4007 106.261 76.3377 105.423 76.0925C104.605 75.82 103.939 75.3312 103.425 74.626C103.036 74.1219 102.646 73.5206 102.255 72.8223C101.887 72.1205 101.537 71.3796 101.207 70.5995C100.897 69.7921 100.621 68.9678 100.379 68.1263C100.161 67.2815 99.994 66.4537 99.8782 65.6429C99.8339 65.3329 99.8952 65.0808 100.062 64.8866C100.249 64.6652 100.486 64.534 100.772 64.4931C101.059 64.4522 101.334 64.5101 101.6 64.6668C101.862 64.7997 102.031 65.0432 102.106 65.3975C102.334 66.4842 102.598 67.5658 102.898 68.6423C103.222 69.7154 103.59 70.6726 104.002 71.5141C104.435 72.3282 104.929 72.9755 105.484 73.4558C106.063 73.9327 106.711 74.12 107.426 74.0178C108.022 73.9326 108.518 73.6549 108.913 73.1848C109.305 72.6908 109.604 72.064 109.812 71.3043C110.044 70.5412 110.173 69.6589 110.2 68.6573C110.224 67.6319 110.154 66.5469 109.991 65.4023L109.873 64.5796C109.825 64.2457 109.885 63.9817 110.052 63.7875C110.239 63.5661 110.464 63.4366 110.726 63.3991C110.989 63.3617 111.253 63.4213 111.519 63.578C111.781 63.7108 111.951 63.9663 112.03 64.3444ZM119.777 79.2243L119.813 79.4746C119.877 79.9277 119.804 80.2667 119.593 80.4915C119.382 80.7164 119.145 80.8475 118.883 80.885C118.62 80.9225 118.392 80.8578 118.198 80.6909C118.004 80.524 117.856 80.2531 117.753 79.8784C117.518 78.9144 117.3 77.8992 117.099 76.8329C116.902 75.7905 116.723 74.7089 116.563 73.5881C116.338 72.0143 116.14 70.4609 115.97 68.9279C115.823 67.3915 115.733 65.9079 115.699 64.4771C115.671 64.116 115.744 63.8622 115.918 63.7157C116.112 63.542 116.341 63.4364 116.603 63.3989C116.77 63.375 116.952 63.3733 117.15 63.3937C117.511 63.1961 117.971 63.0088 118.529 62.8316C119.088 62.6544 119.654 62.5249 120.226 62.4432C121.037 62.3273 121.825 62.3119 122.592 62.3971C123.379 62.4549 124.086 62.6338 124.712 62.9335C125.339 63.2333 125.86 63.6454 126.276 64.17C126.712 64.6674 126.985 65.2976 127.094 66.0607C127.206 66.8476 127.142 67.672 126.9 68.5339C126.654 69.372 126.244 70.1606 125.668 70.8999C125.116 71.6357 124.393 72.2745 123.497 72.8162C122.625 73.3545 121.616 73.7054 120.472 73.869C120.138 73.9167 119.874 73.8571 119.68 73.6902C119.509 73.5199 119.407 73.3155 119.373 73.077C119.339 72.8385 119.37 72.6273 119.465 72.4434C119.557 72.2356 119.708 72.1044 119.92 72.0499C120.601 71.8795 121.27 71.6257 121.928 71.2884C122.582 70.9273 123.154 70.5048 123.645 70.0211C124.159 69.5339 124.554 68.9786 124.83 68.3552C125.103 67.7079 125.188 67.0266 125.086 66.3112C124.966 65.4766 124.494 64.8991 123.67 64.579C122.846 64.2588 121.79 64.1907 120.502 64.3747C120.079 64.4837 119.626 64.6337 119.143 64.8244C118.679 64.988 118.233 65.1856 117.804 65.4173C117.886 66.5006 117.981 67.6793 118.09 68.9533C118.22 70.2002 118.373 71.4436 118.55 72.6836C118.727 73.9236 118.91 75.1142 119.097 76.2554C119.308 77.3932 119.535 78.3828 119.777 79.2243ZM59.7448 108.924C60.6271 108.627 61.3884 108.336 62.0289 108.05C62.6932 107.76 63.2331 107.452 63.6487 107.125C64.0609 106.774 64.347 106.392 64.5071 105.98C64.6876 105.541 64.7353 105.023 64.6501 104.427C64.5786 103.926 64.323 103.5 63.8836 103.149C63.4441 102.798 62.8939 102.524 62.233 102.327C61.5721 102.129 60.8261 102.017 59.9948 101.989C59.1636 101.962 58.3069 102.012 57.4245 102.138C57.2099 102.168 56.9953 102.199 56.7807 102.23C56.5661 102.26 56.3412 102.305 56.1062 102.363C56.3617 103.129 56.5849 104.01 56.7757 105.004C56.9904 105.996 57.1744 107.028 57.3277 108.101C57.4572 109.007 57.5646 109.929 57.6498 110.866C57.7588 111.799 57.8491 112.686 57.9207 113.528C57.9889 114.345 58.0247 115.107 58.0281 115.812C58.052 116.49 58.0588 117.049 58.0486 117.488C58.0248 117.832 57.9175 118.103 57.7268 118.301C57.5598 118.495 57.3452 118.611 57.0829 118.648C56.8206 118.686 56.5583 118.638 56.296 118.505C56.0575 118.369 55.9144 118.134 55.8667 117.8C55.8497 117.681 55.848 117.584 55.8616 117.509C55.8479 116.902 55.8258 116.236 55.7951 115.511C55.7848 114.758 55.7456 113.972 55.6774 113.155C55.6093 112.337 55.5275 111.509 55.432 110.671C55.3571 109.806 55.2599 108.956 55.1407 108.122C54.9464 106.762 54.7198 105.517 54.4609 104.386C54.1985 103.231 53.8919 102.363 53.541 101.78C53.3536 101.491 53.2412 101.215 53.2037 100.952C53.156 100.619 53.2019 100.344 53.3416 100.13C53.4779 99.8913 53.6771 99.7533 53.9394 99.7158C54.3925 99.651 54.8252 99.8691 55.2374 100.37C55.4963 100.308 55.745 100.261 55.9834 100.227C56.2219 100.193 56.4604 100.159 56.6988 100.124C57.8912 99.9541 59.063 99.8961 60.2145 99.9506C61.3898 100.002 62.4373 100.18 63.3571 100.487C64.3008 100.79 65.0826 101.238 65.7026 101.831C66.3465 102.42 66.7349 103.18 66.8678 104.11C67.103 105.755 66.6431 107.135 65.4883 108.249C64.3574 109.36 62.6575 110.235 60.3887 110.876C60.341 110.882 60.3069 110.899 60.2865 110.927C60.2865 110.927 60.2627 110.93 60.215 110.937C59.905 110.981 59.6631 110.906 59.4893 110.712C59.3122 110.494 59.2032 110.242 59.1623 109.956C59.135 109.765 59.1674 109.566 59.2593 109.358C59.3513 109.15 59.5131 109.005 59.7448 108.924ZM74.2467 106.194L73.3167 106.327C72.942 106.6 72.6729 106.93 72.5094 107.319C72.3459 107.707 72.2335 108.112 72.1721 108.535C72.1313 108.93 72.1245 109.308 72.1518 109.669C72.179 110.03 72.208 110.318 72.2387 110.533C72.3068 111.01 72.4312 111.454 72.6118 111.866C72.8162 112.275 73.0615 112.629 73.3476 112.929C73.6542 113.202 73.9881 113.41 74.3492 113.553C74.7103 113.696 75.1055 113.737 75.5347 113.675C76.2978 113.566 76.8582 113.316 77.2159 112.924C77.5974 112.529 77.8478 112.067 77.967 111.539C78.11 111.008 78.1645 110.452 78.1304 109.873C78.0929 109.27 78.0384 108.718 77.9668 108.218C77.8748 107.914 77.7232 107.62 77.512 107.334C77.2974 107.024 77.0419 106.768 76.7455 106.567C76.4729 106.363 76.1714 106.211 75.841 106.112C75.531 105.986 75.221 105.946 74.911 105.99C74.6725 106.024 74.4511 106.092 74.2467 106.194ZM80.0007 111.723C79.8952 112.857 79.4302 113.776 78.6058 114.477C77.7815 115.179 76.8208 115.608 75.7239 115.765C74.937 115.878 74.2096 115.811 73.5419 115.566C72.8947 115.293 72.3291 114.912 71.8454 114.421C71.3582 113.907 70.9579 113.319 70.6445 112.659C70.3515 111.97 70.1538 111.269 70.0516 110.553C69.9698 109.981 69.9528 109.351 70.0004 108.663C70.0447 107.951 70.1809 107.286 70.4091 106.67C70.6373 106.053 70.9746 105.518 71.4208 105.065C71.8637 104.588 72.4428 104.299 73.1582 104.196C73.5397 104.142 73.8071 104.14 73.9604 104.191C74.0763 104.15 74.1819 104.123 74.2772 104.109C74.3726 104.096 74.4799 104.08 74.5992 104.063C75.7199 103.903 76.6363 104.016 77.3483 104.401C78.0603 104.785 78.6616 105.332 79.1522 106.041C79.6633 106.722 80.1027 107.499 80.4707 108.371C80.8387 109.243 81.2492 110.072 81.7023 110.859C81.8386 111.132 82.0277 111.433 82.2696 111.764C82.508 112.07 82.7465 112.377 82.985 112.684C83.2235 112.99 83.4211 113.266 83.5778 113.511C83.7583 113.753 83.8589 113.946 83.8793 114.089C83.9168 114.351 83.8504 114.567 83.68 114.738C83.5097 114.908 83.3053 115.01 83.0669 115.044C82.8284 115.078 82.5644 115.019 82.2748 114.866C82.0057 114.685 81.728 114.445 81.4419 114.145C81.1795 113.842 80.9206 113.477 80.6651 113.052C80.4096 112.626 80.1881 112.183 80.0007 111.723ZM88.2172 104.344C87.8152 104.596 87.6466 104.949 87.7114 105.402C87.7523 105.688 88.0163 106.003 88.5035 106.347C89.0145 106.688 89.5749 107.033 90.1847 107.384C90.8149 107.708 91.4196 108.023 91.9988 108.329C92.5779 108.636 92.9799 108.895 93.2047 109.106C93.634 109.556 93.8861 110.043 93.9611 110.568C94.0395 111.116 93.9833 111.574 93.7925 111.942C93.6256 112.307 93.3531 112.613 92.975 112.862C92.6207 113.107 92.1863 113.303 91.6719 113.45C91.1814 113.593 90.6619 113.703 90.1134 113.782C89.7319 113.836 89.2652 113.891 88.7133 113.945C88.1614 114 87.6164 114.017 87.0781 113.997C86.5637 113.973 86.1157 113.903 85.7342 113.787C85.3492 113.648 85.1363 113.435 85.0954 113.148C85.0613 112.91 85.0971 112.649 85.2027 112.367C85.3083 112.084 85.4922 111.924 85.7546 111.886C85.7784 111.883 85.8039 111.891 85.8312 111.912C85.855 111.908 85.8908 111.903 85.9385 111.896C86.4836 111.965 87.1666 111.976 87.9876 111.932C88.8086 111.888 89.6006 111.811 90.3637 111.702C90.7691 111.644 91.0944 111.537 91.3397 111.38C91.5816 111.2 91.6838 110.978 91.6463 110.716C91.6122 110.477 91.4572 110.244 91.1812 110.016C90.9019 109.764 90.5646 109.532 90.1694 109.321C89.7981 109.106 89.4046 108.907 88.989 108.723C88.5972 108.536 88.2566 108.365 87.967 108.212C87.1289 107.797 86.4987 107.388 86.0763 106.986C85.6743 106.557 85.4341 106.068 85.3557 105.519C85.2671 104.899 85.3505 104.376 85.606 103.951C85.8819 103.497 86.2532 103.116 86.7199 102.806C87.1866 102.496 87.7129 102.262 88.2989 102.106C88.9052 101.922 89.4946 101.789 90.0669 101.707C90.4007 101.659 90.7363 101.624 91.0735 101.6C91.4108 101.576 91.7174 101.593 91.9933 101.651C92.2659 101.685 92.4975 101.773 92.6883 101.916C92.8757 102.036 92.9881 102.226 93.0256 102.489C93.0631 102.751 93.0358 102.986 92.9439 103.194C92.8757 103.398 92.7224 103.518 92.484 103.552C92.2694 103.582 91.9423 103.593 91.5029 103.582C91.0873 103.569 90.6052 103.601 90.0568 103.679C89.3175 103.785 88.7043 104.007 88.2172 104.344ZM99.0196 102.8C98.6176 103.052 98.449 103.405 98.5137 103.858C98.5546 104.144 98.8187 104.459 99.3058 104.803C99.8168 105.144 100.377 105.49 100.987 105.84C101.617 106.164 102.222 106.479 102.801 106.786C103.38 107.092 103.782 107.351 104.007 107.562C104.436 108.012 104.688 108.499 104.763 109.024C104.842 109.572 104.786 110.03 104.595 110.398C104.428 110.763 104.155 111.07 103.777 111.318C103.423 111.564 102.989 111.759 102.474 111.906C101.984 112.049 101.464 112.16 100.916 112.238C100.534 112.293 100.068 112.347 99.5157 112.402C98.9638 112.456 98.4187 112.473 97.8805 112.453C97.3661 112.429 96.9181 112.359 96.5366 112.243C96.1516 112.104 95.9387 111.891 95.8978 111.605C95.8637 111.366 95.8995 111.106 96.0051 110.823C96.1107 110.54 96.2946 110.38 96.5569 110.343C96.5808 110.339 96.6063 110.348 96.6336 110.368C96.6574 110.365 96.6932 110.36 96.7409 110.353C97.2859 110.421 97.969 110.433 98.79 110.388C99.611 110.344 100.403 110.267 101.166 110.158C101.571 110.1 101.897 109.993 102.142 109.836C102.384 109.656 102.486 109.434 102.449 109.172C102.415 108.934 102.26 108.7 101.984 108.472C101.704 108.22 101.367 107.988 100.972 107.777C100.6 107.563 100.207 107.363 99.7914 107.179C99.3996 106.992 99.0589 106.822 98.7694 106.668C97.9313 106.253 97.3011 105.844 96.8786 105.442C96.4766 105.013 96.2364 104.524 96.1581 103.976C96.0695 103.356 96.1529 102.833 96.4084 102.407C96.6843 101.954 97.0556 101.572 97.5223 101.262C97.989 100.952 98.5153 100.719 99.1012 100.562C99.7076 100.378 100.297 100.245 100.869 100.163C101.203 100.116 101.539 100.08 101.876 100.056C102.213 100.032 102.52 100.049 102.796 100.107C103.068 100.141 103.3 100.23 103.491 100.373C103.678 100.492 103.79 100.683 103.828 100.945C103.865 101.207 103.838 101.442 103.746 101.65C103.678 101.855 103.525 101.974 103.286 102.008C103.072 102.039 102.745 102.049 102.305 102.039C101.89 102.025 101.408 102.057 100.859 102.136C100.12 102.241 99.5067 102.463 99.0196 102.8ZM109.219 100.613C109.25 101.168 109.284 101.747 109.321 102.35C109.383 102.95 109.458 103.559 109.546 104.179C109.672 105.062 109.834 105.939 110.032 106.811C110.253 107.68 110.424 108.531 110.543 109.366C110.611 109.843 110.543 110.218 110.338 110.49C110.158 110.759 109.937 110.913 109.674 110.95C109.436 110.984 109.221 110.93 109.03 110.787C108.86 110.616 108.736 110.342 108.657 109.964C108.432 108.901 108.221 107.934 108.024 107.061C107.846 106.162 107.693 105.259 107.563 104.353C107.512 103.996 107.436 103.544 107.333 102.999C107.252 102.427 107.199 101.887 107.175 101.379C107.172 100.844 107.228 100.386 107.344 100.005C107.48 99.5958 107.739 99.3642 108.12 99.3097C108.359 99.2756 108.577 99.3539 108.774 99.5447C108.996 99.732 109.132 100.005 109.183 100.362L109.219 100.613ZM106.337 92.7026C106.425 92.6412 106.505 92.6055 106.577 92.5953C106.672 92.5816 106.757 92.5816 106.832 92.5952C106.931 92.6055 107.004 92.6072 107.052 92.6003C107.168 92.5595 107.273 92.5322 107.369 92.5186C107.461 92.4811 107.566 92.4538 107.686 92.4368C108.473 92.3243 109.094 92.5032 109.551 92.9733C110.031 93.4399 110.314 93.9714 110.399 94.5675C110.44 94.8537 110.413 95.1739 110.317 95.5282C110.246 95.8791 110.099 96.2163 109.878 96.54C109.677 96.8364 109.399 97.1072 109.045 97.3525C108.691 97.5978 108.263 97.7562 107.762 97.8278C107.429 97.8755 107.107 97.8363 106.797 97.7103C106.487 97.5843 106.207 97.4174 105.959 97.2096C105.707 96.9779 105.499 96.7156 105.335 96.4227C105.168 96.1059 105.063 95.7924 105.018 95.4824C104.95 95.0055 105.034 94.4826 105.269 93.9137C105.528 93.3414 105.883 92.9376 106.337 92.7026ZM107.461 94.4399L107.175 94.4808C107.062 94.5455 106.991 94.6409 106.96 94.767C106.929 94.893 106.923 95.0156 106.94 95.1349C106.97 95.3495 107.083 95.5403 107.277 95.7072C107.468 95.8502 107.635 95.9116 107.778 95.8911C108.135 95.84 108.359 95.6986 108.447 95.467C108.532 95.2115 108.561 94.9883 108.534 94.7976C108.36 94.433 108.094 94.2764 107.737 94.3275C107.689 94.3343 107.597 94.3718 107.461 94.4399ZM117.425 98.7829C117.773 98.4899 118.19 98.26 118.677 98.093C119.188 97.9227 119.718 97.7983 120.267 97.7199C121.036 97.6586 121.711 97.696 122.29 97.8322C122.869 97.9685 123.368 98.2257 123.787 98.6038C124.203 98.958 124.542 99.4571 124.804 100.101C125.063 100.721 125.261 101.508 125.397 102.462C125.537 103.439 125.62 104.364 125.648 105.236C125.672 106.085 125.646 106.843 125.571 107.51C125.493 108.154 125.36 108.672 125.173 109.064C125.012 109.476 124.789 109.703 124.503 109.743C124.289 109.774 124.088 109.73 123.9 109.611C123.713 109.491 123.597 109.277 123.553 108.967C123.508 108.657 123.488 108.258 123.491 107.771C123.515 107.257 123.536 106.718 123.553 106.156C123.59 105.567 123.604 104.981 123.593 104.398C123.604 103.789 123.573 103.233 123.501 102.733C123.403 102.041 123.265 101.501 123.087 101.113C122.931 100.697 122.728 100.385 122.479 100.178C122.251 99.9427 121.975 99.7996 121.651 99.7485C121.324 99.6736 120.955 99.6412 120.543 99.6515C120.042 99.723 119.553 99.878 119.076 100.117C118.599 100.355 118.182 100.5 117.824 100.551C117.609 100.582 117.419 100.524 117.252 100.377C117.109 100.227 117.022 100.045 116.991 99.8305C116.967 99.6635 116.979 99.4915 117.027 99.3144C117.095 99.11 117.228 98.9328 117.425 98.7829ZM115.8 98.6501C116.025 100.224 116.266 101.82 116.521 103.438C116.773 105.032 117.089 106.472 117.467 107.756L117.503 108.006C117.56 108.412 117.497 108.737 117.313 108.982C117.15 109.2 116.949 109.326 116.711 109.361C116.496 109.391 116.28 109.325 116.062 109.161C115.844 108.998 115.682 108.717 115.576 108.318C115.293 107.191 115.029 106.024 114.784 104.818C114.539 103.612 114.324 102.365 114.14 101.077C114.102 100.815 114.048 100.519 113.976 100.188C113.905 99.8579 113.86 99.5479 113.843 99.2583C113.847 98.9415 113.906 98.6775 114.022 98.4662C114.158 98.2278 114.394 98.0847 114.727 98.037C114.966 98.0029 115.192 98.0557 115.407 98.1954C115.642 98.3078 115.773 98.4594 115.8 98.6501ZM139.828 107.918C139.852 108.596 139.673 109.303 139.291 110.039C138.913 110.799 138.407 111.516 137.774 112.191C137.164 112.862 136.459 113.461 135.658 113.989C134.861 114.541 134.068 114.947 133.277 115.206C133.233 115.236 133.163 115.258 133.068 115.272C132.758 115.316 132.487 115.209 132.255 114.95C132.024 114.691 131.884 114.395 131.836 114.061C131.806 113.846 131.824 113.637 131.892 113.432C131.988 113.249 132.15 113.104 132.378 112.998C133.076 112.777 133.746 112.438 134.386 111.981C135.05 111.521 135.634 111.012 136.139 110.453C136.643 109.894 137.036 109.327 137.319 108.752C137.602 108.176 137.723 107.66 137.682 107.203C137.453 105.605 137.193 104.037 136.9 102.497C136.603 100.933 136.295 99.3714 135.975 97.8112C135.726 97.7737 135.491 97.7465 135.269 97.7295C135.048 97.7124 134.826 97.6954 134.605 97.6784L133.266 97.7602C131.979 97.9442 131.067 98.3786 130.532 99.0634C129.994 99.7243 129.781 100.448 129.894 101.235C130.091 102.618 130.674 103.545 131.642 104.015C132.633 104.482 133.844 104.613 135.275 104.408L135.668 104.352C135.859 104.325 136.051 104.394 136.246 104.561C136.464 104.725 136.591 104.938 136.629 105.2C136.68 105.558 136.609 105.824 136.414 105.997C136.244 106.168 135.885 106.292 135.336 106.37C134.12 106.544 133.061 106.537 132.158 106.35C131.275 106.136 130.523 105.805 129.899 105.359C129.272 104.889 128.778 104.327 128.417 103.673C128.08 103.015 127.857 102.305 127.748 101.542C127.635 100.755 127.679 100.043 127.88 99.4059C128.102 98.7415 128.446 98.1692 128.913 97.6889C129.403 97.2051 129.979 96.8065 130.64 96.4931C131.324 96.1762 132.084 95.9581 132.919 95.8389C133.515 95.7537 134.094 95.7196 134.656 95.7366C135.218 95.7536 135.688 95.8081 136.066 95.9001C136.203 95.8319 136.342 95.7876 136.485 95.7672C136.772 95.7263 137.042 95.7484 137.298 95.8336C137.553 95.9187 137.729 96.1248 137.824 96.4519C138.141 97.8179 138.443 99.1618 138.729 100.484C139.036 101.778 139.281 103.069 139.465 104.357C139.55 104.953 139.623 105.551 139.685 106.15C139.743 106.726 139.79 107.316 139.828 107.918Z" fill="black"/>
<defs>
<filter id="filter0_d" x="0" y="0" width="193.226" height="181.4" filterUnits="userSpaceOnUse" color-interpolation-filters="sRGB">
<feFlood flood-opacity="0" result="BackgroundImageFix"/>
<feColorMatrix in="SourceAlpha" type="matrix" values="0 0 0 0 0 0 0 0 0 0 0 0 0 0 0 0 0 0 127 0"/>
<feOffset dy="4"/>
<feGaussianBlur stdDeviation="2"/>
<feColorMatrix type="matrix" values="0 0 0 0 0 0 0 0 0 0 0 0 0 0 0 0 0 0 0.25 0"/>
<feBlend mode="normal" in2="BackgroundImageFix" result="effect1_dropShadow"/>
<feBlend mode="normal" in="SourceGraphic" in2="effect1_dropShadow" result="shape"/>
</filter>
</defs>
</svg>
