<svg width="514" height="227" viewBox="0 0 514 227" fill="none" xmlns="http://www.w3.org/2000/svg">
<path d="M16.8378 0.543997L26.2698 0.688H34.5498C40.6938 0.688 45.3018 1.888 48.3738 4.288C51.4458 6.64 52.9818 9.544 52.9818 13C52.9818 15.544 51.9978 17.824 50.0298 19.84C48.0618 21.808 45.5898 23.08 42.6138 23.656V23.944C46.9338 24.712 50.3418 26.248 52.8378 28.552C55.3338 30.856 56.5818 33.472 56.5818 36.4C56.5818 39.904 54.7338 42.88 51.0378 45.328C47.3418 47.776 42.3498 49 36.0618 49H29.0778L16.8378 49.144C16.4538 49.144 16.2618 48.736 16.2618 47.92C16.2618 47.104 16.4538 46.696 16.8378 46.696H19.9338C21.1338 46.696 21.9258 46.48 22.3098 46.048C22.6938 45.568 22.8858 44.68 22.8858 43.384V9.328C22.8858 5.104 22.3818 2.992 21.3738 2.992H16.8378C16.4538 2.992 16.2618 2.584 16.2618 1.768C16.2618 0.951998 16.4538 0.543997 16.8378 0.543997ZM30.3018 39.784C30.3018 44.008 30.8298 46.12 31.8858 46.12H35.5578C39.5418 46.12 42.5898 45.232 44.7018 43.456C46.8138 41.68 47.8698 39.328 47.8698 36.4C47.8698 33.232 46.7658 30.712 44.5578 28.84C42.0618 26.68 37.3098 25.456 30.3018 25.168V39.784ZM30.3018 6.88V22.288C31.4538 22.48 32.7258 22.576 34.1178 22.576C37.6218 22.576 40.3338 21.712 42.2538 19.984C44.2218 18.208 45.2058 16 45.2058 13.36C45.2058 10.72 44.1498 8.44 42.0378 6.52C39.9258 4.552 36.7098 3.568 32.3898 3.568C30.9978 3.568 30.3018 4.672 30.3018 6.88ZM71.4903 49L63.7863 49.144C63.4503 49.144 63.2823 48.784 63.2823 48.064C63.2823 47.344 63.4023 46.984 63.6423 46.984H67.1703C67.7463 46.984 68.0343 46.576 68.0343 45.76V22.144C68.0343 18.352 67.5063 16.456 66.4503 16.456H63.9303C63.4023 16.456 63.1383 16.096 63.1383 15.376C63.1383 14.608 63.3543 14.224 63.7863 14.224C68.0583 14.32 72.4263 14.368 76.8903 14.368C81.3543 14.368 84.8103 15.328 87.2583 17.248C89.7543 19.12 91.0023 21.448 91.0023 24.232C91.0023 26.968 90.0183 29.176 88.0503 30.856C86.0823 32.536 83.7063 33.496 80.9223 33.736C82.3143 34.696 84.1143 36.616 86.3223 39.496C87.1383 40.6 88.4103 41.872 90.1383 43.312C91.8663 44.704 93.8103 45.952 95.9703 47.056C95.0103 48.976 93.5463 49.936 91.5783 49.936C89.6103 49.936 87.8823 49.216 86.3943 47.776C84.9063 46.336 83.7543 44.752 82.9383 43.024C82.1223 41.248 81.2103 39.424 80.2023 37.552C79.2423 35.68 78.3303 34.456 77.4663 33.88L74.1543 33.664V42.016C74.1543 45.184 74.6343 46.768 75.5943 46.768H78.6183C79.0023 46.768 79.1943 47.152 79.1943 47.92C79.1943 48.64 79.0743 49 78.8343 49H71.4903ZM75.5943 16.528C74.6343 16.528 74.1543 17.32 74.1543 18.904V30.856C74.8263 31 75.4983 31.072 76.1703 31.072C78.3303 31.072 80.2023 30.472 81.7863 29.272C83.3703 28.072 84.1623 26.44 84.1623 24.376C84.1623 22.312 83.4423 20.488 82.0023 18.904C80.6103 17.32 78.4743 16.528 75.5943 16.528ZM100.002 49L94.3143 49.144C93.9783 49.144 93.8103 48.832 93.8103 48.208C93.8103 47.584 93.9783 47.272 94.3143 47.272H96.6183C97.1463 47.272 97.5303 47.056 97.7703 46.624C98.8743 44.8 101.082 39.952 104.394 32.08C107.706 24.16 110.082 18.16 111.522 14.08C111.714 13.648 112.17 13.432 112.89 13.432C113.658 13.432 114.138 13.672 114.33 14.152C114.906 16.552 116.586 21.088 119.37 27.76C122.202 34.432 124.674 40 126.786 44.464C127.362 45.616 127.89 46.36 128.37 46.696C128.85 47.032 129.594 47.2 130.602 47.2C130.89 47.2 131.034 47.536 131.034 48.208C131.034 48.832 130.914 49.144 130.674 49.144L123.762 49L115.986 49.144C115.698 49.144 115.554 48.832 115.554 48.208C115.554 47.584 115.698 47.272 115.986 47.272H119.442C119.97 47.272 120.234 47.056 120.234 46.624C120.234 46.576 118.89 42.88 116.202 35.536H106.194C103.842 41.344 102.666 44.752 102.666 45.76C102.666 46.72 102.954 47.2 103.53 47.2H106.482C106.866 47.2 107.058 47.536 107.058 48.208C107.058 48.832 106.914 49.144 106.626 49.144L100.002 49ZM115.266 33.088C115.122 32.656 113.874 29.008 111.522 22.144H111.306C110.154 25.456 108.786 29.104 107.202 33.088H115.266ZM134.594 14.224L140.282 14.368C140.81 14.368 141.266 14.368 141.65 14.368L149.138 14.224C149.474 14.224 149.642 14.584 149.642 15.304C149.642 15.976 149.45 16.312 149.066 16.312H145.754C145.13 16.312 144.818 16.696 144.818 17.464V41.296C144.818 44.944 145.298 46.768 146.258 46.768H149.858C150.242 46.768 150.434 47.152 150.434 47.92C150.434 48.64 150.29 49 150.002 49L141.65 48.928L134.45 49.144C134.114 49.144 133.946 48.784 133.946 48.064C133.946 47.344 134.09 46.984 134.378 46.984H137.618C138.146 46.984 138.458 46.888 138.554 46.696C138.65 46.456 138.698 45.856 138.698 44.896V22.216C138.698 18.376 138.218 16.456 137.258 16.456H134.666C134.09 16.456 133.802 16.096 133.802 15.376C133.802 14.608 134.066 14.224 134.594 14.224ZM189.073 14.368L195.697 14.224C195.985 14.224 196.129 14.584 196.129 15.304C196.129 15.976 195.985 16.312 195.697 16.312H193.177C192.505 16.312 192.073 16.48 191.881 16.816C191.017 18.304 190.585 29.104 190.585 49.216C190.585 49.696 190.177 49.936 189.361 49.936C188.593 49.936 188.041 49.768 187.705 49.432C178.105 38.008 170.377 28.744 164.521 21.64H164.305C164.449 30.136 164.593 37.24 164.737 42.952C164.737 45.448 165.097 46.696 165.817 46.696H168.697C168.985 46.696 169.129 47.08 169.129 47.848C169.129 48.568 168.985 48.928 168.697 48.928H162.721L156.169 49.072C155.929 49.072 155.809 48.736 155.809 48.064C155.809 47.344 155.929 46.984 156.169 46.984H157.897C159.385 46.984 160.153 46.504 160.201 45.544C160.921 37.768 161.281 28.672 161.281 18.256C160.513 17.344 159.865 16.816 159.337 16.672C158.809 16.528 157.825 16.456 156.385 16.456C156.097 16.456 155.953 16.096 155.953 15.376C155.953 14.608 156.097 14.224 156.385 14.224L166.537 14.368C178.201 29.152 185.065 37.912 187.129 40.648H187.273C187.081 28.072 186.913 20.896 186.769 19.12C186.625 17.344 186.241 16.456 185.617 16.456H183.097C182.761 16.456 182.593 16.096 182.593 15.376C182.593 14.608 182.761 14.224 183.097 14.224L189.073 14.368ZM222.259 14.08L223.771 22C223.771 22.384 223.483 22.576 222.907 22.576C222.331 22.576 221.971 22.384 221.827 22C221.203 20.224 220.219 18.76 218.875 17.608C217.531 16.456 216.067 15.88 214.483 15.88C212.947 15.832 211.579 16.264 210.379 17.176C209.227 18.088 208.651 19.216 208.651 20.56C208.651 21.856 209.035 23.056 209.803 24.16C210.619 25.216 211.603 26.128 212.755 26.896C213.907 27.664 215.179 28.552 216.571 29.56C217.963 30.52 219.235 31.48 220.387 32.44C221.539 33.4 222.499 34.648 223.267 36.184C224.083 37.72 224.491 39.376 224.491 41.152C224.491 43.936 223.267 46.096 220.819 47.632C218.371 49.168 215.707 49.936 212.827 49.936C209.995 49.936 207.379 49.384 204.979 48.28C204.979 48.856 204.931 49.216 204.835 49.36C204.787 49.504 204.547 49.6 204.115 49.648H203.827C203.443 49.648 203.227 49.456 203.179 49.072C203.083 47.92 202.891 46.336 202.603 44.32C202.315 42.304 202.099 40.672 201.955 39.424C201.955 38.944 202.243 38.704 202.819 38.704C203.443 38.704 203.779 38.824 203.827 39.064C204.499 41.416 205.675 43.456 207.355 45.184C209.035 46.864 210.787 47.704 212.611 47.704C214.435 47.704 215.947 47.272 217.147 46.408C218.347 45.496 218.947 44.248 218.947 42.664C218.947 41.08 218.395 39.64 217.291 38.344C216.235 37 214.939 35.8 213.403 34.744C211.867 33.688 210.331 32.632 208.795 31.576C207.259 30.472 205.939 29.128 204.835 27.544C203.779 25.96 203.251 24.232 203.251 22.36C203.251 19.672 204.379 17.536 206.635 15.952C208.939 14.368 211.651 13.576 214.771 13.576C216.547 13.576 218.443 13.912 220.459 14.584C220.363 14.296 220.315 13.96 220.315 13.576C220.315 13.144 220.531 12.928 220.963 12.928C221.443 12.928 221.755 13 221.899 13.144C222.043 13.24 222.163 13.552 222.259 14.08ZM262.968 21.928C262.968 22.216 262.632 22.36 261.96 22.36C261.336 22.36 261.024 22.192 261.024 21.856C260.544 19.504 259.824 18.208 258.864 17.968C257.136 17.584 254.52 17.344 251.016 17.248H249.648C249.168 17.296 248.928 17.68 248.928 18.4V41.296C248.928 44.944 249.408 46.768 250.368 46.768H253.968C254.352 46.768 254.544 47.152 254.544 47.92C254.544 48.64 254.4 49 254.112 49L245.76 48.928L238.56 49.144C238.224 49.144 238.056 48.784 238.056 48.064C238.056 47.344 238.2 46.984 238.488 46.984H241.728C242.256 46.984 242.568 46.888 242.664 46.696C242.76 46.456 242.808 45.856 242.808 44.896V23.008C242.808 19.408 242.376 17.488 241.512 17.248C237.624 17.248 234.72 17.488 232.8 17.968C231.84 18.208 231.12 19.504 230.64 21.856C230.64 22.192 230.304 22.36 229.632 22.36C229.008 22.36 228.696 22.216 228.696 21.928L229.056 13.288C229.056 13 229.368 12.856 229.992 12.856C230.664 12.856 231 13 231 13.288V14.224C231 14.224 234.144 14.272 240.432 14.368H245.76C253.056 14.368 257.952 14.32 260.448 14.224H260.664V13.288C260.664 13 260.976 12.856 261.6 12.856C262.272 12.856 262.608 13 262.608 13.288L262.968 21.928ZM272.945 18.832C276.833 15.232 281.345 13.432 286.481 13.432C291.617 13.432 296.105 15.232 299.945 18.832C303.833 22.432 305.777 26.704 305.777 31.648C305.777 36.544 303.833 40.816 299.945 44.464C296.105 48.112 291.617 49.936 286.481 49.936C281.345 49.936 276.833 48.112 272.945 44.464C269.105 40.816 267.185 36.544 267.185 31.648C267.185 26.704 269.105 22.432 272.945 18.832ZM295.193 20.56C292.937 17.536 290.033 16.024 286.481 16.024C282.929 16.024 280.025 17.536 277.769 20.56C275.513 23.536 274.385 27.232 274.385 31.648C274.385 36.016 275.513 39.736 277.769 42.808C280.025 45.832 282.929 47.344 286.481 47.344C290.033 47.344 292.937 45.832 295.193 42.808C297.449 39.736 298.577 36.016 298.577 31.648C298.577 27.232 297.449 23.536 295.193 20.56ZM319.623 49L311.919 49.144C311.583 49.144 311.415 48.784 311.415 48.064C311.415 47.344 311.535 46.984 311.775 46.984H315.303C315.879 46.984 316.167 46.576 316.167 45.76V22.144C316.167 18.352 315.639 16.456 314.583 16.456H312.063C311.535 16.456 311.271 16.096 311.271 15.376C311.271 14.608 311.487 14.224 311.919 14.224C316.191 14.32 320.559 14.368 325.023 14.368C329.487 14.368 332.943 15.328 335.391 17.248C337.887 19.12 339.135 21.448 339.135 24.232C339.135 26.968 338.151 29.176 336.183 30.856C334.215 32.536 331.839 33.496 329.055 33.736C330.447 34.696 332.247 36.616 334.455 39.496C335.271 40.6 336.543 41.872 338.271 43.312C339.999 44.704 341.943 45.952 344.103 47.056C343.143 48.976 341.679 49.936 339.711 49.936C337.743 49.936 336.015 49.216 334.527 47.776C333.039 46.336 331.887 44.752 331.071 43.024C330.255 41.248 329.343 39.424 328.335 37.552C327.375 35.68 326.463 34.456 325.599 33.88L322.287 33.664V42.016C322.287 45.184 322.767 46.768 323.727 46.768H326.751C327.135 46.768 327.327 47.152 327.327 47.92C327.327 48.64 327.207 49 326.967 49H319.623ZM323.727 16.528C322.767 16.528 322.287 17.32 322.287 18.904V30.856C322.959 31 323.631 31.072 324.303 31.072C326.463 31.072 328.335 30.472 329.919 29.272C331.503 28.072 332.295 26.44 332.295 24.376C332.295 22.312 331.575 20.488 330.135 18.904C328.743 17.32 326.607 16.528 323.727 16.528ZM381.543 14.44L390.975 14.224C391.359 14.224 391.551 14.584 391.551 15.304C391.551 15.976 391.359 16.312 390.975 16.312H389.175C388.119 16.312 387.591 17.2 387.591 18.976C387.591 19.744 387.927 23.536 388.599 30.352C389.319 37.168 389.775 41.608 389.967 43.672C390.207 45.736 390.639 46.768 391.263 46.768H394.431C394.863 46.768 395.079 47.152 395.079 47.92C395.079 48.64 394.887 49 394.503 49L387.447 48.928L380.175 49.144C379.839 49.144 379.671 48.784 379.671 48.064C379.671 47.344 379.815 46.984 380.103 46.984H382.335C383.631 46.984 384.231 46.432 384.135 45.328C383.175 31.888 382.647 24.28 382.551 22.504H382.263C377.799 31.912 374.103 40.432 371.175 48.064C370.983 48.496 370.503 48.712 369.735 48.712C369.015 48.712 368.559 48.472 368.367 47.992C367.071 44.632 363.567 35.944 357.855 21.928H357.639C356.919 31.864 356.559 37.744 356.559 39.568C356.559 41.392 356.559 42.376 356.559 42.52C356.559 45.352 356.991 46.768 357.855 46.768H360.087C360.567 46.768 360.807 47.152 360.807 47.92C360.807 48.64 360.567 49 360.087 49L354.327 48.928L347.415 49.144C347.127 49.144 346.983 48.784 346.983 48.064C346.983 47.344 347.151 46.984 347.487 46.984H349.215C350.367 46.984 351.063 46.864 351.303 46.624C351.591 46.336 351.783 45.976 351.879 45.544C352.215 43.576 352.719 39.304 353.391 32.728C354.111 26.152 354.471 22.12 354.471 20.632C354.519 19.096 354.423 18.016 354.183 17.392C353.991 16.768 353.607 16.456 353.031 16.456H351.015C350.727 16.456 350.583 16.096 350.583 15.376C350.583 14.608 350.727 14.224 351.015 14.224L357.927 14.44H361.311C361.743 15.688 364.911 24.376 370.815 40.504H371.103C374.463 33.304 377.943 24.616 381.543 14.44ZM399.462 14.224L405.15 14.368C405.678 14.368 406.134 14.368 406.518 14.368L414.006 14.224C414.342 14.224 414.51 14.584 414.51 15.304C414.51 15.976 414.318 16.312 413.934 16.312H410.622C409.998 16.312 409.686 16.696 409.686 17.464V41.296C409.686 44.944 410.166 46.768 411.126 46.768H414.726C415.11 46.768 415.302 47.152 415.302 47.92C415.302 48.64 415.158 49 414.87 49L406.518 48.928L399.318 49.144C398.982 49.144 398.814 48.784 398.814 48.064C398.814 47.344 398.958 46.984 399.246 46.984H402.486C403.014 46.984 403.326 46.888 403.422 46.696C403.518 46.456 403.566 45.856 403.566 44.896V22.216C403.566 18.376 403.086 16.456 402.126 16.456H399.534C398.958 16.456 398.67 16.096 398.67 15.376C398.67 14.608 398.934 14.224 399.462 14.224ZM453.94 14.368L460.564 14.224C460.852 14.224 460.996 14.584 460.996 15.304C460.996 15.976 460.852 16.312 460.564 16.312H458.044C457.372 16.312 456.94 16.48 456.748 16.816C455.884 18.304 455.452 29.104 455.452 49.216C455.452 49.696 455.044 49.936 454.228 49.936C453.46 49.936 452.908 49.768 452.572 49.432C442.972 38.008 435.244 28.744 429.388 21.64H429.172C429.316 30.136 429.46 37.24 429.604 42.952C429.604 45.448 429.964 46.696 430.684 46.696H433.564C433.852 46.696 433.996 47.08 433.996 47.848C433.996 48.568 433.852 48.928 433.564 48.928H427.588L421.036 49.072C420.796 49.072 420.676 48.736 420.676 48.064C420.676 47.344 420.796 46.984 421.036 46.984H422.764C424.252 46.984 425.02 46.504 425.068 45.544C425.788 37.768 426.148 28.672 426.148 18.256C425.38 17.344 424.732 16.816 424.204 16.672C423.676 16.528 422.692 16.456 421.252 16.456C420.964 16.456 420.82 16.096 420.82 15.376C420.82 14.608 420.964 14.224 421.252 14.224L431.404 14.368C443.068 29.152 449.932 37.912 451.996 40.648H452.14C451.948 28.072 451.78 20.896 451.636 19.12C451.492 17.344 451.108 16.456 450.484 16.456H447.964C447.628 16.456 447.46 16.096 447.46 15.376C447.46 14.608 447.628 14.224 447.964 14.224L453.94 14.368ZM496.199 33.952L503.615 33.808C503.951 33.808 504.119 34.168 504.119 34.888C504.119 35.608 503.951 35.968 503.615 35.968H502.031C501.167 35.968 500.567 36.136 500.231 36.472C499.943 36.808 499.799 37.432 499.799 38.344C499.799 43.624 499.919 47.008 500.159 48.496C500.447 49.984 500.591 50.824 500.591 51.016C500.591 51.448 500.351 51.664 499.871 51.664C499.487 51.664 499.031 50.992 498.503 49.648C498.023 48.352 497.567 47.704 497.135 47.704C497.039 47.704 496.487 47.896 495.479 48.28C492.599 49.384 489.815 49.936 487.127 49.936C481.031 49.936 475.991 48.448 472.007 45.472C468.071 42.496 466.103 38.152 466.103 32.44C466.103 26.728 468.215 22.144 472.439 18.688C476.711 15.184 481.799 13.432 487.703 13.432C490.295 13.432 493.127 14.08 496.199 15.376V14.224C496.199 13.84 496.511 13.648 497.135 13.648C497.759 13.648 498.071 13.84 498.071 14.224C498.071 17.2 498.239 19.84 498.575 22.144C498.623 22.288 498.527 22.432 498.287 22.576C498.095 22.672 497.783 22.72 497.351 22.72C496.919 22.72 496.655 22.552 496.559 22.216L496.199 19.912C493.367 17.368 490.127 16.096 486.479 16.096C482.879 16.096 479.783 17.488 477.191 20.272C474.647 23.056 473.375 26.8 473.375 31.504C473.375 36.208 474.671 40.024 477.263 42.952C479.855 45.88 483.119 47.344 487.055 47.344C488.303 47.344 489.479 47.2 490.583 46.912C491.687 46.576 492.479 46.24 492.959 45.904L493.679 45.4V40.576C493.679 37.504 493.319 35.968 492.599 35.968H487.055C486.719 35.968 486.551 35.632 486.551 34.96C486.551 34.24 486.719 33.88 487.055 33.88L496.199 33.952Z" fill="black"/>
<rect y="67" width="160" height="160" fill="#FFDF00"/>
<path d="M76.1055 168.387C76.5612 165.327 76.9844 161.518 77.375 156.961C77.7656 152.404 77.9609 147.814 77.9609 143.191C77.9609 140.001 77.7982 137.039 77.4727 134.305C77.2122 131.505 76.7565 129.194 76.1055 127.371C75.9102 126.915 75.7799 126.492 75.7148 126.102C75.6497 125.646 75.6172 125.255 75.6172 124.93C75.6172 123.953 75.8451 123.204 76.3008 122.684C76.7565 122.098 77.3424 121.805 78.0586 121.805C79.2956 121.805 80.2721 122.586 80.9883 124.148C81.7695 125.646 82.3555 127.632 82.7461 130.105C83.2018 132.514 83.4948 135.216 83.625 138.211C83.8203 141.141 83.918 144.005 83.918 146.805C83.918 151.167 83.6901 155.398 83.2344 159.5C82.7786 163.536 82.3555 166.824 81.9648 169.363C81.8346 170.275 81.444 170.958 80.793 171.414C80.207 171.87 79.6211 172.098 79.0352 172.098C78.2539 172.098 77.5378 171.837 76.8867 171.316C76.3008 170.796 76.0078 170.079 76.0078 169.168C76.0078 168.842 76.0404 168.582 76.1055 168.387Z" fill="black"/>
<rect x="354" y="67" width="160" height="160" fill="#FFDF00"/>
<path d="M430.105 168.387C430.561 165.327 430.984 161.518 431.375 156.961C431.766 152.404 431.961 147.814 431.961 143.191C431.961 140.001 431.798 137.039 431.473 134.305C431.212 131.505 430.757 129.194 430.105 127.371C429.91 126.915 429.78 126.492 429.715 126.102C429.65 125.646 429.617 125.255 429.617 124.93C429.617 123.953 429.845 123.204 430.301 122.684C430.757 122.098 431.342 121.805 432.059 121.805C433.296 121.805 434.272 122.586 434.988 124.148C435.77 125.646 436.355 127.632 436.746 130.105C437.202 132.514 437.495 135.216 437.625 138.211C437.82 141.141 437.918 144.005 437.918 146.805C437.918 151.167 437.69 155.398 437.234 159.5C436.779 163.536 436.355 166.824 435.965 169.363C435.835 170.275 435.444 170.958 434.793 171.414C434.207 171.87 433.621 172.098 433.035 172.098C432.254 172.098 431.538 171.837 430.887 171.316C430.301 170.796 430.008 170.079 430.008 169.168C430.008 168.842 430.04 168.582 430.105 168.387Z" fill="black"/>
<rect x="172" y="67" width="160" height="160" fill="#FFDF00"/>
<path d="M245.566 130.496C246.348 130.171 247.129 130.008 247.91 130.008C248.952 130.008 249.733 130.171 250.254 130.496C250.775 130.496 251.296 130.431 251.816 130.301C252.402 130.171 253.021 130.105 253.672 130.105C256.276 130.105 258.555 130.626 260.508 131.668C262.461 132.71 264.089 134.044 265.391 135.672C266.758 137.299 267.767 139.122 268.418 141.141C269.069 143.159 269.395 145.145 269.395 147.098C269.395 149.376 269.004 151.525 268.223 153.543C267.441 155.496 266.367 157.221 265 158.719C263.633 160.216 262.005 161.388 260.117 162.234C258.229 163.081 256.178 163.504 253.965 163.504C251.426 163.504 248.984 163.178 246.641 162.527C244.362 161.811 242.344 160.77 240.586 159.402C238.893 158.035 237.526 156.342 236.484 154.324C235.508 152.241 235.02 149.832 235.02 147.098C235.02 142.41 235.996 138.667 237.949 135.867C239.902 133.068 242.441 131.277 245.566 130.496ZM248.691 137.332H248.008C246.836 137.332 245.827 137.658 244.98 138.309C244.134 138.895 243.418 139.676 242.832 140.652C242.246 141.564 241.79 142.605 241.465 143.777C241.204 144.949 241.074 146.056 241.074 147.098C241.074 148.79 241.432 150.288 242.148 151.59C242.865 152.827 243.809 153.868 244.98 154.715C246.152 155.561 247.487 156.212 248.984 156.668C250.482 157.059 252.012 157.254 253.574 157.254C254.616 157.254 255.723 157.059 256.895 156.668C258.066 156.212 259.141 155.561 260.117 154.715C261.094 153.803 261.908 152.729 262.559 151.492C263.21 150.255 263.535 148.79 263.535 147.098C263.535 145.6 263.275 144.201 262.754 142.898C262.233 141.531 261.517 140.359 260.605 139.383C259.694 138.406 258.62 137.625 257.383 137.039C256.211 136.453 254.941 136.16 253.574 136.16C252.663 136.16 251.816 136.258 251.035 136.453C250.254 136.583 249.473 136.876 248.691 137.332Z" fill="black"/>
</svg>
