<svg width="205" height="204" viewBox="0 0 205 204" fill="none" xmlns="http://www.w3.org/2000/svg">
<g filter="url(#filter0_d)">
<path d="M49.7225 8.81316L200.723 36.3131C200.723 36.3131 186.705 83.2427 177.723 113.313C168.74 143.383 165.223 187.313 154.722 190.313C144.222 193.313 11.3793 162.126 8.22212 150.813C5.06498 139.5 25.6583 109.695 33.7215 82.3127C42.0195 54.1334 49.7225 8.81316 49.7225 8.81316Z" fill="#FFDF00"/>
<path d="M83.408 60.1188C83.6105 59.7694 83.9702 59.6533 84.4871 59.7703C84.769 59.8341 85.0206 59.9775 85.2418 60.2005C85.4918 60.4052 85.5876 60.6369 85.5291 60.8953L85.4972 61.0363C85.2339 61.5447 84.9664 62.1263 84.6947 62.781C84.4283 63.4123 84.163 64.0932 83.8989 64.8237C83.6582 65.5596 83.424 66.3216 83.1962 67.1097C82.9737 67.8744 82.7773 68.6327 82.6071 69.3845C82.4157 70.2303 82.2439 71.0435 82.0919 71.8241C81.9399 72.6047 81.8797 73.3073 81.9112 73.9319C81.9427 74.5565 82.0712 75.0795 82.2969 75.5011C82.5513 75.9045 82.984 76.1753 83.5948 76.3136C84.887 76.6061 86.1759 76.7496 87.4614 76.7443C88.7522 76.7154 90.0654 76.6422 91.401 76.5247C91.4768 76.5171 91.5852 76.5293 91.7262 76.5612C92.0081 76.625 92.2047 76.793 92.316 77.0652C92.4326 77.3139 92.4616 77.5674 92.4031 77.8259C92.2808 78.3662 91.957 78.6511 91.4317 78.6803C90.0491 78.7872 88.6158 78.8456 87.1317 78.8554C85.6529 78.8417 84.3144 78.6993 83.1162 78.428C82.3644 78.2578 81.7631 78.0229 81.3122 77.7233C80.8614 77.4237 80.5178 77.0866 80.2816 76.712C80.0453 76.3374 79.8848 75.9553 79.8001 75.5657C79.7389 75.1814 79.7103 74.8168 79.7143 74.4719C79.6806 73.748 79.7151 72.9408 79.8179 72.0503C79.9442 71.165 80.1164 70.2408 80.3344 69.2775C80.5312 68.4082 80.7541 67.5325 81.0032 66.6504C81.2523 65.7682 81.5169 64.9267 81.797 64.1256C82.0825 63.3011 82.352 62.5471 82.6055 61.8635C82.8825 61.1853 83.15 60.6037 83.408 60.1188ZM100.611 70.5333C100.92 70.4797 101.145 70.4688 101.285 70.5007C101.473 70.5433 101.648 70.6446 101.809 70.8046C101.979 70.8183 102.161 70.8347 102.354 70.8538C102.576 70.8546 102.758 70.871 102.899 70.9029C103.674 71.0784 104.341 71.4025 104.901 71.875C105.467 72.324 105.911 72.8692 106.235 73.5106C106.583 74.1573 106.803 74.8741 106.897 75.6609C106.991 76.4478 106.944 77.2523 106.758 78.0746C106.593 78.8029 106.293 79.4758 105.857 80.0933C105.449 80.6927 104.94 81.1949 104.33 81.6001C103.743 82.0106 103.098 82.2968 102.394 82.4586C101.691 82.6204 100.987 82.6216 100.282 82.462C99.4127 82.2653 98.6458 81.9435 97.9813 81.4967C97.3168 81.0499 96.782 80.5213 96.3768 79.9109C95.9716 79.3005 95.6934 78.6201 95.5422 77.8696C95.4145 77.1245 95.4411 76.3525 95.6219 75.5537C95.7655 74.9194 95.9822 74.2892 96.2721 73.6633C96.5673 73.0139 96.9314 72.4418 97.3645 71.9471C97.7976 71.4524 98.2798 71.0676 98.8113 70.7927C99.3663 70.5232 99.9663 70.4367 100.611 70.5333ZM100.619 72.4616C100.11 72.4204 99.6915 72.5233 99.364 72.7702C99.0417 72.9936 98.7649 73.2891 98.5335 73.6566C98.3256 74.0294 98.1594 74.4363 98.0349 74.8774C97.9156 75.295 97.8161 75.6799 97.7364 76.0324C97.6406 76.4553 97.6127 76.9058 97.6526 77.3841C97.6979 77.839 97.8333 78.2771 98.059 78.6987C98.3134 79.1021 98.6517 79.4626 99.0737 79.7805C99.4957 80.0983 100.047 80.3343 100.729 80.4885C101.246 80.6055 101.725 80.6153 102.167 80.5177C102.638 80.402 103.04 80.2089 103.372 79.9385C103.734 79.6499 104.033 79.3101 104.27 78.9192C104.507 78.5282 104.678 78.0977 104.785 77.6279C105.061 76.4062 104.994 75.3412 104.582 74.4329C104.175 73.5012 103.486 72.8884 102.516 72.5945L101.846 72.4429C101.658 72.4004 101.448 72.4022 101.215 72.4483C100.982 72.4944 100.784 72.4988 100.619 72.4616ZM117.425 86.2686C115.165 85.5595 113.647 84.413 112.869 82.8292C112.091 81.2454 111.984 79.2083 112.548 76.7179L112.883 75.2378C111.967 75.0304 111.222 74.7753 110.648 74.4726C110.08 74.1463 109.862 73.6895 109.995 73.1022C110.09 72.9014 110.236 72.7491 110.432 72.6454C110.634 72.5181 110.887 72.4891 111.193 72.5582C111.475 72.6221 111.808 72.7344 112.191 72.8953C112.574 73.0562 113.001 73.1898 113.471 73.2962C113.641 72.5444 113.837 71.7861 114.06 71.0215C114.288 70.2333 114.532 69.5354 114.793 68.9276C115.078 68.3252 115.371 67.8482 115.673 67.4967C115.98 67.1216 116.31 66.974 116.662 67.0538C116.921 67.1123 117.129 67.2829 117.287 67.5657C117.451 67.8251 117.49 68.1427 117.405 68.5186C117.272 69.1059 117.023 69.877 116.659 70.8319C116.295 71.7867 115.955 72.7965 115.64 73.8613C115.823 73.9273 116.005 73.9934 116.188 74.0594C116.399 74.1073 116.611 74.1551 116.822 74.203C117.198 74.2881 117.577 74.3614 117.958 74.423C118.363 74.49 118.77 74.5451 119.18 74.5886C119.509 74.663 119.758 74.8182 119.927 75.054C120.096 75.2898 120.153 75.5252 120.1 75.7601C120.026 76.089 119.876 76.3144 119.651 76.4364C119.431 76.5348 119.16 76.5847 118.839 76.586C118.546 76.5692 118.2 76.5155 117.801 76.4251C117.425 76.34 117.049 76.2549 116.673 76.1698L115.052 75.8029C114.97 76.056 114.903 76.3 114.849 76.535C114.796 76.7699 114.743 77.0049 114.69 77.2398C114.498 78.0856 114.396 78.8651 114.383 79.5783C114.398 80.2734 114.536 80.9219 114.794 81.5239C115.053 82.1258 115.451 82.6604 115.987 83.1276C116.524 83.5948 117.222 83.9999 118.083 84.343C118.331 84.4485 118.495 84.5968 118.575 84.7878C118.656 84.9789 118.672 85.1801 118.624 85.3916C118.56 85.6735 118.419 85.9133 118.202 86.111C118.013 86.2906 117.754 86.3431 117.425 86.2686ZM134.815 79.1652L134.688 79.7291C134.438 80.8333 134.092 81.9776 133.651 83.1621C133.234 84.3519 132.696 85.4158 132.039 86.3538C131.411 87.2736 130.656 87.9918 129.773 88.5082C128.896 89.0012 127.882 89.1174 126.731 88.8568C125.909 88.6706 125.15 88.3136 124.454 87.7857C123.787 87.2396 123.339 86.5454 123.11 85.7032C122.927 85.0937 122.777 84.3929 122.66 83.6007C122.566 82.8139 122.504 81.9972 122.474 81.1505C122.472 80.2857 122.508 79.4171 122.582 78.5447C122.679 77.6776 122.819 76.8447 122.999 76.0459C123.069 75.7405 123.216 75.5268 123.441 75.4049C123.695 75.2648 123.963 75.2267 124.245 75.2905C124.527 75.3543 124.764 75.5068 124.956 75.7479C125.154 75.9656 125.225 76.2533 125.168 76.611C124.994 77.7077 124.855 78.8123 124.752 79.925C124.671 81.0429 124.674 82.0685 124.759 83.0016C124.873 83.9165 125.104 84.6973 125.451 85.3441C125.822 85.9961 126.36 86.4019 127.065 86.5615C127.653 86.6944 128.215 86.6117 128.751 86.3134C129.294 85.9915 129.797 85.5128 130.262 84.8771C130.75 84.2467 131.186 83.4685 131.568 82.5425C131.956 81.593 132.278 80.5543 132.533 79.4266L132.717 78.6161C132.791 78.2872 132.941 78.0617 133.166 77.9398C133.42 77.7997 133.676 77.7589 133.935 77.8174C134.193 77.8759 134.419 78.0258 134.611 78.2669C134.809 78.4845 134.877 78.784 134.815 79.1652ZM140.323 81.6717C139.858 81.7639 139.575 82.0332 139.474 82.4796C139.41 82.7616 139.544 83.1501 139.877 83.6452C140.233 84.1457 140.633 84.6685 141.078 85.2137C141.551 85.7408 142.004 86.2507 142.435 86.7436C142.867 87.2366 143.151 87.6218 143.285 87.8992C143.526 88.4724 143.588 89.0174 143.471 89.5343C143.349 90.0746 143.133 90.4827 142.823 90.7584C142.537 91.0395 142.173 91.2288 141.732 91.3263C141.313 91.4292 140.837 91.4573 140.305 91.4108C139.795 91.3696 139.27 91.2879 138.73 91.1655C138.354 91.0804 137.899 90.965 137.364 90.8192C136.829 90.6733 136.313 90.4949 135.818 90.284C135.346 90.0783 134.952 89.8534 134.637 89.6091C134.327 89.3414 134.204 89.0666 134.268 88.7846C134.321 88.5497 134.447 88.319 134.647 88.0924C134.846 87.8659 135.075 87.7819 135.334 87.8404C135.357 87.8457 135.378 87.8628 135.396 87.8916C135.42 87.8969 135.455 87.9049 135.502 87.9155C135.987 88.1735 136.621 88.4281 137.403 88.6794C138.186 88.9308 138.954 89.1415 139.705 89.3117C140.105 89.4021 140.447 89.4178 140.732 89.3589C141.022 89.2764 141.197 89.1059 141.255 88.8475C141.309 88.6126 141.247 88.3393 141.07 88.0277C140.899 87.6926 140.667 87.3559 140.373 87.0177C140.102 86.6848 139.806 86.3583 139.483 86.0383C139.184 85.7236 138.926 85.443 138.711 85.1965C138.076 84.5095 137.633 83.9029 137.381 83.3767C137.159 82.8324 137.109 82.29 137.231 81.7496C137.369 81.1388 137.634 80.68 138.024 80.3732C138.443 80.0483 138.926 79.8242 139.473 79.7009C140.02 79.5777 140.594 79.5473 141.198 79.6098C141.83 79.6541 142.428 79.74 142.992 79.8677C143.321 79.9421 143.647 80.0283 143.97 80.1263C144.294 80.2242 144.574 80.3495 144.812 80.5019C145.054 80.6309 145.239 80.7962 145.366 80.9979C145.499 81.1761 145.536 81.3944 145.477 81.6529C145.419 81.9113 145.31 82.1212 145.149 82.2826C145.013 82.4493 144.827 82.506 144.592 82.4528C144.381 82.405 144.072 82.2979 143.665 82.1317C143.281 81.9708 142.819 81.8292 142.279 81.7069C141.551 81.542 140.899 81.5303 140.323 81.6717ZM58.7346 119.035C59.1437 117.992 59.5575 116.764 59.9759 115.352C60.4231 113.922 60.8142 112.467 61.1493 110.987C61.4577 109.624 61.682 108.416 61.822 107.361C61.9855 106.311 62.0307 105.457 61.9576 104.798C61.8964 104.414 61.8977 104.08 61.9615 103.799C62.0413 103.446 62.1873 103.183 62.3997 103.009C62.6355 102.84 62.8826 102.784 63.141 102.843C63.4934 102.923 63.7483 103.215 63.9057 103.72C64.0631 104.225 64.1272 104.869 64.098 105.653C64.0922 106.442 64.0129 107.338 63.86 108.341C63.7125 109.32 63.519 110.338 63.2797 111.395C62.9446 112.875 62.5812 114.263 62.1894 115.557C61.7976 116.851 61.451 117.946 61.1496 118.841C61.8939 118.935 62.7299 118.952 63.6577 118.89C64.609 118.834 65.5228 118.67 66.3991 118.399C67.2755 118.128 68.0439 117.734 68.7044 117.217C69.3702 116.676 69.8014 115.971 69.9982 115.102C70.1418 114.468 69.9587 113.858 69.4489 113.273C68.9391 112.689 68.2731 112.303 67.4508 112.117C67.2863 112.08 67.1165 112.066 66.9415 112.076C66.7717 112.062 66.6046 112.037 66.4401 111.999C66.0642 111.914 65.7907 111.704 65.6196 111.369C65.4484 111.034 65.3948 110.726 65.4586 110.444C65.4958 110.279 65.7252 110.084 66.1468 109.858C66.5736 109.609 67.0437 109.333 67.557 109.029C68.0757 108.702 68.5644 108.343 69.0231 107.953C69.4872 107.54 69.7778 107.074 69.8948 106.558C69.932 106.393 69.9025 106.251 69.8063 106.13C69.739 105.991 69.6401 105.883 69.5098 105.804C69.3794 105.725 69.2321 105.667 69.0676 105.629C68.9085 105.569 68.7584 105.522 68.6174 105.49C68.218 105.4 67.8027 105.38 67.3714 105.431C66.9454 105.458 66.5914 105.439 66.3095 105.376C66.0511 105.317 65.8779 105.154 65.7902 104.888C65.7024 104.621 65.6851 104.37 65.7383 104.135C65.8021 103.853 65.961 103.642 66.215 103.502C66.4925 103.367 66.8063 103.29 67.1565 103.27C67.512 103.227 67.883 103.225 68.2696 103.263C68.6561 103.301 69.0139 103.357 69.3428 103.432C70.2121 103.629 70.9331 103.989 71.5058 104.514C72.0839 105.016 72.2745 105.701 72.0777 106.57C71.9182 107.275 71.5221 107.988 70.8896 108.709C70.2806 109.436 69.6186 110.015 68.9036 110.445C69.4045 110.633 69.875 110.9 70.3152 111.247C70.7789 111.599 71.1679 112.008 71.4822 112.474C71.7965 112.94 72.018 113.435 72.1465 113.958C72.2986 114.486 72.3135 115.021 72.1912 115.561C71.9359 116.689 71.3964 117.654 70.5729 118.455C69.7728 119.262 68.8022 119.894 67.6613 120.352C66.5491 120.792 65.3279 121.059 63.9976 121.153C62.6673 121.247 61.3561 121.148 60.0639 120.855C59.547 120.738 59.1571 120.551 58.8943 120.294C58.6261 120.06 58.5452 119.709 58.6515 119.239C58.6622 119.192 58.6701 119.157 58.6755 119.133C58.7043 119.115 58.724 119.082 58.7346 119.035ZM76.5307 122.249C76.7732 122.378 76.941 122.564 77.0341 122.807C77.1325 123.027 77.1551 123.255 77.1019 123.49C77.0381 123.771 76.8974 124.011 76.6797 124.209C76.4674 124.383 76.2085 124.436 75.9031 124.367C75.7387 124.329 75.5822 124.257 75.4337 124.149C74.5236 123.696 73.8815 123.205 73.5073 122.676C73.1385 122.123 72.9293 121.52 72.8796 120.867C72.8299 120.213 72.8955 119.487 73.0763 118.688C73.2624 117.866 73.4725 116.938 73.7065 115.904C73.8927 115.082 74.0959 114.239 74.3161 113.375C74.5364 112.511 74.7658 111.661 75.0042 110.826C75.248 109.968 75.4955 109.147 75.7468 108.364C75.9981 107.581 76.2335 106.869 76.4529 106.227C76.5562 105.88 76.7086 105.643 76.9103 105.515C77.1355 105.393 77.3656 105.359 77.6005 105.412C77.859 105.471 78.0844 105.621 78.2768 105.862C78.4926 106.108 78.5554 106.431 78.465 106.831C78.2403 107.496 77.981 108.314 77.6871 109.285C77.4221 110.237 77.1437 111.249 76.8521 112.319C76.584 113.394 76.3158 114.47 76.0477 115.545C75.7796 116.62 75.5471 117.593 75.3503 118.462C75.244 118.932 75.1482 119.355 75.0631 119.731C75.0068 120.089 75.0055 120.422 75.0592 120.73C75.1416 121.021 75.2908 121.289 75.5067 121.535C75.7226 121.782 76.0639 122.02 76.5307 122.249ZM85.5919 114.297C85.9004 114.244 86.1252 114.233 86.2661 114.265C86.4541 114.307 86.6288 114.409 86.7901 114.569C86.9599 114.582 87.1414 114.599 87.3347 114.618C87.5568 114.619 87.7383 114.635 87.8793 114.667C88.6546 114.842 89.3222 115.166 89.882 115.639C90.4472 116.088 90.8919 116.633 91.2159 117.275C91.5635 117.921 91.7841 118.638 91.8776 119.425C91.9712 120.212 91.9249 121.016 91.7388 121.839C91.5739 122.567 91.2734 123.24 90.8372 123.857C90.4299 124.457 89.921 124.959 89.3106 125.364C88.7237 125.775 88.0786 126.061 87.3751 126.223C86.6716 126.384 85.9675 126.386 85.2626 126.226C84.3933 126.029 83.6265 125.707 82.962 125.261C82.2975 124.814 81.7626 124.285 81.3574 123.675C80.9523 123.064 80.6741 122.384 80.5229 121.634C80.3952 120.888 80.4217 120.116 80.6026 119.318C80.7462 118.683 80.9629 118.053 81.2528 117.427C81.548 116.778 81.9121 116.206 82.3452 115.711C82.7782 115.216 83.2605 114.832 83.792 114.557C84.347 114.287 84.9469 114.201 85.5919 114.297ZM85.6 116.226C85.0906 116.184 84.6722 116.287 84.3446 116.534C84.0224 116.758 83.7455 117.053 83.5142 117.421C83.3063 117.793 83.1401 118.2 83.0155 118.641C82.8963 119.059 82.7968 119.444 82.717 119.796C82.6213 120.219 82.5934 120.67 82.6333 121.148C82.6785 121.603 82.814 122.041 83.0396 122.463C83.2941 122.866 83.6323 123.227 84.0544 123.544C84.4764 123.862 85.028 124.098 85.7094 124.252C86.2262 124.369 86.7056 124.379 87.1476 124.282C87.6184 124.166 88.0202 123.973 88.3531 123.702C88.7148 123.414 89.014 123.074 89.2507 122.683C89.4874 122.292 89.6589 121.862 89.7653 121.392C90.0418 120.17 89.9742 119.105 89.5623 118.197C89.1558 117.265 88.4671 116.652 87.4963 116.358L86.8268 116.207C86.6388 116.164 86.4285 116.166 86.1957 116.212C85.963 116.258 85.7644 116.263 85.6 116.226ZM98.4504 119.357C97.9849 119.449 97.7017 119.718 97.6006 120.165C97.5368 120.447 97.6712 120.835 98.0036 121.33C98.3596 121.831 98.7599 122.354 99.2045 122.899C99.678 123.426 100.131 123.936 100.562 124.429C100.994 124.922 101.277 125.307 101.412 125.584C101.653 126.157 101.715 126.702 101.598 127.219C101.475 127.76 101.26 128.168 100.95 128.443C100.664 128.725 100.3 128.914 99.8584 129.011C99.44 129.114 98.9643 129.142 98.4315 129.096C97.9222 129.055 97.3973 128.973 96.857 128.851C96.4811 128.765 96.0256 128.65 95.4905 128.504C94.9555 128.358 94.4402 128.18 93.9446 127.969C93.4725 127.763 93.0788 127.538 92.7636 127.294C92.4538 127.026 92.3308 126.752 92.3946 126.47C92.4478 126.235 92.5741 126.004 92.7736 125.778C92.973 125.551 93.202 125.467 93.4604 125.525C93.4839 125.531 93.5047 125.548 93.5229 125.577C93.5464 125.582 93.5816 125.59 93.6286 125.601C94.1136 125.859 94.7475 126.113 95.5303 126.365C96.3132 126.616 97.0805 126.827 97.8323 126.997C98.2317 127.087 98.5739 127.103 98.859 127.044C99.1493 126.961 99.3237 126.791 99.3822 126.533C99.4354 126.298 99.3738 126.024 99.1974 125.713C99.0262 125.378 98.7937 125.041 98.4998 124.703C98.2294 124.37 97.9328 124.043 97.6101 123.723C97.3109 123.409 97.0533 123.128 96.8374 122.882C96.2026 122.195 95.7595 121.588 95.5082 121.062C95.2856 120.517 95.2355 119.975 95.3578 119.435C95.4961 118.824 95.7605 118.365 96.151 118.058C96.5704 117.733 97.0533 117.509 97.5999 117.386C98.1464 117.263 98.7214 117.232 99.3247 117.295C99.9568 117.339 100.555 117.425 101.119 117.553C101.448 117.627 101.774 117.713 102.097 117.811C102.421 117.909 102.701 118.035 102.939 118.187C103.181 118.316 103.366 118.481 103.493 118.683C103.626 118.861 103.663 119.08 103.604 119.338C103.546 119.596 103.436 119.806 103.276 119.968C103.14 120.134 102.954 120.191 102.719 120.138C102.508 120.09 102.199 119.983 101.792 119.817C101.408 119.656 100.946 119.514 100.406 119.392C99.6776 119.227 99.0257 119.215 98.4504 119.357ZM109.093 121.766C108.628 121.858 108.345 122.128 108.243 122.574C108.18 122.856 108.314 123.244 108.646 123.74C109.002 124.24 109.403 124.763 109.847 125.308C110.321 125.835 110.773 126.345 111.205 126.838C111.637 127.331 111.92 127.716 112.055 127.994C112.296 128.567 112.358 129.112 112.241 129.629C112.118 130.169 111.902 130.577 111.593 130.853C111.307 131.134 110.943 131.323 110.501 131.421C110.083 131.523 109.607 131.552 109.074 131.505C108.565 131.464 108.04 131.382 107.5 131.26C107.124 131.175 106.668 131.059 106.133 130.913C105.598 130.768 105.083 130.589 104.587 130.378C104.115 130.173 103.722 129.948 103.406 129.703C103.097 129.436 102.974 129.161 103.037 128.879C103.091 128.644 103.217 128.413 103.416 128.187C103.616 127.96 103.845 127.876 104.103 127.935C104.127 127.94 104.148 127.957 104.166 127.986C104.189 127.991 104.224 127.999 104.271 128.01C104.756 128.268 105.39 128.522 106.173 128.774C106.956 129.025 107.723 129.236 108.475 129.406C108.875 129.496 109.217 129.512 109.502 129.453C109.792 129.371 109.967 129.2 110.025 128.942C110.078 128.707 110.017 128.434 109.84 128.122C109.669 127.787 109.437 127.45 109.143 127.112C108.872 126.779 108.576 126.453 108.253 126.133C107.954 125.818 107.696 125.537 107.48 125.291C106.845 124.604 106.402 123.997 106.151 123.471C105.928 122.927 105.878 122.384 106.001 121.844C106.139 121.233 106.403 120.774 106.794 120.468C107.213 120.143 107.696 119.918 108.243 119.795C108.789 119.672 109.364 119.642 109.967 119.704C110.6 119.748 111.198 119.834 111.761 119.962C112.09 120.036 112.417 120.123 112.74 120.221C113.064 120.319 113.344 120.444 113.581 120.596C113.824 120.725 114.009 120.891 114.136 121.092C114.268 121.27 114.306 121.489 114.247 121.747C114.189 122.006 114.079 122.215 113.919 122.377C113.783 122.544 113.597 122.6 113.362 122.547C113.151 122.499 112.841 122.392 112.434 122.226C112.051 122.065 111.589 121.923 111.049 121.801C110.32 121.636 109.669 121.625 109.093 121.766ZM120.551 122.211C120.86 122.157 121.084 122.146 121.225 122.178C121.413 122.221 121.588 122.322 121.749 122.482C121.919 122.496 122.101 122.512 122.294 122.531C122.516 122.532 122.698 122.549 122.838 122.581C123.614 122.756 124.281 123.08 124.841 123.553C125.406 124.002 125.851 124.547 126.175 125.188C126.523 125.835 126.743 126.552 126.837 127.339C126.93 128.125 126.884 128.93 126.698 129.752C126.533 130.481 126.233 131.154 125.796 131.771C125.389 132.37 124.88 132.873 124.27 133.278C123.683 133.688 123.038 133.974 122.334 134.136C121.631 134.298 120.927 134.299 120.222 134.14C119.353 133.943 118.586 133.621 117.921 133.174C117.257 132.728 116.722 132.199 116.317 131.589C115.911 130.978 115.633 130.298 115.482 129.547C115.354 128.802 115.381 128.03 115.562 127.231C115.705 126.597 115.922 125.967 116.212 125.341C116.507 124.692 116.871 124.119 117.304 123.625C117.737 123.13 118.22 122.745 118.751 122.47C119.306 122.201 119.906 122.114 120.551 122.211ZM120.559 124.139C120.05 124.098 119.631 124.201 119.304 124.448C118.982 124.671 118.705 124.967 118.473 125.334C118.266 125.707 118.099 126.114 117.975 126.555C117.856 126.973 117.756 127.358 117.676 127.71C117.581 128.133 117.553 128.584 117.593 129.062C117.638 129.517 117.773 129.955 117.999 130.376C118.253 130.78 118.592 131.14 119.014 131.458C119.436 131.776 119.987 132.012 120.669 132.166C121.185 132.283 121.665 132.293 122.107 132.195C122.578 132.08 122.979 131.887 123.312 131.616C123.674 131.328 123.973 130.988 124.21 130.597C124.447 130.206 124.618 129.775 124.724 129.306C125.001 128.084 124.933 127.019 124.522 126.111C124.115 125.179 123.426 124.566 122.456 124.272L121.786 124.121C121.598 124.078 121.388 124.08 121.155 124.126C120.922 124.172 120.724 124.177 120.559 124.139ZM139.012 127.724C139.335 127.278 139.812 127.028 140.442 126.973C141.072 126.918 141.704 126.962 142.338 127.106C143.674 127.532 144.481 128.221 144.76 129.173C145.038 130.125 145.002 131.377 144.651 132.927C144.433 133.89 144.181 134.784 143.896 135.609C143.616 136.41 143.324 137.097 143.021 137.671C142.742 138.25 142.443 138.701 142.123 139.023C141.831 139.328 141.557 139.451 141.298 139.392C141.087 139.344 140.92 139.208 140.798 138.983C140.7 138.763 140.688 138.489 140.762 138.16C140.858 137.737 140.997 137.287 141.179 136.809C141.366 136.308 141.566 135.81 141.777 135.314C141.988 134.819 142.187 134.321 142.374 133.82C142.562 133.319 142.711 132.822 142.823 132.328C143.046 131.341 143.064 130.555 142.876 129.969C142.692 129.36 142.225 128.97 141.473 128.799C141.04 128.751 140.617 128.816 140.206 128.994C139.801 129.15 139.489 129.437 139.27 129.857C139.241 130.097 139.197 130.346 139.138 130.605C139.103 130.869 139.054 131.141 138.99 131.423C138.772 132.387 138.517 133.292 138.227 134.14C137.959 134.994 137.669 135.731 137.356 136.351C137.048 136.948 136.731 137.42 136.406 137.766C136.109 138.094 135.82 138.226 135.538 138.162C135.303 138.109 135.124 137.97 135.003 137.745C134.904 137.525 134.892 137.251 134.967 136.922C135.062 136.499 135.199 136.06 135.375 135.607C135.581 135.134 135.775 134.66 135.957 134.182C136.168 133.687 136.365 133.2 136.547 132.723C136.758 132.227 136.919 131.733 137.031 131.239C137.238 130.323 137.3 129.559 137.216 128.947C137.161 128.317 136.77 127.92 136.041 127.755C135.571 127.649 135.113 127.656 134.666 127.777C134.224 127.875 133.921 127.905 133.756 127.868C133.568 127.825 133.425 127.694 133.326 127.474C133.252 127.259 133.238 127.046 133.286 126.835C133.344 126.577 133.489 126.375 133.719 126.229C133.979 126.066 134.274 125.96 134.606 125.911C134.944 125.84 135.308 125.811 135.7 125.826C136.092 125.84 136.464 125.887 136.817 125.967C137.31 126.079 137.744 126.288 138.119 126.595C138.523 126.884 138.821 127.261 139.012 127.724ZM132.665 125.324C132.546 125.741 132.435 126.173 132.334 126.62C132.239 127.042 132.14 127.477 132.039 127.924C131.768 129.122 131.523 130.313 131.304 131.499C131.114 132.666 130.983 133.735 130.911 134.707C130.821 135.106 130.66 135.379 130.43 135.524C130.228 135.652 129.998 135.686 129.74 135.627C129.505 135.574 129.312 135.444 129.161 135.237C129.01 135.03 128.949 134.757 128.976 134.417C129.069 133.352 129.208 132.247 129.393 131.103C129.578 129.96 129.806 128.789 130.077 127.59C130.146 127.285 130.214 126.93 130.281 126.525C130.348 126.121 130.445 125.747 130.572 125.406C130.698 125.064 130.859 124.791 131.053 124.588C131.276 124.367 131.564 124.296 131.916 124.376C132.151 124.429 132.344 124.559 132.495 124.766C132.651 124.95 132.707 125.136 132.665 125.324Z" fill="black"/>
</g>
<defs>
<filter id="filter0_d" x="0.870636" y="0.14624" width="203.852" height="203.565" filterUnits="userSpaceOnUse" color-interpolation-filters="sRGB">
<feFlood flood-opacity="0" result="BackgroundImageFix"/>
<feColorMatrix in="SourceAlpha" type="matrix" values="0 0 0 0 0 0 0 0 0 0 0 0 0 0 0 0 0 0 127 0"/>
<feOffset dy="4"/>
<feGaussianBlur stdDeviation="2"/>
<feColorMatrix type="matrix" values="0 0 0 0 0 0 0 0 0 0 0 0 0 0 0 0 0 0 0.25 0"/>
<feBlend mode="normal" in2="BackgroundImageFix" result="effect1_dropShadow"/>
<feBlend mode="normal" in="SourceGraphic" in2="effect1_dropShadow" result="shape"/>
</filter>
</defs>
</svg>
