<svg width="508" height="401" viewBox="0 0 508 401" fill="none" xmlns="http://www.w3.org/2000/svg">
<g filter="url(#filter0_d)">
<path d="M124.932 23C129.872 15.5184 136.433 8.09238 144.957 1C153.761 6.80777 164.517 19.9112 170.983 36.5624C180.422 29.1036 201.937 14.5057 212.486 15.7844C223.035 17.063 220.344 51.5778 217.68 68.6753C231.677 64.7458 248.231 63.2169 267.228 66.1311C267.228 67.7147 259.799 90.5605 244.071 110.085C259.648 118.076 291.602 137.176 294.799 149.643C297.995 162.11 262.312 170.777 244.071 173.553C251.513 184.168 257.612 197.734 261.234 215.173C261.477 216.34 246.865 218.616 228.869 216.89C229.135 231.635 227.27 261.285 217.68 261.924C206.729 262.654 170.894 249.043 169.143 242.115C165.732 254.443 159.512 265.112 149.752 271.913C141.341 266.162 130.196 255.189 122.846 240.347C115.299 249.004 97.0882 265.44 84.6214 261.924C72.1546 258.408 68.2887 229.292 67.9141 215.173C56.0429 216.061 42.3057 213.826 26.6827 206.782C26.9535 196.289 31.4084 180.112 43.951 166.025C31.8017 160.565 7.02355 147.325 5.10558 138.055C3.18762 128.785 27.8757 115.546 40.4595 110.085C33.3417 99.39 28.1949 85.078 26.6827 66.1311C36.6028 61.5395 52.67 56.5571 69.0379 57.1042C65.0421 41.8658 58.2493 10.3501 63.0442 6.19451C69.0379 1 127.443 14.2093 124.932 23Z" fill="white"/>
<path d="M128.575 104.091C112.459 95.5667 95.0104 42.556 144.957 1C153.761 6.80777 164.517 19.9112 170.983 36.5624M122.581 104.091C113.768 68.6532 91.1288 57.8426 69.0379 57.1042M69.0379 57.1042C52.67 56.5571 36.6028 61.5395 26.6827 66.1311C28.1949 85.0781 33.3417 99.39 40.4595 110.085M69.0379 57.1042C65.0421 41.8658 58.2493 10.3501 63.0442 6.19451C69.0379 1 127.443 14.2093 124.932 23M170.983 36.5624C178.603 56.1888 180.262 80.7442 165.735 104.091C172.617 93.3282 190.226 76.3834 217.68 68.6753M170.983 36.5624C180.422 29.1036 201.937 14.5057 212.486 15.7844C223.035 17.063 220.344 51.5778 217.68 68.6753M217.68 68.6753C231.677 64.7459 248.231 63.2169 267.228 66.1311C267.228 67.7147 259.799 90.5605 244.071 110.085M244.071 110.085C232.019 125.045 215.095 138.055 192.907 138.055C209.363 143.098 229.346 152.549 244.071 173.553M244.071 110.085C259.648 118.076 291.602 137.176 294.799 149.643C297.995 162.11 262.312 170.777 244.071 173.553M244.071 173.553C251.513 184.168 257.612 197.734 261.234 215.173C261.477 216.34 246.865 218.616 228.869 216.89M228.869 216.89C204.619 214.564 174.222 204.974 165.735 175.615C172.424 194.783 174.816 219.693 169.611 240.347M228.869 216.89C229.135 231.635 227.27 261.285 217.68 261.924C205.693 262.723 163.896 246.341 169.611 240.347M169.611 240.347C166.315 253.421 159.975 264.789 149.752 271.913C141.341 266.162 130.196 255.189 122.846 240.347M122.846 240.347C114.367 223.226 110.938 200.957 122.581 175.615C116.178 190.523 98.0642 212.919 67.9141 215.173M122.846 240.347C115.299 249.004 97.0882 265.44 84.6214 261.924C72.1546 258.408 68.2887 229.292 67.9141 215.173M67.9141 215.173C56.0429 216.061 42.3057 213.826 26.6827 206.782C26.9535 196.289 31.4084 180.112 43.951 166.025M43.951 166.025C56.0853 152.398 75.7895 140.727 106.598 138.055C90.6407 141.227 58.9205 137.822 40.4595 110.085M43.951 166.025C31.8017 160.565 7.02355 147.325 5.10558 138.055C3.18762 128.785 27.8757 115.546 40.4595 110.085" stroke="black"/>
</g>
<g filter="url(#filter1_d)">
<ellipse cx="146.955" cy="140.453" rx="43.1543" ry="39.9576" fill="#FFDF00"/>
</g>
<g filter="url(#filter2_d)">
<path d="M290.5 79.9403C296.675 70.6085 304.867 61.3468 315.5 52.5C326.516 59.7674 339.976 76.164 348.066 97C359.877 87.6667 386.8 69.4 400 71C413.2 72.6 409.833 115.789 406.5 137.184C424.014 132.267 444.729 130.353 468.5 134C468.5 135.982 459.204 164.569 439.523 189C459.015 199 499 222.9 503 238.5C507 254.1 462.349 264.946 439.523 268.419C448.836 281.702 456.468 298.678 461 320.5C461.303 321.96 443.02 324.807 420.5 322.648C420.833 341.098 418.5 378.2 406.5 379C392.796 379.914 347.956 362.881 345.764 354.212C341.496 369.639 333.712 382.989 321.5 391.5C310.975 384.303 297.028 370.572 287.831 352C278.387 362.833 255.6 383.4 240 379C224.4 374.6 219.563 338.167 219.094 320.5C204.239 321.611 187.049 318.814 167.5 310C167.839 296.87 173.413 276.626 189.108 259C173.905 252.167 142.9 235.6 140.5 224C138.1 212.4 168.993 195.833 184.739 189C175.833 175.618 169.392 157.709 167.5 134C179.913 128.254 200.018 122.02 220.5 122.704C215.5 103.636 207 64.2 213 59C220.5 52.5 293.643 68.9403 290.5 79.9403Z" fill="white"/>
<path d="M295 181.5C274.833 170.833 253 104.5 315.5 52.5C326.516 59.7674 339.976 76.164 348.066 97M287.5 181.5C276.471 137.156 248.143 123.628 220.5 122.704M220.5 122.704C200.018 122.02 179.913 128.254 167.5 134C169.392 157.709 175.833 175.618 184.739 189M220.5 122.704C215.5 103.636 207 64.2 213 59C220.5 52.5 293.643 68.9403 290.5 79.9403M348.066 97C357.602 121.559 359.678 152.286 341.5 181.5C350.111 168.032 372.145 146.829 406.5 137.184M348.066 97C359.877 87.6667 386.8 69.4 400 71C413.2 72.6 409.833 115.789 406.5 137.184M406.5 137.184C424.014 132.267 444.729 130.353 468.5 134C468.5 135.982 459.204 164.569 439.523 189M439.523 189C424.443 207.72 403.265 224 375.5 224C396.092 230.311 421.097 242.137 439.523 268.419M439.523 189C459.015 199 499 222.9 503 238.5C507 254.1 462.349 264.946 439.523 268.419M439.523 268.419C448.836 281.702 456.468 298.678 461 320.5C461.303 321.96 443.02 324.807 420.5 322.648M420.5 322.648C390.155 319.738 352.119 307.737 341.5 271C349.869 294.984 352.863 326.156 346.349 352M420.5 322.648C420.833 341.098 418.5 378.2 406.5 379C391.5 380 339.198 359.5 346.349 352M346.349 352C342.226 368.36 334.292 382.584 321.5 391.5C310.975 384.303 297.028 370.572 287.831 352M287.831 352C277.221 330.576 272.93 302.711 287.5 271C279.488 289.655 256.821 317.679 219.094 320.5M287.831 352C278.387 362.833 255.6 383.4 240 379C224.4 374.6 219.563 338.167 219.094 320.5M219.094 320.5C204.239 321.611 187.049 318.814 167.5 310C167.839 296.87 173.413 276.626 189.108 259M189.108 259C204.292 241.947 228.948 227.344 267.5 224C247.532 227.97 207.84 223.709 184.739 189M189.108 259C173.905 252.167 142.9 235.6 140.5 224C138.1 212.4 168.993 195.833 184.739 189" stroke="black"/>
</g>
<g filter="url(#filter3_d)">
<ellipse cx="318" cy="227" rx="54" ry="50" fill="#FFDF00"/>
</g>
<defs>
<filter id="filter0_d" x="0.499634" y="0.378235" width="299.001" height="280.143" filterUnits="userSpaceOnUse" color-interpolation-filters="sRGB">
<feFlood flood-opacity="0" result="BackgroundImageFix"/>
<feColorMatrix in="SourceAlpha" type="matrix" values="0 0 0 0 0 0 0 0 0 0 0 0 0 0 0 0 0 0 127 0"/>
<feOffset dy="4"/>
<feGaussianBlur stdDeviation="2"/>
<feColorMatrix type="matrix" values="0 0 0 0 0 0 0 0 0 0 0 0 0 0 0 0 0 0 0.25 0"/>
<feBlend mode="normal" in2="BackgroundImageFix" result="effect1_dropShadow"/>
<feBlend mode="normal" in="SourceGraphic" in2="effect1_dropShadow" result="shape"/>
</filter>
<filter id="filter1_d" x="99.8007" y="100.495" width="94.3086" height="87.9153" filterUnits="userSpaceOnUse" color-interpolation-filters="sRGB">
<feFlood flood-opacity="0" result="BackgroundImageFix"/>
<feColorMatrix in="SourceAlpha" type="matrix" values="0 0 0 0 0 0 0 0 0 0 0 0 0 0 0 0 0 0 127 0"/>
<feOffset dy="4"/>
<feGaussianBlur stdDeviation="2"/>
<feColorMatrix type="matrix" values="0 0 0 0 0 0 0 0 0 0 0 0 0 0 0 0 0 0 0.25 0"/>
<feBlend mode="normal" in2="BackgroundImageFix" result="effect1_dropShadow"/>
<feBlend mode="normal" in="SourceGraphic" in2="effect1_dropShadow" result="shape"/>
</filter>
<filter id="filter2_d" x="135.868" y="51.8782" width="371.885" height="348.229" filterUnits="userSpaceOnUse" color-interpolation-filters="sRGB">
<feFlood flood-opacity="0" result="BackgroundImageFix"/>
<feColorMatrix in="SourceAlpha" type="matrix" values="0 0 0 0 0 0 0 0 0 0 0 0 0 0 0 0 0 0 127 0"/>
<feOffset dy="4"/>
<feGaussianBlur stdDeviation="2"/>
<feColorMatrix type="matrix" values="0 0 0 0 0 0 0 0 0 0 0 0 0 0 0 0 0 0 0.25 0"/>
<feBlend mode="normal" in2="BackgroundImageFix" result="effect1_dropShadow"/>
<feBlend mode="normal" in="SourceGraphic" in2="effect1_dropShadow" result="shape"/>
</filter>
<filter id="filter3_d" x="260" y="177" width="116" height="108" filterUnits="userSpaceOnUse" color-interpolation-filters="sRGB">
<feFlood flood-opacity="0" result="BackgroundImageFix"/>
<feColorMatrix in="SourceAlpha" type="matrix" values="0 0 0 0 0 0 0 0 0 0 0 0 0 0 0 0 0 0 127 0"/>
<feOffset dy="4"/>
<feGaussianBlur stdDeviation="2"/>
<feColorMatrix type="matrix" values="0 0 0 0 0 0 0 0 0 0 0 0 0 0 0 0 0 0 0.25 0"/>
<feBlend mode="normal" in2="BackgroundImageFix" result="effect1_dropShadow"/>
<feBlend mode="normal" in="SourceGraphic" in2="effect1_dropShadow" result="shape"/>
</filter>
</defs>
</svg>
