<svg width="212" height="203" viewBox="0 0 212 203" fill="none" xmlns="http://www.w3.org/2000/svg">
<g filter="url(#filter0_d)">
<path d="M48.9152 187.417C55.6343 171.417 207.696 150.917 207.696 150.917C207.696 150.917 191.562 109.26 183.196 81.9168C173.72 50.9428 162.939 1.48586 162.939 1.48586L42.1961 33.2532C42.1961 33.2532 18.6961 38.4169 11.6961 43.4167C4.69615 48.4165 42.1961 203.417 48.9152 187.417Z" fill="#FFDF00"/>
<path d="M33.6096 89.502C34.452 89.106 35.1748 88.729 35.778 88.3711C36.4045 88.0069 36.9054 87.6385 37.2806 87.2658C37.6497 86.8698 37.89 86.4579 38.0016 86.03C38.1304 85.5727 38.1181 85.0528 37.9649 84.4704C37.8362 83.9812 37.5334 83.5876 37.0565 83.2897C36.5795 82.9917 36.0015 82.7826 35.3222 82.6624C34.643 82.5422 33.8889 82.5164 33.0601 82.5851C32.2313 82.6537 31.3859 82.8014 30.524 83.0281C30.3143 83.0833 30.1046 83.1385 29.895 83.1936C29.6853 83.2488 29.4671 83.3187 29.2402 83.4033C29.5823 84.1352 29.9053 84.9843 30.2093 85.9505C30.5366 86.9105 30.8382 87.9147 31.114 88.963C31.3469 89.8482 31.5596 90.7513 31.752 91.672C31.9677 92.5867 32.1596 93.4578 32.3275 94.2855C32.4893 95.0898 32.6125 95.842 32.697 96.5421C32.7988 97.2127 32.8698 97.7669 32.9103 98.2046C32.9262 98.5492 32.8508 98.8305 32.684 99.0488C32.5406 99.2609 32.3407 99.4006 32.0845 99.4681C31.8282 99.5355 31.5621 99.5183 31.2863 99.4165C31.0337 99.3086 30.8645 99.0916 30.7787 98.7654C30.7481 98.649 30.7352 98.5527 30.7401 98.4767C30.6568 97.8759 30.5581 97.2169 30.4441 96.4996C30.3473 95.753 30.218 94.9775 30.0562 94.1731C29.8944 93.3688 29.7179 92.5559 29.5267 91.7345C29.3526 90.8835 29.1583 90.0504 28.9438 89.2351C28.5945 87.9072 28.2261 86.6964 27.8387 85.6028C27.4452 84.4858 27.0406 83.6582 26.625 83.1199C26.4056 82.8538 26.2621 82.5927 26.1947 82.3364C26.1089 82.0103 26.123 81.7326 26.2371 81.5033C26.345 81.2507 26.5271 81.0907 26.7833 81.0233C27.2259 80.9069 27.6808 81.0736 28.1479 81.5236C28.398 81.4329 28.6396 81.3569 28.8725 81.2956C29.1055 81.2343 29.3384 81.173 29.5714 81.1117C30.7362 80.8053 31.8936 80.6129 33.0437 80.5345C34.217 80.4499 35.2782 80.507 36.2272 80.7057C37.1994 80.8982 38.0276 81.2532 38.7117 81.7706C39.4192 82.282 39.8924 82.9919 40.1314 83.9004C40.5543 85.5078 40.2563 86.9313 39.2374 88.1708C38.2417 89.4042 36.6539 90.4695 34.4739 91.3669C34.4273 91.3792 34.3954 91.4 34.3783 91.4294C34.3783 91.4294 34.355 91.4356 34.3084 91.4478C34.0055 91.5275 33.7566 91.4809 33.5617 91.308C33.3606 91.1118 33.2233 90.8739 33.1498 90.5944C33.1008 90.408 33.11 90.2063 33.1774 89.9893C33.2449 89.7723 33.3889 89.6099 33.6096 89.502ZM54.3363 91.596C54.7323 91.4918 55.048 91.5084 55.2834 91.6457C55.5127 91.7598 55.6641 91.9566 55.7377 92.2361C55.8173 92.539 55.7971 92.7934 55.6769 92.9994C55.5739 93.1759 55.4152 93.3298 55.2006 93.4609C55.0093 93.586 54.7739 93.6853 54.4943 93.7588C54.2381 93.8263 54.0051 93.8876 53.7955 93.9427C52.8171 94.2001 51.808 94.3411 50.7683 94.3655C49.7457 94.3606 48.7857 94.2146 47.8882 93.9277C46.9908 93.6407 46.2024 93.2005 45.5232 92.6071C44.844 92.0136 44.3818 91.251 44.1367 90.3191C43.8731 89.3174 43.9142 88.385 44.26 87.5219C44.623 86.6293 45.1478 85.8311 45.8344 85.1274C46.5211 84.4237 47.2997 83.8328 48.1702 83.3546C49.0408 82.8765 49.872 82.5333 50.6641 82.3249C51.0601 82.2207 51.4684 82.1631 51.889 82.1521C52.3328 82.1349 52.7484 82.1999 53.1359 82.3471C53.5233 82.4942 53.8739 82.7382 54.1878 83.0791C54.5017 83.42 54.7383 83.8932 54.8976 84.4989C55.0876 85.2211 55.0171 85.8997 54.686 86.5348C54.3549 87.1699 53.9092 87.748 53.3489 88.269C52.7885 88.7901 52.1687 89.2271 51.4895 89.5802C50.8102 89.9333 50.229 90.1858 49.7459 90.3378C49.4897 90.4053 49.2672 90.3642 49.0784 90.2146C48.9067 90.0356 48.7872 89.8179 48.7198 89.5617C48.6646 89.352 48.6677 89.127 48.729 88.8867C48.7842 88.6231 48.9516 88.4545 49.2311 88.381C49.6737 88.2645 50.1274 88.0954 50.5921 87.8735C51.0801 87.6454 51.5092 87.3831 51.8795 87.0864C52.267 86.7603 52.5606 86.409 52.7605 86.0326C52.9604 85.6562 53.0051 85.2584 52.8948 84.8391C52.7293 84.2101 52.169 84.0212 51.2139 84.2725C50.5849 84.438 49.9455 84.7059 49.2957 85.0761C48.6397 85.4231 48.0665 85.8479 47.576 86.3505C47.0856 86.8532 46.7128 87.4245 46.4577 88.0645C46.2198 88.6751 46.1928 89.3298 46.3767 90.0287C46.5177 90.5645 46.8064 90.9991 47.2429 91.3327C47.7026 91.66 48.2433 91.9163 48.8649 92.1015C49.5037 92.2572 50.194 92.3247 50.9357 92.3039C51.7008 92.277 52.4677 92.1624 53.2365 91.9601C53.4229 91.9111 53.6092 91.8621 53.7956 91.813C53.9758 91.7407 54.1561 91.6684 54.3363 91.596ZM60.108 82.0072C59.7377 82.3039 59.6107 82.6736 59.7272 83.1162C59.8008 83.3957 60.0993 83.6784 60.6228 83.9641C61.1696 84.2436 61.7661 84.5226 62.4122 84.801C63.0755 85.0499 63.7124 85.2933 64.323 85.5312C64.9336 85.7691 65.3627 85.98 65.6104 86.1639C66.0885 86.5612 66.395 87.0161 66.5298 87.5286C66.6708 88.0644 66.6677 88.526 66.5206 88.9134C66.3967 89.2947 66.1613 89.6307 65.8143 89.9212C65.4906 90.2057 65.0817 90.4503 64.5876 90.655C64.1167 90.8536 63.6134 91.0234 63.0776 91.1643C62.7049 91.2624 62.2476 91.3703 61.7056 91.4879C61.1637 91.6056 60.6242 91.6853 60.0872 91.7269C59.5735 91.7625 59.1204 91.7447 58.7281 91.6735C58.3296 91.5791 58.0936 91.3921 58.0201 91.1126C57.9588 90.8796 57.9643 90.6166 58.0367 90.3236C58.109 90.0306 58.2733 89.8503 58.5296 89.7829C58.5529 89.7768 58.5792 89.7823 58.6087 89.7995C58.632 89.7933 58.6669 89.7841 58.7135 89.7719C59.2628 89.7768 59.9426 89.71 60.7531 89.5715C61.5635 89.433 62.3415 89.2657 63.0869 89.0696C63.483 88.9654 63.7938 88.8213 64.0194 88.6374C64.2389 88.4302 64.3149 88.1985 64.2475 87.9423C64.1862 87.7093 64.0053 87.4954 63.705 87.3004C63.3985 87.0821 63.0368 86.8908 62.6199 86.7265C62.2264 86.5561 61.8126 86.4034 61.3786 86.2685C60.9678 86.1275 60.6098 85.9975 60.3045 85.8786C59.4242 85.5622 58.7511 85.2287 58.2852 84.878C57.8365 84.4979 57.5417 84.0399 57.4007 83.5041C57.2413 82.8984 57.2641 82.3694 57.4688 81.917C57.6908 81.4351 58.0157 81.0134 58.4436 80.6517C58.8716 80.29 59.3675 79.9977 59.9315 79.7745C60.5127 79.522 61.0828 79.3222 61.6419 79.1751C61.9681 79.0893 62.2973 79.0151 62.6295 78.9526C62.9618 78.8901 63.2683 78.8717 63.5491 78.8975C63.8237 78.8999 64.0641 78.9613 64.27 79.0814C64.4699 79.1783 64.6035 79.3549 64.6709 79.6111C64.7383 79.8674 64.7383 80.104 64.6709 80.321C64.6267 80.5319 64.4882 80.668 64.2552 80.7293C64.0456 80.7844 63.7219 80.8322 63.2842 80.8727C62.8698 80.907 62.3946 80.9946 61.8588 81.1356C61.1367 81.3256 60.553 81.6161 60.108 82.0072ZM70.6609 79.2307C70.2906 79.5274 70.1637 79.8971 70.2802 80.3397C70.3537 80.6193 70.6523 80.9019 71.1758 81.1876C71.7226 81.4672 72.3191 81.7461 72.9652 82.0245C73.6285 82.2734 74.2654 82.5168 74.876 82.7547C75.4866 82.9926 75.9157 83.2035 76.1633 83.3874C76.6415 83.7847 76.948 84.2396 77.0828 84.7521C77.2238 85.2879 77.2207 85.7495 77.0735 86.137C76.9497 86.5183 76.7143 86.8542 76.3673 87.1448C76.0436 87.4292 75.6347 87.6738 75.1405 87.8785C74.6697 88.0771 74.1664 88.2469 73.6306 88.3878C73.2579 88.4859 72.8005 88.5938 72.2586 88.7115C71.7167 88.8291 71.1772 88.9088 70.6402 88.9505C70.1264 88.986 69.6734 88.9682 69.2811 88.897C68.8826 88.8026 68.6466 88.6156 68.573 88.3361C68.5118 88.1031 68.5173 87.8401 68.5896 87.5471C68.662 87.2541 68.8263 87.0738 69.0826 87.0064C69.1058 87.0003 69.1322 87.0058 69.1616 87.023C69.1849 87.0169 69.2199 87.0077 69.2665 86.9954C69.8157 87.0003 70.4956 86.9336 71.306 86.7951C72.1165 86.6565 72.8944 86.4892 73.6399 86.2931C74.0359 86.1889 74.3468 86.0449 74.5724 85.861C74.7918 85.6538 74.8679 85.422 74.8004 85.1658C74.7392 84.9328 74.5583 84.7189 74.2579 84.5239C73.9514 84.3057 73.5898 84.1144 73.1729 83.95C72.7793 83.7796 72.3656 83.6269 71.9315 83.492C71.5208 83.351 71.1628 83.221 70.8575 83.1021C69.9772 82.7857 69.3041 82.4522 68.8382 82.1015C68.3895 81.7214 68.0946 81.2634 67.9537 80.7276C67.7943 80.1219 67.817 79.5929 68.0218 79.1405C68.2438 78.6587 68.5687 78.2369 68.9966 77.8752C69.4245 77.5136 69.9205 77.2212 70.4845 76.9981C71.0657 76.7455 71.6358 76.5457 72.1949 76.3986C72.5211 76.3128 72.8503 76.2386 73.1825 76.1761C73.5148 76.1136 73.8213 76.0952 74.1021 76.121C74.3767 76.1235 74.617 76.1848 74.823 76.305C75.0229 76.4018 75.1565 76.5784 75.2239 76.8346C75.2913 77.0909 75.2913 77.3275 75.2239 77.5445C75.1797 77.7554 75.0412 77.8915 74.8082 77.9528C74.5985 78.008 74.2749 78.0558 73.8371 78.0962C73.4227 78.1305 72.9476 78.2181 72.4118 78.3591C71.6896 78.5491 71.106 78.8397 70.6609 79.2307ZM80.5408 75.8841C80.6352 76.4322 80.7357 77.0035 80.8423 77.5982C80.9723 78.1867 81.1169 78.7838 81.2763 79.3895C81.5031 80.2514 81.7648 81.1042 82.0614 81.9477C82.3814 82.7852 82.6486 83.6116 82.8632 84.4269C82.9857 84.8928 82.9612 85.2729 82.7895 85.5672C82.6412 85.8553 82.4388 86.033 82.1826 86.1005C81.9496 86.1618 81.7302 86.1323 81.5242 86.0122C81.3354 85.8626 81.1803 85.6045 81.0589 85.2379C80.7132 84.2079 80.3921 83.2712 80.0954 82.4276C79.8159 81.5547 79.5597 80.6756 79.3268 79.7903C79.2349 79.4409 79.1068 79.0013 78.9425 78.4717C78.7954 77.9126 78.6808 77.3823 78.5987 76.8808C78.5337 76.3499 78.5368 75.8883 78.6079 75.4959C78.6962 75.0742 78.9268 74.8143 79.2995 74.7162C79.5324 74.6549 79.758 74.7076 79.9763 74.8744C80.2178 75.035 80.3845 75.2901 80.4765 75.6395L80.5408 75.8841ZM76.7674 68.3583C76.8483 68.2871 76.9237 68.2424 76.9936 68.224C77.0868 68.1995 77.1714 68.1897 77.2474 68.1946C77.3467 68.1934 77.4197 68.1866 77.4663 68.1744C77.5766 68.1204 77.6784 68.0812 77.7716 68.0567C77.8586 68.0089 77.9604 67.9697 78.0769 67.939C78.8456 67.7368 79.4838 67.8428 79.9914 68.2573C80.5222 68.6656 80.8643 69.1609 81.0175 69.7433C81.091 70.0229 81.1008 70.3441 81.0469 70.707C81.0162 71.0638 80.9095 71.4157 80.7268 71.7627C80.5613 72.0802 80.3166 72.3812 79.9929 72.6656C79.6692 72.9501 79.2628 73.1566 78.7736 73.2853C78.4474 73.3712 78.1231 73.3693 77.8007 73.2798C77.4782 73.1903 77.1815 73.0566 76.9106 72.8788C76.6335 72.6777 76.3969 72.4411 76.2007 72.1689C75.9984 71.8734 75.8575 71.5742 75.7778 71.2714C75.6552 70.8054 75.6779 70.2764 75.8459 69.6842C76.0372 69.0859 76.3444 68.6439 76.7674 68.3583ZM78.0841 69.9547L77.8046 70.0282C77.7003 70.1055 77.6402 70.2085 77.6243 70.3372C77.6084 70.4659 77.6157 70.5885 77.6464 70.705C77.7015 70.9147 77.8351 71.0912 78.0472 71.2347C78.2532 71.3549 78.4261 71.3966 78.5659 71.3598C78.9153 71.2678 79.1207 71.1017 79.182 70.8614C79.2372 70.5978 79.2403 70.3728 79.1912 70.1865C78.9767 69.8444 78.6947 69.7193 78.3453 69.8112C78.2987 69.8235 78.2116 69.8713 78.0841 69.9547ZM93.5914 72.3758C93.6723 71.8314 93.9795 71.3894 94.5128 71.0499C95.0462 70.7103 95.6274 70.4577 96.2563 70.2922C97.6381 70.0532 98.6723 70.2918 99.3589 71.0078C100.045 71.7239 100.591 72.8507 100.996 74.3882C101.247 75.3433 101.436 76.2525 101.564 77.1156C101.685 77.9555 101.744 78.6997 101.74 79.3483C101.76 79.9908 101.702 80.529 101.567 80.9631C101.449 81.3676 101.262 81.6037 101.006 81.6711C100.796 81.7262 100.586 81.6821 100.373 81.5386C100.185 81.389 100.047 81.1512 99.9616 80.825C99.8513 80.4057 99.7667 79.9422 99.7079 79.4346C99.6429 78.9038 99.5896 78.3698 99.5479 77.8328C99.5063 77.2957 99.453 76.7618 99.388 76.2309C99.3231 75.7 99.2262 75.19 99.0975 74.7007C98.8401 73.7223 98.4926 73.0167 98.0549 72.5839C97.6111 72.1277 97.0164 71.9977 96.271 72.1939C95.8639 72.3508 95.5193 72.6033 95.2373 72.9515C94.9492 73.2764 94.8051 73.6755 94.8051 74.1488C94.8897 74.3756 94.9657 74.6171 95.0331 74.8734C95.1238 75.1235 95.2059 75.3884 95.2795 75.6679C95.5308 76.623 95.7232 77.5438 95.8568 78.4303C96.0137 79.3106 96.0964 80.0984 96.105 80.7936C96.1074 81.4654 96.0442 82.03 95.9154 82.4874C95.8038 82.9153 95.6083 83.166 95.3287 83.2395C95.0958 83.3008 94.8732 83.2597 94.6611 83.1163C94.4723 82.9667 94.335 82.7288 94.2492 82.4027C94.1389 81.9834 94.0574 81.5315 94.0047 81.0472C93.9692 80.5335 93.922 80.0228 93.8632 79.5152C93.8215 78.9782 93.7713 78.4559 93.7124 77.9483C93.6708 77.4113 93.5856 76.8982 93.4569 76.409C93.2178 75.5004 92.9199 74.7942 92.5632 74.2903C92.2236 73.7569 91.6927 73.5852 90.9705 73.7752C90.5046 73.8978 90.1012 74.116 89.7604 74.4299C89.4134 74.7204 89.1583 74.8872 88.9953 74.9301C88.8089 74.9791 88.6213 74.9288 88.4325 74.7792C88.267 74.6235 88.1567 74.4408 88.1015 74.2312C88.0341 73.9749 88.069 73.7291 88.2064 73.4937C88.3609 73.2289 88.5742 72.9984 88.8464 72.8022C89.1125 72.5828 89.4227 72.3891 89.777 72.2211C90.1314 72.0532 90.4833 71.9232 90.8327 71.8313C91.3219 71.7026 91.8038 71.6879 92.2783 71.7872C92.7699 71.8571 93.2076 72.0533 93.5914 72.3758ZM86.8528 73.1773C86.9398 73.6027 87.0416 74.0368 87.158 74.4794C87.2684 74.8987 87.3817 75.3297 87.4982 75.7723C87.8108 76.9604 88.1436 78.1307 88.4966 79.2832C88.8669 80.4063 89.2444 81.4154 89.6294 82.3105C89.7336 82.7065 89.717 83.0222 89.5797 83.2576C89.4595 83.4636 89.2713 83.6003 89.015 83.6677C88.7821 83.729 88.551 83.7026 88.3217 83.5886C88.0924 83.4745 87.9116 83.2606 87.7792 82.9467C87.3697 81.9585 86.983 80.9144 86.6189 79.8146C86.2548 78.7148 85.9165 77.5709 85.6039 76.3828C85.5242 76.0799 85.4206 75.7336 85.2931 75.3437C85.1656 74.9538 85.0792 74.578 85.0339 74.2163C84.9885 73.8546 85.0051 73.5389 85.0836 73.2691C85.1792 72.97 85.4018 72.7744 85.7512 72.6825C85.9842 72.6212 86.2153 72.6476 86.4445 72.7616C86.6677 72.8524 86.8038 72.9909 86.8528 73.1773ZM105.351 69.3566C105.445 69.9047 105.546 70.476 105.652 71.0707C105.782 71.6592 105.927 72.2563 106.086 72.862C106.313 73.724 106.575 74.5767 106.871 75.4203C107.191 76.2577 107.459 77.0841 107.673 77.8994C107.796 78.3653 107.771 78.7454 107.6 79.0397C107.451 79.3278 107.249 79.5056 106.993 79.573C106.76 79.6343 106.54 79.6048 106.334 79.4847C106.145 79.3351 105.99 79.077 105.869 78.7104C105.523 77.6805 105.202 76.7437 104.905 75.9002C104.626 75.0272 104.37 74.1481 104.137 73.2628C104.045 72.9134 103.917 72.4738 103.752 71.9442C103.605 71.3851 103.491 70.8548 103.409 70.3533C103.344 69.8224 103.347 69.3608 103.418 68.9685C103.506 68.5467 103.737 68.2868 104.109 68.1887C104.342 68.1274 104.568 68.1802 104.786 68.3469C105.028 68.5076 105.195 68.7626 105.286 69.112L105.351 69.3566ZM101.577 61.8308C101.658 61.7597 101.734 61.7149 101.804 61.6965C101.897 61.672 101.981 61.6622 102.057 61.6671C102.157 61.6659 102.23 61.6592 102.276 61.6469C102.387 61.593 102.488 61.5537 102.582 61.5292C102.669 61.4814 102.77 61.4422 102.887 61.4115C103.656 61.2093 104.294 61.3154 104.801 61.7298C105.332 62.1381 105.674 62.6335 105.827 63.2159C105.901 63.4954 105.911 63.8166 105.857 64.1796C105.826 64.5363 105.719 64.8882 105.537 65.2352C105.371 65.5527 105.127 65.8537 104.803 66.1381C104.479 66.4226 104.073 66.6292 103.584 66.7579C103.257 66.8437 102.933 66.8418 102.611 66.7523C102.288 66.6628 101.992 66.5291 101.721 66.3513C101.443 66.1502 101.207 65.9136 101.011 65.6414C100.808 65.3459 100.667 65.0467 100.588 64.7439C100.465 64.278 100.488 63.7489 100.656 63.1567C100.847 62.5584 101.154 62.1164 101.577 61.8308ZM102.894 63.4272L102.615 63.5007C102.51 63.578 102.45 63.681 102.434 63.8097C102.418 63.9384 102.426 64.061 102.456 64.1775C102.511 64.3872 102.645 64.5638 102.857 64.7072C103.063 64.8274 103.236 64.8691 103.376 64.8323C103.725 64.7404 103.931 64.5742 103.992 64.3339C104.047 64.0703 104.05 63.8453 104.001 63.659C103.787 63.3169 103.505 63.1918 103.155 63.2838C103.109 63.296 103.022 63.3438 102.894 63.4272ZM113.222 68.0329C112.852 68.3296 112.725 68.6992 112.842 69.1419C112.915 69.4214 113.214 69.704 113.737 69.9897C114.284 70.2693 114.88 70.5483 115.527 70.8266C116.19 71.0756 116.827 71.319 117.437 71.5569C118.048 71.7948 118.477 72.0057 118.725 72.1896C119.203 72.5869 119.509 73.0418 119.644 73.5543C119.785 74.0901 119.782 74.5517 119.635 74.9391C119.511 75.3204 119.276 75.6563 118.929 75.9469C118.605 76.2313 118.196 76.4759 117.702 76.6806C117.231 76.8792 116.728 77.049 116.192 77.19C115.819 77.2881 115.362 77.3959 114.82 77.5136C114.278 77.6313 113.739 77.7109 113.202 77.7526C112.688 77.7881 112.235 77.7703 111.842 77.6992C111.444 77.6048 111.208 77.4178 111.134 77.1382C111.073 76.9053 111.079 76.6423 111.151 76.3492C111.223 76.0562 111.388 75.876 111.644 75.8086C111.667 75.8024 111.694 75.808 111.723 75.8251C111.746 75.819 111.781 75.8098 111.828 75.7975C112.377 75.8025 113.057 75.7357 113.867 75.5972C114.678 75.4587 115.456 75.2914 116.201 75.0952C116.597 74.9911 116.908 74.847 117.134 74.6631C117.353 74.4559 117.429 74.2242 117.362 73.9679C117.3 73.735 117.12 73.521 116.819 73.3261C116.513 73.1078 116.151 72.9165 115.734 72.7522C115.341 72.5817 114.927 72.4291 114.493 72.2942C114.082 72.1532 113.724 72.0232 113.419 71.9042C112.539 71.5879 111.865 71.2543 111.4 70.9036C110.951 70.5235 110.656 70.0656 110.515 69.5298C110.356 68.9241 110.378 68.395 110.583 67.9426C110.805 67.4608 111.13 67.039 111.558 66.6774C111.986 66.3157 112.482 66.0233 113.046 65.8002C113.627 65.5477 114.197 65.3478 114.756 65.2007C115.082 65.1149 115.412 65.0408 115.744 64.9783C116.076 64.9158 116.383 64.8974 116.663 64.9231C116.938 64.9256 117.178 64.9869 117.384 65.1071C117.584 65.204 117.718 65.3805 117.785 65.6368C117.853 65.893 117.853 66.1297 117.785 66.3467C117.741 66.5576 117.602 66.6937 117.37 66.7549C117.16 66.8101 116.836 66.8579 116.398 66.8983C115.984 66.9326 115.509 67.0203 114.973 67.1613C114.251 67.3513 113.667 67.6418 113.222 68.0329ZM132.213 72.9002C129.881 73.3145 128.004 72.9987 126.583 71.9528C125.162 70.9069 124.127 69.1492 123.477 66.6799L123.091 65.2122C122.183 65.4513 121.404 65.5689 120.755 65.5652C120.101 65.5382 119.697 65.2335 119.543 64.6511C119.535 64.4292 119.594 64.2269 119.72 64.0442C119.84 63.8382 120.052 63.6954 120.355 63.6157C120.634 63.5422 120.981 63.4883 121.396 63.454C121.81 63.4196 122.25 63.3412 122.716 63.2186C122.52 62.4732 122.344 61.7099 122.188 60.9289C122.027 60.1246 121.921 59.3926 121.872 58.733C121.846 58.0672 121.886 57.5087 121.992 57.0576C122.091 56.5831 122.315 56.2999 122.665 56.2079C122.921 56.1405 123.185 56.1957 123.456 56.3735C123.721 56.528 123.902 56.7916 124 57.1643C124.153 57.7467 124.289 58.5455 124.406 59.5607C124.524 60.5759 124.689 61.6285 124.901 62.7185C125.093 62.6928 125.286 62.667 125.478 62.6413C125.688 62.5861 125.898 62.531 126.107 62.4758C126.48 62.3777 126.85 62.268 127.216 62.1467C127.606 62.0192 127.993 61.88 128.377 61.7293C128.703 61.6434 128.995 61.6661 129.254 61.7973C129.513 61.9286 129.673 62.1106 129.734 62.3436C129.82 62.6697 129.791 62.9389 129.648 63.151C129.498 63.3398 129.281 63.509 128.997 63.6585C128.729 63.7787 128.398 63.8908 128.002 63.995C127.629 64.0931 127.256 64.1911 126.883 64.2892L125.276 64.7121C125.32 64.9745 125.373 65.2222 125.434 65.4551C125.495 65.6881 125.557 65.921 125.618 66.154C125.839 66.9927 126.108 67.7314 126.425 68.3702C126.76 68.9796 127.181 69.4915 127.689 69.9059C128.196 70.3203 128.796 70.611 129.487 70.7777C130.179 70.9445 130.985 70.9814 131.907 70.8882C132.176 70.8674 132.39 70.9232 132.549 71.0556C132.709 71.188 132.816 71.3591 132.871 71.5687C132.945 71.8483 132.931 72.126 132.829 72.4019C132.744 72.6483 132.539 72.8144 132.213 72.9002ZM151.05 56.7355C151.046 56.4375 151.11 56.2089 151.243 56.0495C151.392 55.8607 151.572 55.7387 151.782 55.6835C152.038 55.6161 152.284 55.6511 152.519 55.7884C152.778 55.9196 152.953 56.1599 153.045 56.5094C153.088 56.6724 153.107 56.792 153.102 56.868C153.031 58.2069 152.93 59.5286 152.8 60.8331C152.687 62.1082 152.529 63.2583 152.326 64.2833C152.122 65.3082 151.861 66.1616 151.542 66.8433C151.247 67.5188 150.889 67.9117 150.47 68.0221C150.004 68.1447 149.441 67.9938 148.782 67.5696C148.116 67.122 147.401 66.4881 146.637 65.6678C145.873 64.8475 145.073 63.8874 144.236 62.7876C143.415 61.6584 142.618 60.4733 141.843 59.2325C141.76 59.105 141.709 59.0063 141.69 58.9364C141.617 58.6568 141.672 58.3932 141.856 58.1456C142.057 57.8685 142.297 57.6932 142.577 57.6196C142.787 57.5645 143 57.5706 143.217 57.638C143.434 57.7055 143.609 57.8962 143.741 58.21C144.147 58.9003 144.65 59.6771 145.251 60.5403C145.869 61.374 146.474 62.1612 147.068 62.9018C147.655 63.6191 148.188 64.226 148.668 64.7226C149.164 65.1898 149.494 65.4019 149.657 65.359C149.797 65.3222 149.939 65.0108 150.084 64.4247C150.246 63.8093 150.389 63.0742 150.512 62.2197C150.636 61.3651 150.745 60.4523 150.838 59.4813C150.925 58.4869 150.996 57.5717 151.05 56.7355ZM158.859 56.026C158.488 56.3227 158.361 56.6923 158.478 57.135C158.551 57.4145 158.85 57.6971 159.373 57.9828C159.92 58.2624 160.517 58.5414 161.163 58.8197C161.826 59.0687 162.463 59.3121 163.074 59.55C163.684 59.7879 164.113 59.9988 164.361 60.1827C164.839 60.58 165.146 61.0349 165.281 61.5474C165.421 62.0832 165.418 62.5448 165.271 62.9322C165.147 63.3135 164.912 63.6495 164.565 63.94C164.241 64.2244 163.832 64.469 163.338 64.6738C162.867 64.8724 162.364 65.0421 161.828 65.1831C161.456 65.2812 160.998 65.389 160.456 65.5067C159.914 65.6244 159.375 65.7041 158.838 65.7457C158.324 65.7812 157.871 65.7634 157.479 65.6923C157.08 65.5979 156.844 65.4109 156.771 65.1313C156.709 64.8984 156.715 64.6354 156.787 64.3424C156.86 64.0493 157.024 63.8691 157.28 63.8017C157.304 63.7956 157.33 63.8011 157.359 63.8182C157.383 63.8121 157.418 63.8029 157.464 63.7907C158.013 63.7956 158.693 63.7288 159.504 63.5903C160.314 63.4518 161.092 63.2845 161.838 63.0884C162.234 62.9842 162.544 62.8401 162.77 62.6562C162.99 62.449 163.066 62.2173 162.998 61.961C162.937 61.7281 162.756 61.5141 162.456 61.3192C162.149 61.1009 161.787 60.9096 161.371 60.7453C160.977 60.5749 160.563 60.4222 160.129 60.2873C159.719 60.1463 159.361 60.0163 159.055 59.8973C158.175 59.581 157.502 59.2474 157.036 58.8968C156.587 58.5166 156.292 58.0587 156.151 57.5229C155.992 56.9172 156.015 56.3882 156.22 55.9357C156.441 55.4539 156.766 55.0322 157.194 54.6705C157.622 54.3088 158.118 54.0164 158.682 53.7933C159.263 53.5408 159.834 53.341 160.393 53.1939C160.719 53.108 161.048 53.0339 161.38 52.9714C161.713 52.9089 162.019 52.8905 162.3 52.9163C162.574 52.9187 162.815 52.98 163.021 53.1002C163.221 53.1971 163.354 53.3736 163.422 53.6299C163.489 53.8861 163.489 54.1228 163.422 54.3398C163.377 54.5507 163.239 54.6868 163.006 54.748C162.796 54.8032 162.473 54.851 162.035 54.8914C161.62 54.9258 161.145 55.0134 160.61 55.1544C159.887 55.3444 159.304 55.6349 158.859 56.026ZM61.4656 121.818C61.7194 121.552 61.9745 121.385 62.2307 121.318C62.189 121.254 62.1529 121.164 62.1222 121.047C62.0242 120.674 62.1774 120.31 62.5821 119.955C62.9867 119.599 63.5734 119.32 64.3421 119.118C65.5535 118.799 66.6435 118.824 67.6121 119.192C68.5807 119.56 69.426 120.122 70.1481 120.878C70.8702 121.635 71.4771 122.521 71.9687 123.538C72.4542 124.531 72.8225 125.505 73.0738 126.46C73.368 127.578 73.528 128.707 73.5537 129.846C73.5965 130.956 73.4837 131.994 73.2151 132.962C72.9404 133.906 72.5094 134.729 71.9221 135.431C71.3347 136.134 70.5635 136.611 69.6084 136.862C68.2339 137.224 67.0281 137.279 65.9908 137.029C64.9708 136.75 64.0825 136.261 63.326 135.563C62.5696 134.866 61.9486 134.02 61.4632 133.027C60.9716 132.011 60.5787 130.943 60.2845 129.825C59.8248 128.078 59.7188 126.586 59.9666 125.351C60.2082 124.091 60.7078 122.914 61.4656 121.818ZM63.5512 121.792C63.5168 121.851 63.4531 121.893 63.3599 121.917C63.2667 121.942 63.1907 121.937 63.1319 121.902L63.1686 122.042C63.2667 122.415 63.1956 122.807 62.9552 123.219C62.5371 123.902 62.2587 124.785 62.1201 125.867C61.9815 126.95 62.0685 128.085 62.3811 129.274C62.614 130.159 62.9309 130.985 63.3318 131.751C63.7327 132.517 64.2022 133.166 64.7404 133.697C65.2786 134.228 65.888 134.603 66.5684 134.822C67.2489 135.042 67.9852 135.047 68.7772 134.839C69.4062 134.674 69.9224 134.363 70.3258 133.909C70.7231 133.43 71.0082 132.857 71.1811 132.189C71.3712 131.491 71.4405 130.713 71.389 129.855C71.3315 128.974 71.1709 128.032 70.9073 127.03C70.7419 126.401 70.4967 125.706 70.1718 124.945C69.8702 124.177 69.4761 123.484 68.9894 122.865C68.4965 122.222 67.9062 121.73 67.2184 121.388C66.5539 121.039 65.779 120.982 64.8938 121.215C64.4045 121.343 64.076 121.467 63.908 121.586C63.7633 121.699 63.6444 121.768 63.5512 121.792ZM82.3055 138.827L82.3699 139.072C82.4863 139.514 82.4526 139.859 82.2687 140.107C82.0847 140.355 81.8646 140.512 81.6084 140.58C81.3521 140.647 81.118 140.609 80.9058 140.466C80.6937 140.322 80.5154 140.07 80.3707 139.71C80.0262 138.779 79.6928 137.796 79.3704 136.76C79.0541 135.747 78.752 134.693 78.4639 133.598C78.0594 132.061 77.6843 130.54 77.3386 129.037C77.0162 127.528 76.7558 126.064 76.5572 124.647C76.4886 124.292 76.5321 124.031 76.6878 123.865C76.8607 123.671 77.0753 123.539 77.3315 123.472C77.4946 123.429 77.6755 123.406 77.8741 123.404C78.21 123.166 78.6453 122.927 79.1799 122.687C79.7145 122.446 80.2613 122.253 80.8204 122.106C81.6125 121.897 82.3941 121.791 83.1653 121.788C83.9537 121.755 84.6764 121.851 85.3336 122.076C85.9908 122.302 86.556 122.652 87.0292 123.125C87.5196 123.569 87.8629 124.163 88.059 124.909C88.2613 125.678 88.2919 126.504 88.1508 127.388C88.0037 128.249 87.6867 129.079 87.1999 129.88C86.7364 130.674 86.0908 131.392 85.2632 132.033C84.4588 132.669 83.4976 133.133 82.3794 133.427C82.0532 133.513 81.7841 133.484 81.572 133.341C81.3832 133.191 81.2581 133 81.1969 132.767C81.1356 132.534 81.1417 132.321 81.2153 132.127C81.2827 131.91 81.4182 131.762 81.6217 131.684C82.2789 131.436 82.9147 131.107 83.529 130.696C84.1371 130.262 84.657 129.777 85.0886 129.24C85.5435 128.697 85.8721 128.1 86.0745 127.449C86.2707 126.774 86.2768 126.088 86.093 125.389C85.8785 124.573 85.3433 124.054 84.4875 123.831C83.6317 123.608 82.5748 123.662 81.3169 123.993C80.9098 124.15 80.477 124.351 80.0184 124.596C79.577 124.812 79.1565 125.059 78.7568 125.339C78.9627 126.405 79.1931 127.565 79.4481 128.818C79.7202 130.042 80.0156 131.26 80.3343 132.471C80.653 133.682 80.9711 134.844 81.2886 135.956C81.6294 137.062 81.9684 138.019 82.3055 138.827ZM101.565 128.529C99.2332 128.943 97.3567 128.627 95.9358 127.582C94.5148 126.536 93.4795 124.778 92.8298 122.309L92.4437 120.841C91.5351 121.08 90.7566 121.198 90.108 121.194C89.4533 121.167 89.0493 120.862 88.8961 120.28C88.8875 120.058 88.9464 119.856 89.0726 119.673C89.1928 119.467 89.4043 119.324 89.7072 119.245C89.9867 119.171 90.3337 119.117 90.7481 119.083C91.1625 119.048 91.6027 118.97 92.0686 118.847C91.8725 118.102 91.6966 117.339 91.5409 116.558C91.3791 115.753 91.2737 115.021 91.2247 114.362C91.199 113.696 91.2389 113.138 91.3443 112.686C91.4437 112.212 91.6681 111.929 92.0175 111.837C92.2737 111.769 92.5374 111.824 92.8083 112.002C93.0731 112.157 93.2546 112.42 93.3526 112.793C93.5059 113.375 93.6413 114.174 93.7589 115.189C93.8766 116.205 94.0414 117.257 94.2535 118.347C94.446 118.322 94.6385 118.296 94.831 118.27C95.0406 118.215 95.2503 118.16 95.46 118.105C95.8327 118.007 96.2024 117.897 96.569 117.775C96.9589 117.648 97.3457 117.509 97.7295 117.358C98.0556 117.272 98.348 117.295 98.6067 117.426C98.8654 117.557 99.0254 117.739 99.0867 117.972C99.1725 118.298 99.1437 118.568 99.0002 118.78C98.8506 118.969 98.6336 119.138 98.3491 119.287C98.0819 119.407 97.7502 119.52 97.3542 119.624C96.9814 119.722 96.6087 119.82 96.236 119.918L94.6286 120.341C94.6727 120.603 94.7254 120.851 94.7867 121.084C94.848 121.317 94.9093 121.55 94.9706 121.783C95.1912 122.621 95.4603 123.36 95.7778 123.999C96.1125 124.608 96.5336 125.12 97.0412 125.535C97.5488 125.949 98.1483 126.24 98.8398 126.407C99.5313 126.573 100.338 126.61 101.26 126.517C101.529 126.496 101.743 126.552 101.902 126.684C102.061 126.817 102.169 126.988 102.224 127.198C102.297 127.477 102.283 127.755 102.181 128.031C102.097 128.277 101.891 128.443 101.565 128.529ZM104.825 117.06C104.919 117.609 105.02 118.18 105.126 118.775C105.256 119.363 105.401 119.96 105.56 120.566C105.787 121.428 106.049 122.281 106.345 123.124C106.665 123.962 106.933 124.788 107.147 125.603C107.27 126.069 107.245 126.449 107.073 126.744C106.925 127.032 106.723 127.209 106.467 127.277C106.234 127.338 106.014 127.309 105.808 127.189C105.619 127.039 105.464 126.781 105.343 126.414C104.997 125.384 104.676 124.448 104.379 123.604C104.1 122.731 103.844 121.852 103.611 120.967C103.519 120.617 103.391 120.178 103.226 119.648C103.079 119.089 102.965 118.559 102.883 118.057C102.818 117.526 102.821 117.065 102.892 116.672C102.98 116.251 103.211 115.991 103.583 115.893C103.816 115.831 104.042 115.884 104.26 116.051C104.502 116.211 104.668 116.466 104.76 116.816L104.825 117.06ZM101.051 109.535C101.132 109.464 101.208 109.419 101.278 109.4C101.371 109.376 101.455 109.366 101.531 109.371C101.631 109.37 101.704 109.363 101.75 109.351C101.861 109.297 101.962 109.258 102.056 109.233C102.143 109.185 102.244 109.146 102.361 109.115C103.13 108.913 103.768 109.019 104.275 109.434C104.806 109.842 105.148 110.337 105.301 110.92C105.375 111.199 105.385 111.52 105.331 111.883C105.3 112.24 105.193 112.592 105.011 112.939C104.845 113.257 104.601 113.558 104.277 113.842C103.953 114.126 103.547 114.333 103.058 114.462C102.731 114.548 102.407 114.546 102.085 114.456C101.762 114.367 101.465 114.233 101.195 114.055C100.917 113.854 100.681 113.617 100.485 113.345C100.282 113.05 100.141 112.751 100.062 112.448C99.9392 111.982 99.9619 111.453 100.13 110.861C100.321 110.262 100.628 109.82 101.051 109.535ZM102.368 111.131L102.089 111.205C101.984 111.282 101.924 111.385 101.908 111.514C101.892 111.642 101.9 111.765 101.93 111.881C101.985 112.091 102.119 112.268 102.331 112.411C102.537 112.531 102.71 112.573 102.85 112.536C103.199 112.444 103.405 112.278 103.466 112.038C103.521 111.774 103.524 111.549 103.475 111.363C103.261 111.021 102.979 110.896 102.629 110.988C102.583 111 102.496 111.048 102.368 111.131ZM117.875 113.552C117.956 113.008 118.263 112.566 118.797 112.226C119.33 111.887 119.911 111.634 120.54 111.469C121.922 111.23 122.956 111.468 123.643 112.184C124.329 112.9 124.875 114.027 125.279 115.565C125.531 116.52 125.72 117.429 125.848 118.292C125.969 119.132 126.028 119.876 126.024 120.525C126.044 121.167 125.986 121.705 125.851 122.139C125.733 122.544 125.546 122.78 125.29 122.847C125.08 122.903 124.87 122.858 124.657 122.715C124.469 122.565 124.331 122.328 124.246 122.001C124.135 121.582 124.051 121.119 123.992 120.611C123.927 120.08 123.874 119.546 123.832 119.009C123.79 118.472 123.737 117.938 123.672 117.407C123.607 116.876 123.51 116.366 123.381 115.877C123.124 114.899 122.777 114.193 122.339 113.76C121.895 113.304 121.3 113.174 120.555 113.37C120.148 113.527 119.803 113.78 119.521 114.128C119.233 114.453 119.089 114.852 119.089 115.325C119.174 115.552 119.25 115.794 119.317 116.05C119.408 116.3 119.49 116.565 119.563 116.844C119.815 117.799 120.007 118.72 120.141 119.607C120.298 120.487 120.38 121.275 120.389 121.97C120.391 122.642 120.328 123.206 120.199 123.664C120.088 124.092 119.892 124.342 119.613 124.416C119.38 124.477 119.157 124.436 118.945 124.293C118.756 124.143 118.619 123.905 118.533 123.579C118.423 123.16 118.341 122.708 118.289 122.224C118.253 121.71 118.206 121.199 118.147 120.692C118.105 120.155 118.055 119.632 117.996 119.125C117.955 118.588 117.87 118.075 117.741 117.585C117.502 116.677 117.204 115.971 116.847 115.467C116.508 114.933 115.977 114.762 115.255 114.952C114.789 115.074 114.385 115.292 114.044 115.606C113.697 115.897 113.442 116.064 113.279 116.106C113.093 116.155 112.905 116.105 112.716 115.956C112.551 115.8 112.441 115.617 112.385 115.408C112.318 115.151 112.353 114.905 112.49 114.67C112.645 114.405 112.858 114.175 113.13 113.979C113.396 113.759 113.707 113.565 114.061 113.397C114.415 113.23 114.767 113.1 115.117 113.008C115.606 112.879 116.088 112.864 116.562 112.964C117.054 113.033 117.492 113.23 117.875 113.552ZM111.137 114.354C111.224 114.779 111.326 115.213 111.442 115.656C111.552 116.075 111.666 116.506 111.782 116.949C112.095 118.137 112.428 119.307 112.781 120.46C113.151 121.583 113.528 122.592 113.913 123.487C114.018 123.883 114.001 124.199 113.864 124.434C113.743 124.64 113.555 124.777 113.299 124.844C113.066 124.905 112.835 124.879 112.606 124.765C112.376 124.651 112.196 124.437 112.063 124.123C111.654 123.135 111.267 122.091 110.903 120.991C110.539 119.891 110.2 118.747 109.888 117.559C109.808 117.256 109.705 116.91 109.577 116.52C109.45 116.13 109.363 115.754 109.318 115.393C109.272 115.031 109.289 114.715 109.368 114.446C109.463 114.146 109.686 113.951 110.035 113.859C110.268 113.798 110.499 113.824 110.729 113.938C110.952 114.029 111.088 114.167 111.137 114.354ZM129.635 110.533C129.729 111.081 129.83 111.652 129.936 112.247C130.066 112.836 130.211 113.433 130.37 114.038C130.597 114.9 130.859 115.753 131.155 116.597C131.475 117.434 131.743 118.26 131.957 119.076C132.08 119.542 132.055 119.922 131.883 120.216C131.735 120.504 131.533 120.682 131.277 120.749C131.044 120.811 130.824 120.781 130.618 120.661C130.429 120.511 130.274 120.253 130.153 119.887C129.807 118.857 129.486 117.92 129.189 117.077C128.91 116.204 128.654 115.324 128.421 114.439C128.329 114.09 128.201 113.65 128.036 113.121C127.889 112.561 127.775 112.031 127.693 111.53C127.628 110.999 127.631 110.537 127.702 110.145C127.79 109.723 128.021 109.463 128.393 109.365C128.626 109.304 128.852 109.357 129.07 109.523C129.312 109.684 129.478 109.939 129.57 110.288L129.635 110.533ZM125.861 103.007C125.942 102.936 126.018 102.891 126.088 102.873C126.181 102.848 126.265 102.839 126.341 102.843C126.441 102.842 126.514 102.836 126.56 102.823C126.671 102.769 126.772 102.73 126.865 102.706C126.953 102.658 127.054 102.619 127.171 102.588C127.94 102.386 128.578 102.492 129.085 102.906C129.616 103.314 129.958 103.81 130.111 104.392C130.185 104.672 130.195 104.993 130.141 105.356C130.11 105.713 130.003 106.065 129.821 106.412C129.655 106.729 129.411 107.03 129.087 107.315C128.763 107.599 128.357 107.806 127.868 107.934C127.541 108.02 127.217 108.018 126.895 107.929C126.572 107.839 126.275 107.705 126.005 107.528C125.727 107.327 125.491 107.09 125.295 106.818C125.092 106.522 124.951 106.223 124.872 105.92C124.749 105.454 124.772 104.925 124.94 104.333C125.131 103.735 125.438 103.293 125.861 103.007ZM127.178 104.604L126.898 104.677C126.794 104.754 126.734 104.857 126.718 104.986C126.702 105.115 126.71 105.237 126.74 105.354C126.795 105.564 126.929 105.74 127.141 105.884C127.347 106.004 127.52 106.045 127.66 106.009C128.009 105.917 128.215 105.751 128.276 105.51C128.331 105.247 128.334 105.022 128.285 104.835C128.071 104.493 127.789 104.368 127.439 104.46C127.393 104.472 127.306 104.52 127.178 104.604ZM137.506 109.209C137.136 109.506 137.009 109.876 137.125 110.318C137.199 110.598 137.498 110.88 138.021 111.166C138.568 111.446 139.164 111.725 139.81 112.003C140.474 112.252 141.111 112.495 141.721 112.733C142.332 112.971 142.761 113.182 143.009 113.366C143.487 113.763 143.793 114.218 143.928 114.731C144.069 115.266 144.066 115.728 143.919 116.115C143.795 116.497 143.56 116.833 143.213 117.123C142.889 117.408 142.48 117.652 141.986 117.857C141.515 118.056 141.012 118.225 140.476 118.366C140.103 118.464 139.646 118.572 139.104 118.69C138.562 118.808 138.022 118.887 137.485 118.929C136.972 118.964 136.519 118.947 136.126 118.876C135.728 118.781 135.492 118.594 135.418 118.315C135.357 118.082 135.363 117.819 135.435 117.526C135.507 117.233 135.672 117.052 135.928 116.985C135.951 116.979 135.978 116.984 136.007 117.001C136.03 116.995 136.065 116.986 136.112 116.974C136.661 116.979 137.341 116.912 138.151 116.774C138.962 116.635 139.74 116.468 140.485 116.272C140.881 116.167 141.192 116.023 141.418 115.839C141.637 115.632 141.713 115.401 141.646 115.144C141.584 114.911 141.404 114.697 141.103 114.502C140.797 114.284 140.435 114.093 140.018 113.929C139.625 113.758 139.211 113.605 138.777 113.471C138.366 113.33 138.008 113.2 137.703 113.081C136.822 112.764 136.149 112.431 135.684 112.08C135.235 111.7 134.94 111.242 134.799 110.706C134.64 110.1 134.662 109.571 134.867 109.119C135.089 108.637 135.414 108.215 135.842 107.854C136.27 107.492 136.766 107.2 137.33 106.977C137.911 106.724 138.481 106.524 139.04 106.377C139.366 106.291 139.696 106.217 140.028 106.155C140.36 106.092 140.667 106.074 140.947 106.1C141.222 106.102 141.462 106.163 141.668 106.283C141.868 106.38 142.002 106.557 142.069 106.813C142.137 107.069 142.137 107.306 142.069 107.523C142.025 107.734 141.886 107.87 141.653 107.931C141.444 107.986 141.12 108.034 140.682 108.075C140.268 108.109 139.793 108.197 139.257 108.338C138.535 108.528 137.951 108.818 137.506 109.209ZM156.497 114.077C154.165 114.491 152.288 114.175 150.867 113.129C149.446 112.083 148.411 110.326 147.761 107.856L147.375 106.389C146.467 106.628 145.688 106.745 145.039 106.742C144.385 106.715 143.981 106.41 143.827 105.827C143.819 105.606 143.878 105.403 144.004 105.221C144.124 105.015 144.336 104.872 144.639 104.792C144.918 104.719 145.265 104.665 145.679 104.63C146.094 104.596 146.534 104.518 147 104.395C146.804 103.65 146.628 102.886 146.472 102.105C146.31 101.301 146.205 100.569 146.156 99.9093C146.13 99.2436 146.17 98.6851 146.276 98.2339C146.375 97.7594 146.599 97.4762 146.949 97.3843C147.205 97.3169 147.469 97.3721 147.74 97.5499C148.005 97.7044 148.186 97.968 148.284 98.3407C148.437 98.9231 148.573 99.7219 148.69 100.737C148.808 101.752 148.973 102.805 149.185 103.895C149.377 103.869 149.57 103.843 149.762 103.818C149.972 103.762 150.182 103.707 150.391 103.652C150.764 103.554 151.134 103.444 151.5 103.323C151.89 103.196 152.277 103.056 152.661 102.906C152.987 102.82 153.279 102.843 153.538 102.974C153.797 103.105 153.957 103.287 154.018 103.52C154.104 103.846 154.075 104.115 153.932 104.327C153.782 104.516 153.565 104.685 153.281 104.835C153.013 104.955 152.682 105.067 152.286 105.171C151.913 105.269 151.54 105.368 151.167 105.466L149.56 105.888C149.604 106.151 149.657 106.399 149.718 106.631C149.779 106.864 149.841 107.097 149.902 107.33C150.123 108.169 150.392 108.908 150.709 109.547C151.044 110.156 151.465 110.668 151.973 111.082C152.48 111.497 153.08 111.787 153.771 111.954C154.463 112.121 155.269 112.158 156.191 112.065C156.46 112.044 156.674 112.1 156.833 112.232C156.993 112.364 157.1 112.535 157.155 112.745C157.229 113.025 157.215 113.302 157.113 113.578C157.028 113.825 156.823 113.991 156.497 114.077Z" fill="black"/>
</g>
<defs>
<filter id="filter0_d" x="0" y="0.00012207" width="211.696" height="202.062" filterUnits="userSpaceOnUse" color-interpolation-filters="sRGB">
<feFlood flood-opacity="0" result="BackgroundImageFix"/>
<feColorMatrix in="SourceAlpha" type="matrix" values="0 0 0 0 0 0 0 0 0 0 0 0 0 0 0 0 0 0 127 0"/>
<feOffset dy="4"/>
<feGaussianBlur stdDeviation="2"/>
<feColorMatrix type="matrix" values="0 0 0 0 0 0 0 0 0 0 0 0 0 0 0 0 0 0 0.25 0"/>
<feBlend mode="normal" in2="BackgroundImageFix" result="effect1_dropShadow"/>
<feBlend mode="normal" in="SourceGraphic" in2="effect1_dropShadow" result="shape"/>
</filter>
</defs>
</svg>
