<svg width="292" height="289" viewBox="0 0 292 289" fill="none" xmlns="http://www.w3.org/2000/svg">
<path d="M84 100H211.5L198 257H95.5L84 100Z" fill="white"/>
<ellipse cx="146.958" cy="258.118" rx="79.4319" ry="29.9864" fill="#C4C4C4" fill-opacity="0.2"/>
<line x1="83.3331" y1="97.3036" x2="94.8172" y2="256.805" stroke="black"/>
<line x1="211.851" y1="97.3815" x2="198.453" y2="256.883" stroke="black"/>
<path d="M211.85 97.0187C211.85 106.167 204.806 114.568 193.15 120.712C181.516 126.844 165.41 130.652 147.592 130.652C129.774 130.652 113.668 126.844 102.035 120.712C90.3781 114.568 83.3344 106.167 83.3344 97.0187C83.3344 87.8706 90.3781 79.4691 102.035 73.325C113.668 67.193 129.774 63.3853 147.592 63.3853C165.41 63.3853 181.516 67.193 193.15 73.325C204.806 79.4691 211.85 87.8706 211.85 97.0187Z" fill="white" stroke="black"/>
<path d="M92.4047 165.604H204.056L197.995 251.416L146.635 239.613L96.8707 246.95L92.4047 165.604Z" fill="#FFDF00" fill-opacity="0.7"/>
<path d="M198.455 255.566C198.455 262.132 192.841 268.227 183.417 272.709C174.03 277.173 161.028 279.948 146.638 279.948C132.249 279.948 119.246 277.173 109.86 272.709C100.436 268.227 94.8217 262.132 94.8217 255.566C94.8217 248.999 100.436 242.905 109.86 238.423C119.246 233.959 132.249 231.184 146.638 231.184C161.028 231.184 174.03 233.959 183.417 238.423C192.841 242.905 198.455 248.999 198.455 255.566Z" fill="#FFDF00" stroke="black"/>
<path d="M203.56 165.606C203.56 168.878 202.058 172.033 199.262 174.945C196.464 177.86 192.392 180.508 187.32 182.743C177.18 187.212 163.136 189.989 147.596 189.989C132.057 189.989 118.013 187.212 107.872 182.743C102.801 180.508 98.7284 177.86 95.9305 174.945C93.135 172.033 91.6326 168.878 91.6326 165.606C91.6326 162.335 93.135 159.18 95.9305 156.267C98.7284 153.352 102.801 150.704 107.872 148.469C118.013 144.001 132.057 141.224 147.596 141.224C163.136 141.224 177.18 144.001 187.32 148.469C192.392 150.704 196.464 153.352 199.262 156.267C202.058 159.18 203.56 162.335 203.56 165.606Z" fill="#FFDF00" stroke="white"/>
<g filter="url(#filter0_d)">
<line x1="91.6048" y1="0.83574" x2="106.917" y2="44.8582" stroke="black"/>
</g>
<g filter="url(#filter1_d)">
<line x1="180.932" y1="1.1459" x2="169.448" y2="38.7883" stroke="black"/>
</g>
<g filter="url(#filter2_d)">
<line x1="221" y1="68.2182" x2="264.384" y2="38.2319" stroke="black"/>
</g>
<g filter="url(#filter3_d)">
<line x1="239.72" y1="130.659" x2="286.932" y2="124.279" stroke="black"/>
</g>
<g filter="url(#filter4_d)">
<line x1="234.75" y1="182.976" x2="287.067" y2="189.994" stroke="black"/>
</g>
<g filter="url(#filter5_d)">
<line x1="231.784" y1="234.104" x2="267.512" y2="259.624" stroke="black"/>
</g>
<g filter="url(#filter6_d)">
<line x1="20.5688" y1="44.5932" x2="67.1434" y2="72.0276" stroke="black"/>
</g>
<g filter="url(#filter7_d)">
<line x1="5.03371" y1="124.274" x2="52.2463" y2="127.464" stroke="black"/>
</g>
<g filter="url(#filter8_d)">
<line x1="4.93431" y1="189.992" x2="57.8889" y2="182.974" stroke="black"/>
</g>
<g filter="url(#filter9_d)">
<line x1="23.8568" y1="259.621" x2="60.8612" y2="234.101" stroke="black"/>
</g>
<defs>
<filter id="filter0_d" x="87.1326" y="0.671509" width="24.2567" height="52.351" filterUnits="userSpaceOnUse" color-interpolation-filters="sRGB">
<feFlood flood-opacity="0" result="BackgroundImageFix"/>
<feColorMatrix in="SourceAlpha" type="matrix" values="0 0 0 0 0 0 0 0 0 0 0 0 0 0 0 0 0 0 127 0"/>
<feOffset dy="4"/>
<feGaussianBlur stdDeviation="2"/>
<feColorMatrix type="matrix" values="0 0 0 0 0 0 0 0 0 0 0 0 0 0 0 0 0 0 0.25 0"/>
<feBlend mode="normal" in2="BackgroundImageFix" result="effect1_dropShadow"/>
<feBlend mode="normal" in="SourceGraphic" in2="effect1_dropShadow" result="shape"/>
</filter>
<filter id="filter1_d" x="164.97" y="1" width="20.4406" height="45.9342" filterUnits="userSpaceOnUse" color-interpolation-filters="sRGB">
<feFlood flood-opacity="0" result="BackgroundImageFix"/>
<feColorMatrix in="SourceAlpha" type="matrix" values="0 0 0 0 0 0 0 0 0 0 0 0 0 0 0 0 0 0 127 0"/>
<feOffset dy="4"/>
<feGaussianBlur stdDeviation="2"/>
<feColorMatrix type="matrix" values="0 0 0 0 0 0 0 0 0 0 0 0 0 0 0 0 0 0 0.25 0"/>
<feBlend mode="normal" in2="BackgroundImageFix" result="effect1_dropShadow"/>
<feBlend mode="normal" in="SourceGraphic" in2="effect1_dropShadow" result="shape"/>
</filter>
<filter id="filter2_d" x="216.716" y="37.8206" width="51.9531" height="38.809" filterUnits="userSpaceOnUse" color-interpolation-filters="sRGB">
<feFlood flood-opacity="0" result="BackgroundImageFix"/>
<feColorMatrix in="SourceAlpha" type="matrix" values="0 0 0 0 0 0 0 0 0 0 0 0 0 0 0 0 0 0 127 0"/>
<feOffset dy="4"/>
<feGaussianBlur stdDeviation="2"/>
<feColorMatrix type="matrix" values="0 0 0 0 0 0 0 0 0 0 0 0 0 0 0 0 0 0 0.25 0"/>
<feBlend mode="normal" in2="BackgroundImageFix" result="effect1_dropShadow"/>
<feBlend mode="normal" in="SourceGraphic" in2="effect1_dropShadow" result="shape"/>
</filter>
<filter id="filter3_d" x="235.653" y="123.783" width="55.3465" height="15.3711" filterUnits="userSpaceOnUse" color-interpolation-filters="sRGB">
<feFlood flood-opacity="0" result="BackgroundImageFix"/>
<feColorMatrix in="SourceAlpha" type="matrix" values="0 0 0 0 0 0 0 0 0 0 0 0 0 0 0 0 0 0 127 0"/>
<feOffset dy="4"/>
<feGaussianBlur stdDeviation="2"/>
<feColorMatrix type="matrix" values="0 0 0 0 0 0 0 0 0 0 0 0 0 0 0 0 0 0 0.25 0"/>
<feBlend mode="normal" in2="BackgroundImageFix" result="effect1_dropShadow"/>
<feBlend mode="normal" in="SourceGraphic" in2="effect1_dropShadow" result="shape"/>
</filter>
<filter id="filter4_d" x="230.684" y="182.48" width="60.4496" height="16.0092" filterUnits="userSpaceOnUse" color-interpolation-filters="sRGB">
<feFlood flood-opacity="0" result="BackgroundImageFix"/>
<feColorMatrix in="SourceAlpha" type="matrix" values="0 0 0 0 0 0 0 0 0 0 0 0 0 0 0 0 0 0 127 0"/>
<feOffset dy="4"/>
<feGaussianBlur stdDeviation="2"/>
<feColorMatrix type="matrix" values="0 0 0 0 0 0 0 0 0 0 0 0 0 0 0 0 0 0 0.25 0"/>
<feBlend mode="normal" in2="BackgroundImageFix" result="effect1_dropShadow"/>
<feBlend mode="normal" in="SourceGraphic" in2="effect1_dropShadow" result="shape"/>
</filter>
<filter id="filter5_d" x="227.493" y="233.697" width="44.3097" height="34.334" filterUnits="userSpaceOnUse" color-interpolation-filters="sRGB">
<feFlood flood-opacity="0" result="BackgroundImageFix"/>
<feColorMatrix in="SourceAlpha" type="matrix" values="0 0 0 0 0 0 0 0 0 0 0 0 0 0 0 0 0 0 127 0"/>
<feOffset dy="4"/>
<feGaussianBlur stdDeviation="2"/>
<feColorMatrix type="matrix" values="0 0 0 0 0 0 0 0 0 0 0 0 0 0 0 0 0 0 0.25 0"/>
<feBlend mode="normal" in2="BackgroundImageFix" result="effect1_dropShadow"/>
<feBlend mode="normal" in="SourceGraphic" in2="effect1_dropShadow" result="shape"/>
</filter>
<filter id="filter6_d" x="16.3151" y="44.1625" width="55.0821" height="36.296" filterUnits="userSpaceOnUse" color-interpolation-filters="sRGB">
<feFlood flood-opacity="0" result="BackgroundImageFix"/>
<feColorMatrix in="SourceAlpha" type="matrix" values="0 0 0 0 0 0 0 0 0 0 0 0 0 0 0 0 0 0 127 0"/>
<feOffset dy="4"/>
<feGaussianBlur stdDeviation="2"/>
<feColorMatrix type="matrix" values="0 0 0 0 0 0 0 0 0 0 0 0 0 0 0 0 0 0 0.25 0"/>
<feBlend mode="normal" in2="BackgroundImageFix" result="effect1_dropShadow"/>
<feBlend mode="normal" in="SourceGraphic" in2="effect1_dropShadow" result="shape"/>
</filter>
<filter id="filter7_d" x="1" y="123.775" width="55.28" height="12.1878" filterUnits="userSpaceOnUse" color-interpolation-filters="sRGB">
<feFlood flood-opacity="0" result="BackgroundImageFix"/>
<feColorMatrix in="SourceAlpha" type="matrix" values="0 0 0 0 0 0 0 0 0 0 0 0 0 0 0 0 0 0 127 0"/>
<feOffset dy="4"/>
<feGaussianBlur stdDeviation="2"/>
<feColorMatrix type="matrix" values="0 0 0 0 0 0 0 0 0 0 0 0 0 0 0 0 0 0 0.25 0"/>
<feBlend mode="normal" in2="BackgroundImageFix" result="effect1_dropShadow"/>
<feBlend mode="normal" in="SourceGraphic" in2="effect1_dropShadow" result="shape"/>
</filter>
<filter id="filter8_d" x="0.868622" y="182.479" width="61.086" height="16.0094" filterUnits="userSpaceOnUse" color-interpolation-filters="sRGB">
<feFlood flood-opacity="0" result="BackgroundImageFix"/>
<feColorMatrix in="SourceAlpha" type="matrix" values="0 0 0 0 0 0 0 0 0 0 0 0 0 0 0 0 0 0 127 0"/>
<feOffset dy="4"/>
<feGaussianBlur stdDeviation="2"/>
<feColorMatrix type="matrix" values="0 0 0 0 0 0 0 0 0 0 0 0 0 0 0 0 0 0 0.25 0"/>
<feBlend mode="normal" in2="BackgroundImageFix" result="effect1_dropShadow"/>
<feBlend mode="normal" in="SourceGraphic" in2="effect1_dropShadow" result="shape"/>
</filter>
<filter id="filter9_d" x="19.5729" y="233.689" width="45.5722" height="34.3435" filterUnits="userSpaceOnUse" color-interpolation-filters="sRGB">
<feFlood flood-opacity="0" result="BackgroundImageFix"/>
<feColorMatrix in="SourceAlpha" type="matrix" values="0 0 0 0 0 0 0 0 0 0 0 0 0 0 0 0 0 0 127 0"/>
<feOffset dy="4"/>
<feGaussianBlur stdDeviation="2"/>
<feColorMatrix type="matrix" values="0 0 0 0 0 0 0 0 0 0 0 0 0 0 0 0 0 0 0.25 0"/>
<feBlend mode="normal" in2="BackgroundImageFix" result="effect1_dropShadow"/>
<feBlend mode="normal" in="SourceGraphic" in2="effect1_dropShadow" result="shape"/>
</filter>
</defs>
</svg>
