<svg width="529" height="320" viewBox="0 0 529 320" fill="none" xmlns="http://www.w3.org/2000/svg">
<g filter="url(#filter0_d)">
<path d="M515 179.812C515 183.203 514.187 186.352 512.561 189.258C510.935 192.164 508.716 194.626 505.903 196.645C506.343 198.259 506.562 199.753 506.562 201.125C506.562 206.453 504.497 211.014 500.366 214.809C496.235 218.603 491.27 220.5 485.469 220.5C482.393 220.5 479.36 219.854 476.372 218.562C474.087 221.549 471.143 223.911 467.539 225.646C463.936 227.382 460.068 228.25 455.938 228.25C451.279 228.25 446.995 227.16 443.083 224.98C439.172 222.801 436.118 219.854 433.921 216.141C430.581 219.047 426.67 220.5 422.188 220.5C417.529 220.5 413.552 218.986 410.256 215.959C406.96 212.932 405.312 209.279 405.312 205C398.281 205 392.305 202.74 387.383 198.219C382.461 193.698 380 188.208 380 181.75C380 175.292 382.461 169.802 387.383 165.281C392.305 160.76 398.281 158.5 405.312 158.5C408.916 158.5 412.388 159.186 415.728 160.559C417.837 155.392 421.396 151.174 426.406 147.904C431.416 144.635 437.041 143 443.281 143C447.676 143 451.807 143.868 455.674 145.604C459.541 147.339 462.881 149.701 465.693 152.688C466.924 149.781 468.945 147.44 471.758 145.664C474.57 143.888 477.734 143 481.25 143C485.908 143 489.885 144.514 493.181 147.541C496.477 150.568 498.125 154.221 498.125 158.5C498.125 158.581 498.103 158.722 498.059 158.924C498.015 159.126 497.993 159.267 497.993 159.348C503.003 160.639 507.09 163.162 510.254 166.916C513.418 170.67 515 174.969 515 179.812ZM405.312 251.5C407.686 251.5 409.685 252.247 411.311 253.74C412.937 255.234 413.75 257.05 413.75 259.189C413.75 261.329 412.915 263.165 411.245 264.699C409.575 266.233 407.576 267 405.247 267C402.917 267 400.94 266.233 399.314 264.699C397.688 263.165 396.875 261.349 396.875 259.25C396.875 257.151 397.688 255.335 399.314 253.801C400.94 252.267 402.939 251.5 405.312 251.5ZM426.406 228.25C429.922 228.25 432.91 229.38 435.371 231.641C437.832 233.901 439.062 236.646 439.062 239.875C439.062 243.104 437.832 245.849 435.371 248.109C432.91 250.37 429.922 251.5 426.406 251.5C422.891 251.5 419.902 250.37 417.441 248.109C414.98 245.849 413.75 243.104 413.75 239.875C413.75 236.646 414.98 233.901 417.441 231.641C419.902 229.38 422.891 228.25 426.406 228.25Z" fill="white" fill-opacity="0.77"/>
<path d="M505.612 196.238L505.33 196.441L505.421 196.776C505.851 198.357 506.062 199.805 506.062 201.125C506.062 206.305 504.062 210.735 500.028 214.44C495.993 218.147 491.149 220 485.469 220C482.465 220 479.5 219.37 476.57 218.104L476.212 217.949L475.975 218.259C473.741 221.179 470.859 223.492 467.322 225.196C463.789 226.898 459.996 227.75 455.938 227.75C451.361 227.75 447.161 226.68 443.327 224.544C439.49 222.405 436.502 219.52 434.351 215.886L434.046 215.369L433.593 215.763C430.345 218.589 426.551 220 422.188 220C417.649 220 413.794 218.53 410.595 215.591C407.396 212.653 405.812 209.132 405.812 205V204.5H405.312C398.399 204.5 392.546 202.282 387.721 197.851C382.898 193.421 380.5 188.063 380.5 181.75C380.5 175.437 382.898 170.079 387.721 165.649C392.546 161.218 398.399 159 405.312 159C408.851 159 412.258 159.673 415.537 161.021L416.001 161.212L416.19 160.748C418.259 155.682 421.748 151.541 426.68 148.323C431.604 145.109 437.134 143.5 443.281 143.5C447.608 143.5 451.669 144.354 455.469 146.06C459.278 147.769 462.563 150.093 465.329 153.03L465.855 153.588L466.154 152.882C467.342 150.075 469.294 147.812 472.025 146.087C474.753 144.364 477.823 143.5 481.25 143.5C485.789 143.5 489.643 144.97 492.843 147.909C496.041 150.847 497.625 154.368 497.625 158.5V158.5C497.625 158.5 497.625 158.507 497.623 158.523C497.622 158.539 497.619 158.561 497.614 158.59C497.606 158.647 497.591 158.722 497.571 158.817C497.527 159.017 497.493 159.207 497.493 159.348V159.735L497.868 159.832C502.783 161.099 506.778 163.568 509.872 167.238C512.961 170.903 514.5 175.088 514.5 179.812C514.5 183.119 513.708 186.183 512.125 189.014C510.536 191.853 508.367 194.261 505.612 196.238ZM405.312 252C407.571 252 409.446 252.706 410.973 254.108C412.499 255.511 413.25 257.195 413.25 259.189C413.25 261.18 412.481 262.885 410.907 264.331C409.332 265.778 407.454 266.5 405.247 266.5C403.039 266.5 401.186 265.778 399.657 264.336C398.124 262.889 397.375 261.202 397.375 259.25C397.375 257.298 398.124 255.611 399.657 254.164C401.184 252.724 403.058 252 405.312 252ZM426.406 228.75C429.804 228.75 432.669 229.838 435.033 232.009C437.395 234.178 438.562 236.791 438.562 239.875C438.562 242.959 437.395 245.572 435.033 247.741C432.669 249.912 429.804 251 426.406 251C423.009 251 420.143 249.912 417.78 247.741C415.418 245.572 414.25 242.959 414.25 239.875C414.25 236.791 415.418 234.178 417.78 232.009C420.143 229.838 423.009 228.75 426.406 228.75Z" stroke="black"/>
</g>
<g filter="url(#filter1_d)">
<path d="M525 31.6315C525 34.5449 524.301 37.2502 522.904 39.7475C521.507 42.2447 519.6 44.3604 517.184 46.0946C517.561 47.4819 517.75 48.7652 517.75 49.9444C517.75 54.5227 515.975 58.4419 512.426 61.7022C508.876 64.9625 504.609 66.5926 499.625 66.5926C496.982 66.5926 494.376 66.0377 491.809 64.9278C489.845 67.4944 487.315 69.5234 484.219 71.0148C481.122 72.5062 477.799 73.2519 474.25 73.2519C470.247 73.2519 466.566 72.3154 463.205 70.4425C459.844 68.5696 457.22 66.0377 455.332 62.8468C452.462 65.344 449.102 66.5926 445.25 66.5926C441.247 66.5926 437.83 65.292 434.998 62.6907C432.166 60.0894 430.75 56.9505 430.75 53.2741C424.708 53.2741 419.573 51.3318 415.344 47.4472C411.115 43.5627 409 38.8457 409 33.2963C409 27.7469 411.115 23.0299 415.344 19.1454C419.573 15.2608 424.708 13.3185 430.75 13.3185C433.846 13.3185 436.829 13.9081 439.699 15.0874C441.512 10.6479 444.57 7.02344 448.875 4.21406C453.18 1.40469 458.013 0 463.375 0C467.151 0 470.701 0.745698 474.023 2.2371C477.346 3.72849 480.216 5.75748 482.633 8.32407C483.69 5.82685 485.427 3.8152 487.844 2.28912C490.26 0.76304 492.979 0 496 0C500.003 0 503.42 1.30064 506.252 3.90191C509.084 6.50318 510.5 9.64205 510.5 13.3185C510.5 13.3879 510.481 13.5093 510.443 13.6827C510.406 13.8561 510.387 13.9775 510.387 14.0469C514.691 15.1568 518.203 17.3245 520.922 20.5501C523.641 23.7756 525 27.4694 525 31.6315ZM430.75 93.2296C432.789 93.2296 434.507 93.8713 435.904 95.1546C437.301 96.4379 438 97.9986 438 99.8369C438 101.675 437.283 103.253 435.848 104.571C434.413 105.889 432.695 106.548 430.693 106.548C428.692 106.548 426.993 105.889 425.596 104.571C424.199 103.253 423.5 101.692 423.5 99.8889C423.5 98.0853 424.199 96.5246 425.596 95.2066C426.993 93.8886 428.711 93.2296 430.75 93.2296ZM448.875 73.2519C451.896 73.2519 454.464 74.223 456.578 76.1653C458.693 78.1076 459.75 80.4661 459.75 83.2407C459.75 86.0154 458.693 88.3739 456.578 90.3162C454.464 92.2585 451.896 93.2296 448.875 93.2296C445.854 93.2296 443.286 92.2585 441.172 90.3162C439.057 88.3739 438 86.0154 438 83.2407C438 80.4661 439.057 78.1076 441.172 76.1653C443.286 74.223 445.854 73.2519 448.875 73.2519Z" fill="white" fill-opacity="0.77"/>
<path d="M516.892 45.6883L516.61 45.8908L516.701 46.2259C517.07 47.5794 517.25 48.818 517.25 49.9444C517.25 54.3746 515.54 58.1628 512.088 61.334C508.634 64.5063 504.489 66.0926 499.625 66.0926C497.054 66.0926 494.516 65.5532 492.007 64.4688L491.649 64.3139L491.411 64.624C489.499 67.1243 487.032 69.1047 484.002 70.5643C480.975 72.022 477.727 72.7519 474.25 72.7519C470.329 72.7519 466.732 71.8355 463.448 70.0057C460.162 68.1742 457.604 65.7039 455.762 62.5922L455.457 62.0755L455.004 62.4696C452.226 64.8865 448.983 66.0926 445.25 66.0926C441.367 66.0926 438.072 64.8352 435.336 62.3224C432.602 59.811 431.25 56.8035 431.25 53.2741V52.7741H430.75C424.826 52.7741 419.814 50.8741 415.682 47.079C411.552 43.2854 409.5 38.7003 409.5 33.2963C409.5 27.8923 411.552 23.3072 415.682 19.5136C419.814 15.7185 424.826 13.8185 430.75 13.8185C433.781 13.8185 436.7 14.3953 439.509 15.5499L439.973 15.7403L440.162 15.2764C441.933 10.9378 444.922 7.39083 449.148 4.63278C453.368 1.87881 458.106 0.5 463.375 0.5C467.083 0.5 470.563 1.23183 473.819 2.69326C477.084 4.15862 479.899 6.14976 482.269 8.66684L482.794 9.225L483.093 8.51902C484.109 6.12091 485.775 4.18664 488.111 2.71188C490.443 1.23918 493.068 0.5 496 0.5C499.883 0.5 503.178 1.75735 505.914 4.27015C508.648 6.78164 510 9.78913 510 13.3185C510 13.3179 510 13.318 510 13.3189C510 13.323 509.998 13.3428 509.992 13.3847C509.984 13.4323 509.972 13.4955 509.955 13.5763C509.918 13.7471 509.887 13.9171 509.887 14.0469V14.4343L510.262 14.531C514.472 15.6165 517.891 17.7305 520.54 20.8723C523.183 24.009 524.5 27.5891 524.5 31.6315C524.5 34.4611 523.823 37.0821 522.468 39.5033C521.108 41.934 519.252 43.9952 516.892 45.6883ZM430.75 93.7296C432.674 93.7296 434.268 94.3309 435.566 95.5228C436.864 96.7149 437.5 98.1436 437.5 99.8369C437.5 101.526 436.848 102.973 435.509 104.203C434.17 105.434 432.573 106.048 430.693 106.048C428.814 106.048 427.239 105.434 425.939 104.207C424.635 102.977 424 101.545 424 99.8889C424 98.2327 424.635 96.8007 425.939 95.5703C427.237 94.3456 428.83 93.7296 430.75 93.7296ZM448.875 73.7519C451.778 73.7519 454.223 74.6807 456.24 76.5335C458.255 78.3848 459.25 80.6115 459.25 83.2407C459.25 85.87 458.255 88.0966 456.24 89.948C454.223 91.8008 451.778 92.7296 448.875 92.7296C445.972 92.7296 443.527 91.8008 441.51 89.948C439.495 88.0966 438.5 85.87 438.5 83.2407C438.5 80.6115 439.495 78.3848 441.51 76.5335C443.527 74.6807 445.972 73.7519 448.875 73.7519Z" stroke="black"/>
</g>
<g filter="url(#filter2_d)">
<path d="M151 142.085C151 145.777 150.115 149.205 148.344 152.37C146.574 155.534 144.157 158.215 141.095 160.413C141.573 162.171 141.812 163.797 141.812 165.292C141.812 171.093 139.563 176.06 135.065 180.192C130.567 184.323 125.16 186.389 118.844 186.389C115.494 186.389 112.192 185.686 108.938 184.279C106.45 187.532 103.244 190.103 99.3203 191.993C95.3965 193.883 91.1855 194.828 86.6875 194.828C81.6152 194.828 76.9497 193.641 72.6909 191.268C68.4321 188.894 65.1064 185.686 62.7139 181.642C59.0771 184.807 54.8184 186.389 49.9375 186.389C44.8652 186.389 40.5347 184.741 36.9458 181.444C33.3569 178.148 31.5625 174.17 31.5625 169.511C23.9062 169.511 17.3984 167.05 12.0391 162.127C6.67969 157.204 4 151.227 4 144.194C4 137.162 6.67969 131.184 12.0391 126.262C17.3984 121.339 23.9062 118.878 31.5625 118.878C35.4863 118.878 39.2666 119.625 42.9033 121.119C45.2002 115.493 49.0762 110.9 54.5312 107.34C59.9863 103.78 66.1113 102 72.9062 102C77.6914 102 82.1895 102.945 86.4004 104.835C90.6113 106.725 94.248 109.296 97.3105 112.549C98.6504 109.384 100.852 106.835 103.914 104.901C106.977 102.967 110.422 102 114.25 102C119.322 102 123.653 103.648 127.242 106.945C130.831 110.241 132.625 114.219 132.625 118.878C132.625 118.966 132.601 119.12 132.553 119.339C132.505 119.559 132.481 119.713 132.481 119.801C137.937 121.207 142.387 123.954 145.832 128.042C149.277 132.129 151 136.81 151 142.085ZM31.5625 220.144C34.1465 220.144 36.3237 220.958 38.0942 222.584C39.8647 224.21 40.75 226.188 40.75 228.517C40.75 230.847 39.8408 232.847 38.0225 234.517C36.2041 236.187 34.0269 237.022 31.4907 237.022C28.9546 237.022 26.8013 236.187 25.0308 234.517C23.2603 232.847 22.375 230.869 22.375 228.583C22.375 226.298 23.2603 224.32 25.0308 222.65C26.8013 220.98 28.9785 220.144 31.5625 220.144ZM54.5312 194.828C58.3594 194.828 61.6133 196.058 64.293 198.52C66.9727 200.981 68.3125 203.97 68.3125 207.486C68.3125 211.002 66.9727 213.991 64.293 216.452C61.6133 218.914 58.3594 220.144 54.5312 220.144C50.7031 220.144 47.4492 218.914 44.7695 216.452C42.0898 213.991 40.75 211.002 40.75 207.486C40.75 203.97 42.0898 200.981 44.7695 198.52C47.4492 196.058 50.7031 194.828 54.5312 194.828Z" fill="white" fill-opacity="0.77"/>
<path d="M140.803 160.007L140.521 160.209L140.612 160.544C141.082 162.269 141.312 163.85 141.312 165.292C141.312 170.945 139.128 175.781 134.727 179.823C130.325 183.867 125.04 185.889 118.844 185.889C115.566 185.889 112.332 185.201 109.137 183.82L108.779 183.665L108.541 183.975C106.104 187.162 102.961 189.684 99.1033 191.542C95.2494 193.399 91.113 194.328 86.6875 194.328C81.6969 194.328 77.1156 193.161 72.9343 190.831C68.7498 188.499 65.4899 185.352 63.1442 181.387L62.8385 180.871L62.3856 181.265C58.8412 184.349 54.6994 185.889 49.9375 185.889C44.9849 185.889 40.7766 184.284 37.284 181.076C33.7929 177.869 32.0625 174.023 32.0625 169.511V169.011H31.5625C24.0244 169.011 17.6393 166.592 12.3773 161.759C7.11695 156.927 4.5 151.081 4.5 144.194C4.5 137.307 7.11695 131.462 12.3773 126.63C17.6393 121.797 24.0244 119.378 31.5625 119.378C35.421 119.378 39.1367 120.112 42.7133 121.582L43.1768 121.772L43.3662 121.308C45.6219 115.783 49.4281 111.268 54.8045 107.759C60.1747 104.254 66.204 102.5 72.9062 102.5C77.6235 102.5 82.0515 103.431 86.1957 105.291C90.3486 107.155 93.9306 109.688 96.9465 112.891L97.4721 113.45L97.771 112.744C99.0689 109.678 101.2 107.206 104.181 105.324C107.159 103.443 110.511 102.5 114.25 102.5C119.203 102.5 123.411 104.105 126.903 107.313C130.395 110.52 132.125 114.366 132.125 118.878C132.125 118.878 132.125 118.88 132.125 118.885C132.124 118.89 132.124 118.898 132.123 118.907C132.121 118.926 132.118 118.951 132.113 118.982C132.103 119.046 132.087 119.129 132.065 119.233C132.017 119.45 131.981 119.652 131.981 119.801V120.188L132.357 120.285C137.717 121.667 142.075 124.36 145.45 128.364C148.82 132.363 150.5 136.93 150.5 142.085C150.5 145.693 149.636 149.037 147.908 152.125C146.175 155.224 143.809 157.85 140.803 160.007ZM31.5625 220.644C34.0315 220.644 36.085 221.417 37.756 222.952C39.4272 224.487 40.25 226.333 40.25 228.517C40.25 230.698 39.4064 232.567 37.6842 234.149C35.9609 235.732 33.9053 236.522 31.4907 236.522C29.0762 236.522 27.0474 235.732 25.3739 234.153C23.6962 232.571 22.875 230.721 22.875 228.583C22.875 226.445 23.6962 224.596 25.3739 223.013C27.0455 221.437 29.0974 220.644 31.5625 220.644ZM54.5312 195.328C58.2413 195.328 61.3725 196.516 63.9547 198.888C66.5354 201.258 67.8125 204.115 67.8125 207.486C67.8125 210.857 66.5354 213.714 63.9547 216.084C61.3725 218.456 58.2413 219.644 54.5312 219.644C50.8212 219.644 47.69 218.456 45.1078 216.084C42.5271 213.714 41.25 210.857 41.25 207.486C41.25 204.115 42.5271 201.258 45.1078 198.888C47.69 196.516 50.8212 195.328 54.5312 195.328Z" stroke="black"/>
</g>
<g filter="url(#filter3_d)">
<path d="M407 87.7004C407 94.1202 405.416 100.081 402.249 105.584C399.081 111.087 394.757 115.749 389.278 119.57C390.134 122.627 390.562 125.455 390.562 128.053C390.562 138.141 386.539 146.778 378.491 153.962C370.444 161.146 360.77 164.738 349.469 164.738C343.476 164.738 337.569 163.515 331.747 161.069C327.295 166.725 321.559 171.196 314.539 174.482C307.519 177.768 299.985 179.411 291.938 179.411C282.863 179.411 274.515 177.348 266.896 173.221C259.277 169.094 253.327 163.515 249.046 156.484C242.539 161.986 234.92 164.738 226.188 164.738C217.113 164.738 209.365 161.872 202.944 156.14C196.523 150.408 193.313 143.491 193.313 135.39C179.615 135.39 167.971 131.11 158.383 122.551C148.794 113.991 144 103.597 144 91.3688C144 79.1407 148.794 68.7468 158.383 60.1871C167.971 51.6274 179.615 47.3475 193.313 47.3475C200.333 47.3475 207.096 48.6468 213.603 51.2453C217.712 41.4627 224.646 33.4762 234.406 27.2857C244.166 21.0952 255.124 18 267.281 18C275.842 18 283.89 19.6432 291.424 22.9295C298.958 26.2158 305.464 30.6867 310.943 36.3422C313.341 30.8395 317.279 26.4068 322.758 23.0441C328.237 19.6814 334.401 18 341.25 18C350.325 18 358.073 20.866 364.494 26.5979C370.915 32.3299 374.125 39.2464 374.125 47.3475C374.125 47.5004 374.082 47.7679 373.997 48.15C373.911 48.5321 373.868 48.7996 373.868 48.9525C383.628 51.3981 391.59 56.1747 397.754 63.2823C403.918 70.3899 407 78.5293 407 87.7004ZM307.6 235.55C312.224 235.55 316.119 236.964 319.286 239.792C322.454 242.62 324.038 246.059 324.038 250.11C324.038 254.16 322.411 257.638 319.158 260.542C315.905 263.446 312.009 264.898 307.472 264.898C302.935 264.898 299.082 263.446 295.914 260.542C292.747 257.638 291.163 254.198 291.163 250.224C291.163 246.25 292.747 242.811 295.914 239.907C299.082 237.003 302.977 235.55 307.6 235.55ZM268.83 186.985C275.679 186.985 281.501 189.125 286.295 193.405C291.089 197.685 293.487 202.882 293.487 208.996C293.487 215.11 291.089 220.307 286.295 224.587C281.501 228.866 275.679 231.006 268.83 231.006C261.981 231.006 256.16 228.866 251.365 224.587C246.571 220.307 244.174 215.11 244.174 208.996C244.174 202.882 246.571 197.685 251.365 193.405C256.16 189.125 261.981 186.985 268.83 186.985Z" fill="white"/>
<path d="M388.992 119.16L388.701 119.363L388.797 119.705C389.643 122.727 390.062 125.509 390.062 128.053C390.062 137.988 386.108 146.492 378.158 153.589C370.207 160.687 360.653 164.238 349.469 164.238C343.546 164.238 337.704 163.03 331.941 160.608L331.59 160.461L331.354 160.76C326.954 166.35 321.282 170.773 314.327 174.029C307.376 177.283 299.915 178.911 291.938 178.911C282.942 178.911 274.677 176.867 267.134 172.781C259.588 168.694 253.705 163.175 249.473 156.224L249.169 155.725L248.723 156.102C242.309 161.526 234.805 164.238 226.188 164.238C217.228 164.238 209.601 161.412 203.277 155.767C196.955 150.123 193.813 143.339 193.813 135.39V134.89H193.313C179.729 134.89 168.206 130.65 158.716 122.178C149.227 113.707 144.5 103.446 144.5 91.3688C144.5 79.2912 149.227 69.0304 158.716 60.5601C168.206 52.0878 179.729 47.8475 193.313 47.8475C200.269 47.8475 206.97 49.1347 213.417 51.7096L213.873 51.8918L214.064 51.4389C218.13 41.759 224.992 33.8489 234.674 27.708C244.35 21.571 255.214 18.5 267.281 18.5C275.777 18.5 283.756 20.1301 291.224 23.3878C298.701 26.6492 305.152 31.0835 310.584 36.6901L311.104 37.2262L311.402 36.5419C313.755 31.1399 317.621 26.7835 323.019 23.4703C328.415 20.159 334.487 18.5 341.25 18.5C350.209 18.5 357.837 21.3255 364.161 26.9709C370.483 32.6147 373.625 39.3986 373.625 47.3475C373.625 47.4382 373.595 47.6558 373.509 48.0407C373.424 48.42 373.368 48.7375 373.368 48.9525V49.3426L373.747 49.4375C383.414 51.86 391.284 56.5853 397.376 63.6099C403.464 70.6292 406.5 78.653 406.5 87.7004C406.5 94.0336 404.939 99.9087 401.815 105.335C398.686 110.77 394.414 115.378 388.992 119.16ZM307.6 236.05C312.112 236.05 315.886 237.427 318.954 240.165C322.021 242.903 323.538 246.209 323.538 250.11C323.538 254.006 321.981 257.351 318.825 260.169C315.667 262.988 311.892 264.398 307.472 264.398C303.052 264.398 299.322 262.988 296.252 260.173C293.179 257.355 291.663 254.046 291.663 250.224C291.663 246.402 293.179 243.093 296.252 240.275C299.32 237.462 303.092 236.05 307.6 236.05ZM268.83 187.485C275.565 187.485 281.266 189.585 285.962 193.778C290.656 197.968 292.987 203.032 292.987 208.996C292.987 214.959 290.656 220.023 285.962 224.214C281.266 228.406 275.565 230.506 268.83 230.506C262.095 230.506 256.395 228.406 251.698 224.214C247.004 220.023 244.674 214.959 244.674 208.996C244.674 203.032 247.004 197.968 251.698 193.778C256.395 189.585 262.095 187.485 268.83 187.485Z" stroke="black"/>
</g>
<g filter="url(#filter4_d)">
<path d="M206 240.688C206 243.422 205.398 245.961 204.193 248.305C202.989 250.648 201.345 252.634 199.262 254.262C199.587 255.564 199.75 256.768 199.75 257.875C199.75 262.172 198.22 265.85 195.16 268.91C192.1 271.97 188.422 273.5 184.125 273.5C181.846 273.5 179.6 272.979 177.387 271.938C175.694 274.346 173.513 276.251 170.844 277.65C168.174 279.05 165.31 279.75 162.25 279.75C158.799 279.75 155.626 278.871 152.729 277.113C149.831 275.355 147.569 272.979 145.941 269.984C143.467 272.328 140.57 273.5 137.25 273.5C133.799 273.5 130.854 272.279 128.412 269.838C125.971 267.396 124.75 264.451 124.75 261C119.542 261 115.115 259.177 111.469 255.531C107.823 251.885 106 247.458 106 242.25C106 237.042 107.823 232.615 111.469 228.969C115.115 225.323 119.542 223.5 124.75 223.5C127.419 223.5 129.991 224.053 132.465 225.16C134.027 220.993 136.664 217.592 140.375 214.955C144.086 212.318 148.253 211 152.875 211C156.13 211 159.19 211.7 162.055 213.1C164.919 214.499 167.393 216.404 169.477 218.812C170.388 216.469 171.885 214.581 173.969 213.148C176.052 211.716 178.396 211 181 211C184.451 211 187.396 212.221 189.838 214.662C192.279 217.104 193.5 220.049 193.5 223.5C193.5 223.565 193.484 223.679 193.451 223.842C193.419 224.005 193.402 224.118 193.402 224.184C197.113 225.225 200.141 227.26 202.484 230.287C204.828 233.314 206 236.781 206 240.688ZM155.75 299.5C157.508 299.5 158.989 300.102 160.193 301.307C161.398 302.511 162 303.976 162 305.701C162 307.426 161.382 308.908 160.145 310.145C158.908 311.382 157.426 312 155.701 312C153.976 312 152.511 311.382 151.307 310.145C150.102 308.908 149.5 307.443 149.5 305.75C149.5 304.057 150.102 302.592 151.307 301.355C152.511 300.118 153.992 299.5 155.75 299.5ZM140.375 279.75C142.979 279.75 145.193 280.661 147.016 282.484C148.839 284.307 149.75 286.521 149.75 289.125C149.75 291.729 148.839 293.943 147.016 295.766C145.193 297.589 142.979 298.5 140.375 298.5C137.771 298.5 135.557 297.589 133.734 295.766C131.911 293.943 131 291.729 131 289.125C131 286.521 131.911 284.307 133.734 282.484C135.557 280.661 137.771 279.75 140.375 279.75Z" fill="white" fill-opacity="0.77"/>
<path d="M198.954 253.868L198.698 254.068L198.777 254.383C199.094 255.653 199.25 256.817 199.25 257.875C199.25 262.038 197.773 265.59 194.807 268.557C191.84 271.523 188.288 273 184.125 273C181.925 273 179.752 272.498 177.6 271.485L177.219 271.306L176.978 271.65C175.332 273.992 173.212 275.844 170.612 277.208C168.015 278.569 165.23 279.25 162.25 279.25C158.889 279.25 155.805 278.395 152.988 276.686C150.167 274.974 147.966 272.663 146.381 269.746L146.07 269.174L145.598 269.621C143.214 271.88 140.439 273 137.25 273C133.932 273 131.113 271.832 128.766 269.484C126.418 267.137 125.25 264.318 125.25 261V260.5H124.75C119.673 260.5 115.373 258.729 111.822 255.178C108.271 251.627 106.5 247.327 106.5 242.25C106.5 237.173 108.271 232.873 111.822 229.322C115.373 225.771 119.673 224 124.75 224C127.348 224 129.85 224.538 132.261 225.617L132.746 225.834L132.933 225.336C134.46 221.265 137.033 217.943 140.665 215.363C144.29 212.787 148.355 211.5 152.875 211.5C156.056 211.5 159.04 212.183 161.835 213.549C164.639 214.919 167.059 216.782 169.098 219.14L169.642 219.768L169.943 218.994C170.817 216.744 172.251 214.936 174.252 213.56C176.249 212.187 178.494 211.5 181 211.5C184.318 211.5 187.137 212.668 189.484 215.016C191.832 217.363 193 220.182 193 223.5C193 223.5 193 223.5 193 223.5C193 223.504 192.999 223.523 192.993 223.564C192.986 223.608 192.976 223.668 192.961 223.744C192.929 223.904 192.902 224.063 192.902 224.184V224.563L193.267 224.665C196.876 225.678 199.811 227.651 202.089 230.593C204.363 233.531 205.5 236.89 205.5 240.688C205.5 243.345 204.915 245.806 203.749 248.076C202.577 250.355 200.98 252.285 198.954 253.868ZM155.75 300C157.38 300 158.732 300.553 159.84 301.66C160.949 302.77 161.5 304.107 161.5 305.701C161.5 307.292 160.936 308.646 159.791 309.791C158.646 310.936 157.292 311.5 155.701 311.5C154.111 311.5 152.775 310.936 151.665 309.796C150.549 308.65 150 307.31 150 305.75C150 304.19 150.549 302.85 151.665 301.704C152.773 300.566 154.124 300 155.75 300ZM140.375 280.25C142.848 280.25 144.934 281.11 146.662 282.838C148.39 284.566 149.25 286.652 149.25 289.125C149.25 291.598 148.39 293.684 146.662 295.412C144.934 297.14 142.848 298 140.375 298C137.902 298 135.816 297.14 134.088 295.412C132.36 293.684 131.5 291.598 131.5 289.125C131.5 286.652 132.36 284.566 134.088 282.838C135.816 281.11 137.902 280.25 140.375 280.25Z" stroke="black"/>
</g>
<path d="M438.373 180.912C438.373 180.587 438.52 180.326 438.812 180.131C439.138 179.903 439.496 179.789 439.887 179.789C440.245 179.789 440.554 179.903 440.814 180.131C441.107 180.326 441.27 180.652 441.303 181.107C441.01 183.549 440.684 185.99 440.326 188.432C440.001 190.873 439.675 193.217 439.35 195.463C439.252 195.919 439.057 196.26 438.764 196.488C438.471 196.749 438.178 196.879 437.885 196.879C437.592 196.879 437.315 196.781 437.055 196.586C436.794 196.423 436.615 196.114 436.518 195.658C435.476 194.584 434.418 193.461 433.344 192.289C432.27 191.085 431.277 189.799 430.365 188.432C430.268 188.334 430.17 188.236 430.072 188.139C429.975 188.041 429.861 187.992 429.73 187.992C429.6 187.992 429.307 188.204 428.852 188.627C428.428 189.018 427.891 189.555 427.24 190.238C426.622 190.889 425.922 191.622 425.141 192.436C424.392 193.217 423.627 193.998 422.846 194.779C422.585 195.04 422.276 195.284 421.918 195.512C421.592 195.707 421.267 195.805 420.941 195.805C420.681 195.805 420.453 195.561 420.258 195.072C420.062 194.551 419.883 193.884 419.721 193.07C419.558 192.257 419.411 191.329 419.281 190.287C419.151 189.245 419.037 188.188 418.939 187.113C418.842 186.039 418.76 185.014 418.695 184.037C418.63 183.028 418.581 182.149 418.549 181.4C418.549 180.945 418.679 180.587 418.939 180.326C419.232 180.033 419.558 179.887 419.916 179.887C420.274 179.887 420.6 180.001 420.893 180.229C421.218 180.456 421.413 180.814 421.479 181.303C421.576 182.963 421.706 184.704 421.869 186.527C422.064 188.35 422.26 189.962 422.455 191.361L427.631 185.795C428.314 185.046 429.047 184.672 429.828 184.672C430.186 184.672 430.544 184.77 430.902 184.965C431.26 185.128 431.57 185.404 431.83 185.795C432.579 186.934 433.376 188.09 434.223 189.262C435.102 190.401 435.997 191.459 436.908 192.436C437.038 191.654 437.169 190.775 437.299 189.799C437.462 188.822 437.608 187.813 437.738 186.771C437.868 185.697 437.982 184.656 438.08 183.646C438.21 182.637 438.308 181.726 438.373 180.912ZM449.896 181.205C450.32 180.912 450.938 180.717 451.752 180.619C452.598 180.489 453.477 180.424 454.389 180.424C456.277 180.424 457.66 180.993 458.539 182.133C459.418 183.24 459.857 185.079 459.857 187.65C459.857 188.985 459.792 190.238 459.662 191.41C459.532 192.549 459.353 193.559 459.125 194.438C458.93 195.284 458.669 195.951 458.344 196.439C458.018 196.928 457.66 197.172 457.27 197.172C456.944 197.172 456.667 197.042 456.439 196.781C456.212 196.521 456.098 196.163 456.098 195.707C456.098 195.121 456.146 194.503 456.244 193.852C456.342 193.201 456.456 192.517 456.586 191.801C456.716 191.085 456.83 190.368 456.928 189.652C457.025 188.904 457.074 188.188 457.074 187.504C457.074 186.169 456.846 185.128 456.391 184.379C455.967 183.598 455.105 183.207 453.803 183.207C453.152 183.207 452.517 183.321 451.898 183.549C451.28 183.777 450.71 183.891 450.189 183.891C449.864 183.891 449.604 183.76 449.408 183.5C449.213 183.24 449.115 182.947 449.115 182.621C449.115 182.361 449.164 182.1 449.262 181.84C449.392 181.579 449.604 181.368 449.896 181.205ZM448.432 172.807C448.269 174.076 448.139 175.574 448.041 177.299C447.976 179.024 447.943 180.831 447.943 182.719C447.943 184.607 448.008 186.495 448.139 188.383C448.269 190.238 448.334 191.898 448.334 193.363C448.334 193.982 448.188 194.47 447.895 194.828C447.602 195.186 447.243 195.365 446.82 195.365C446.332 195.365 445.958 194.926 445.697 194.047C445.469 193.168 445.307 192.094 445.209 190.824C445.111 189.555 445.062 188.22 445.062 186.82C445.062 185.388 445.062 184.135 445.062 183.061C445.062 181.173 445.095 179.317 445.16 177.494C445.225 175.671 445.339 173.979 445.502 172.416C445.535 171.83 445.714 171.423 446.039 171.195C446.397 170.967 446.755 170.854 447.113 170.854C447.471 170.854 447.781 171.016 448.041 171.342C448.301 171.635 448.432 172.025 448.432 172.514V172.807ZM468.549 180.229C468.939 180.066 469.232 179.984 469.428 179.984C469.688 179.984 469.949 180.066 470.209 180.229C470.437 180.196 470.681 180.163 470.941 180.131C471.234 180.066 471.479 180.033 471.674 180.033C472.748 180.033 473.725 180.261 474.604 180.717C475.482 181.14 476.231 181.726 476.85 182.475C477.501 183.223 478.005 184.102 478.363 185.111C478.721 186.12 478.9 187.195 478.9 188.334C478.9 189.343 478.705 190.32 478.314 191.264C477.956 192.175 477.436 192.989 476.752 193.705C476.101 194.421 475.336 194.991 474.457 195.414C473.578 195.837 472.65 196.049 471.674 196.049C470.469 196.049 469.363 195.854 468.354 195.463C467.344 195.072 466.482 194.535 465.766 193.852C465.049 193.168 464.48 192.354 464.057 191.41C463.666 190.466 463.471 189.441 463.471 188.334C463.471 187.455 463.568 186.56 463.764 185.648C463.959 184.704 464.268 183.842 464.691 183.061C465.115 182.279 465.635 181.628 466.254 181.107C466.905 180.587 467.67 180.294 468.549 180.229ZM469.135 182.768C468.451 182.865 467.93 183.126 467.572 183.549C467.214 183.939 466.938 184.411 466.742 184.965C466.579 185.518 466.482 186.104 466.449 186.723C466.417 187.309 466.4 187.846 466.4 188.334C466.4 188.92 466.498 189.522 466.693 190.141C466.889 190.727 467.198 191.264 467.621 191.752C468.077 192.208 468.63 192.582 469.281 192.875C469.932 193.168 470.73 193.314 471.674 193.314C472.39 193.314 473.025 193.184 473.578 192.924C474.164 192.631 474.636 192.257 474.994 191.801C475.385 191.312 475.678 190.775 475.873 190.189C476.068 189.604 476.166 188.985 476.166 188.334C476.166 186.641 475.759 185.258 474.945 184.184C474.132 183.077 473.041 182.475 471.674 182.377H470.746C470.486 182.377 470.209 182.442 469.916 182.572C469.623 182.702 469.363 182.768 469.135 182.768ZM488.861 176.908C489.122 176.452 489.35 175.964 489.545 175.443C489.773 174.923 489.887 174.434 489.887 173.979C489.887 173.523 489.74 173.165 489.447 172.904C489.187 172.644 488.731 172.514 488.08 172.514C487.722 172.514 487.348 172.562 486.957 172.66C486.599 172.725 486.241 172.807 485.883 172.904C485.557 173.002 485.248 173.1 484.955 173.197C484.695 173.262 484.483 173.295 484.32 173.295C483.962 173.295 483.702 173.132 483.539 172.807C483.376 172.481 483.295 172.172 483.295 171.879C483.295 171.456 483.458 171.114 483.783 170.854C484.109 170.561 484.516 170.333 485.004 170.17C485.525 170.007 486.078 169.893 486.664 169.828C487.283 169.73 487.885 169.682 488.471 169.682C489.74 169.682 490.798 170.072 491.645 170.854C492.523 171.602 492.963 172.579 492.963 173.783C492.963 174.727 492.768 175.59 492.377 176.371C492.019 177.12 491.628 177.852 491.205 178.568C490.684 179.48 490.212 180.326 489.789 181.107C489.398 181.856 489.057 182.621 488.764 183.402C488.471 184.151 488.227 184.949 488.031 185.795C487.836 186.609 487.689 187.553 487.592 188.627C487.592 189.799 487.527 190.564 487.396 190.922C487.266 191.28 486.892 191.459 486.273 191.459C485.948 191.459 485.688 191.361 485.492 191.166C485.297 190.971 485.134 190.727 485.004 190.434C484.906 190.108 484.841 189.766 484.809 189.408C484.776 189.05 484.76 188.708 484.76 188.383C484.76 187.243 484.874 186.169 485.102 185.16C485.329 184.151 485.639 183.174 486.029 182.23C486.42 181.286 486.859 180.375 487.348 179.496C487.836 178.617 488.34 177.755 488.861 176.908ZM485.736 193.021C485.932 192.956 486.078 192.924 486.176 192.924C486.339 192.924 486.469 192.94 486.566 192.973C486.664 193.005 486.745 193.021 486.811 193.021C486.941 193.021 487.055 193.021 487.152 193.021C487.283 192.989 487.396 192.973 487.494 192.973C488.21 192.973 488.812 193.103 489.301 193.363C489.789 193.591 490.18 193.9 490.473 194.291C490.766 194.649 490.977 195.072 491.107 195.561C491.238 196.016 491.303 196.472 491.303 196.928C491.303 197.416 491.205 197.888 491.01 198.344C490.847 198.832 490.603 199.255 490.277 199.613C489.984 200.004 489.61 200.313 489.154 200.541C488.699 200.801 488.21 200.932 487.689 200.932C487.136 200.932 486.583 200.834 486.029 200.639C485.508 200.443 485.036 200.15 484.613 199.76C484.223 199.402 483.897 198.946 483.637 198.393C483.376 197.839 483.246 197.221 483.246 196.537C483.246 195.723 483.474 194.991 483.93 194.34C484.418 193.656 485.02 193.217 485.736 193.021ZM486.908 195.561H486.42C486.257 195.723 486.127 195.935 486.029 196.195C485.964 196.456 485.932 196.7 485.932 196.928C485.932 197.383 486.094 197.709 486.42 197.904C486.778 198.1 487.136 198.197 487.494 198.197C487.917 198.197 488.243 198.067 488.471 197.807C488.731 197.579 488.861 197.286 488.861 196.928C488.861 196.505 488.747 196.163 488.52 195.902C488.292 195.609 487.885 195.463 487.299 195.463C487.104 195.463 486.973 195.495 486.908 195.561Z" fill="black"/>
<path d="M455.859 31.9297C455.859 31.6693 455.977 31.4609 456.211 31.3047C456.471 31.1224 456.758 31.0312 457.07 31.0312C457.357 31.0312 457.604 31.1224 457.812 31.3047C458.047 31.4609 458.177 31.7214 458.203 32.0859C457.969 34.0391 457.708 35.9922 457.422 37.9453C457.161 39.8984 456.901 41.7734 456.641 43.5703C456.562 43.9349 456.406 44.2083 456.172 44.3906C455.938 44.599 455.703 44.7031 455.469 44.7031C455.234 44.7031 455.013 44.625 454.805 44.4688C454.596 44.3385 454.453 44.0911 454.375 43.7266C453.542 42.8672 452.695 41.9688 451.836 41.0312C450.977 40.0677 450.182 39.0391 449.453 37.9453C449.375 37.8672 449.297 37.7891 449.219 37.7109C449.141 37.6328 449.049 37.5938 448.945 37.5938C448.841 37.5938 448.607 37.763 448.242 38.1016C447.904 38.4141 447.474 38.8438 446.953 39.3906C446.458 39.9115 445.898 40.4974 445.273 41.1484C444.674 41.7734 444.062 42.3984 443.438 43.0234C443.229 43.2318 442.982 43.4271 442.695 43.6094C442.435 43.7656 442.174 43.8438 441.914 43.8438C441.706 43.8438 441.523 43.6484 441.367 43.2578C441.211 42.8411 441.068 42.3073 440.938 41.6562C440.807 41.0052 440.69 40.263 440.586 39.4297C440.482 38.5964 440.391 37.75 440.312 36.8906C440.234 36.0312 440.169 35.2109 440.117 34.4297C440.065 33.6224 440.026 32.9193 440 32.3203C440 31.9557 440.104 31.6693 440.312 31.4609C440.547 31.2266 440.807 31.1094 441.094 31.1094C441.38 31.1094 441.641 31.2005 441.875 31.3828C442.135 31.5651 442.292 31.8516 442.344 32.2422C442.422 33.5703 442.526 34.9635 442.656 36.4219C442.812 37.8802 442.969 39.1693 443.125 40.2891L447.266 35.8359C447.812 35.237 448.398 34.9375 449.023 34.9375C449.31 34.9375 449.596 35.0156 449.883 35.1719C450.169 35.3021 450.417 35.5234 450.625 35.8359C451.224 36.7474 451.862 37.6719 452.539 38.6094C453.242 39.5208 453.958 40.3672 454.688 41.1484C454.792 40.5234 454.896 39.8203 455 39.0391C455.13 38.2578 455.247 37.4505 455.352 36.6172C455.456 35.7578 455.547 34.9245 455.625 34.1172C455.729 33.3099 455.807 32.5807 455.859 31.9297ZM465.078 32.1641C465.417 31.9297 465.911 31.7734 466.562 31.6953C467.24 31.5911 467.943 31.5391 468.672 31.5391C470.182 31.5391 471.289 31.9948 471.992 32.9062C472.695 33.7917 473.047 35.263 473.047 37.3203C473.047 38.388 472.995 39.3906 472.891 40.3281C472.786 41.2396 472.643 42.0469 472.461 42.75C472.305 43.4271 472.096 43.9609 471.836 44.3516C471.576 44.7422 471.289 44.9375 470.977 44.9375C470.716 44.9375 470.495 44.8333 470.312 44.625C470.13 44.4167 470.039 44.1302 470.039 43.7656C470.039 43.2969 470.078 42.8021 470.156 42.2812C470.234 41.7604 470.326 41.2135 470.43 40.6406C470.534 40.0677 470.625 39.4948 470.703 38.9219C470.781 38.3229 470.82 37.75 470.82 37.2031C470.82 36.1354 470.638 35.3021 470.273 34.7031C469.935 34.0781 469.245 33.7656 468.203 33.7656C467.682 33.7656 467.174 33.8568 466.68 34.0391C466.185 34.2214 465.729 34.3125 465.312 34.3125C465.052 34.3125 464.844 34.2083 464.688 34C464.531 33.7917 464.453 33.5573 464.453 33.2969C464.453 33.0885 464.492 32.8802 464.57 32.6719C464.674 32.4635 464.844 32.2943 465.078 32.1641ZM463.906 25.4453C463.776 26.4609 463.672 27.6589 463.594 29.0391C463.542 30.4193 463.516 31.8646 463.516 33.375C463.516 34.8854 463.568 36.3958 463.672 37.9062C463.776 39.3906 463.828 40.7188 463.828 41.8906C463.828 42.3854 463.711 42.776 463.477 43.0625C463.242 43.349 462.956 43.4922 462.617 43.4922C462.227 43.4922 461.927 43.1406 461.719 42.4375C461.536 41.7344 461.406 40.875 461.328 39.8594C461.25 38.8438 461.211 37.776 461.211 36.6562C461.211 35.5104 461.211 34.5078 461.211 33.6484C461.211 32.138 461.237 30.6536 461.289 29.1953C461.341 27.737 461.432 26.3828 461.562 25.1328C461.589 24.6641 461.732 24.3385 461.992 24.1562C462.279 23.974 462.565 23.8828 462.852 23.8828C463.138 23.8828 463.385 24.013 463.594 24.2734C463.802 24.5078 463.906 24.8203 463.906 25.2109V25.4453ZM478.438 34.3516C478.229 35.1068 478.125 35.7578 478.125 36.3047C478.125 37.0078 478.255 37.6458 478.516 38.2188C478.802 38.7917 479.18 39.2734 479.648 39.6641C480.143 40.0547 480.716 40.3542 481.367 40.5625C482.018 40.7708 482.708 40.875 483.438 40.875C483.516 40.875 483.594 40.875 483.672 40.875C483.75 40.849 483.828 40.8359 483.906 40.8359C484.115 40.8359 484.31 40.9531 484.492 41.1875C484.701 41.3958 484.805 41.6432 484.805 41.9297C484.805 42.2943 484.701 42.5677 484.492 42.75C484.31 42.9323 483.932 43.0234 483.359 43.0234C482.005 43.0234 480.859 42.8281 479.922 42.4375C478.984 42.0469 478.216 41.526 477.617 40.875C477.018 40.1979 476.576 39.4427 476.289 38.6094C476.029 37.75 475.898 36.8646 475.898 35.9531C475.898 35.6927 475.898 35.4062 475.898 35.0938C475.924 34.7552 475.977 34.4557 476.055 34.1953C476.133 33.9089 476.25 33.6745 476.406 33.4922C476.589 33.2839 476.836 33.1797 477.148 33.1797C477.409 33.1797 477.682 33.2708 477.969 33.4531C478.281 33.6094 478.438 33.8568 478.438 34.1953V34.3516ZM487.578 33.0234C487.708 34.4557 487.799 35.8359 487.852 37.1641C487.93 38.4922 487.969 39.8203 487.969 41.1484C487.969 41.9036 487.969 42.6458 487.969 43.375C487.969 44.0781 487.891 44.7812 487.734 45.4844C487.578 46.1875 487.292 46.8776 486.875 47.5547C486.458 48.2578 485.833 48.9479 485 49.625C484.635 49.9115 484.219 50.2109 483.75 50.5234C483.307 50.8359 482.839 51.1094 482.344 51.3438C481.849 51.6042 481.354 51.8125 480.859 51.9688C480.365 52.125 479.896 52.2031 479.453 52.2031C479.141 52.2031 478.88 52.0599 478.672 51.7734C478.49 51.487 478.398 51.1745 478.398 50.8359C478.398 50.6016 478.451 50.3802 478.555 50.1719C478.685 49.9896 478.88 49.8724 479.141 49.8203C479.844 49.638 480.56 49.3646 481.289 49C482.044 48.6354 482.721 48.2057 483.32 47.7109C483.945 47.2161 484.466 46.6693 484.883 46.0703C485.299 45.4974 485.547 44.8984 485.625 44.2734C485.703 43.5703 485.742 42.776 485.742 41.8906C485.716 41.3958 485.703 40.888 485.703 40.3672C485.703 39.8203 485.677 39.2865 485.625 38.7656L485.234 33.0234C485.234 32.9714 485.221 32.9453 485.195 32.9453C485.195 32.9193 485.195 32.8802 485.195 32.8281C485.195 32.5156 485.299 32.2682 485.508 32.0859C485.742 31.8776 486.003 31.7734 486.289 31.7734C486.576 31.7734 486.849 31.8776 487.109 32.0859C487.37 32.2682 487.526 32.5807 487.578 33.0234ZM496.328 28.7266C496.536 28.362 496.719 27.9714 496.875 27.5547C497.057 27.138 497.148 26.7474 497.148 26.3828C497.148 26.0182 497.031 25.7318 496.797 25.5234C496.589 25.3151 496.224 25.2109 495.703 25.2109C495.417 25.2109 495.117 25.25 494.805 25.3281C494.518 25.3802 494.232 25.4453 493.945 25.5234C493.685 25.6016 493.438 25.6797 493.203 25.7578C492.995 25.8099 492.826 25.8359 492.695 25.8359C492.409 25.8359 492.201 25.7057 492.07 25.4453C491.94 25.1849 491.875 24.9375 491.875 24.7031C491.875 24.3646 492.005 24.0911 492.266 23.8828C492.526 23.6484 492.852 23.4661 493.242 23.3359C493.659 23.2057 494.102 23.1146 494.57 23.0625C495.065 22.9844 495.547 22.9453 496.016 22.9453C497.031 22.9453 497.878 23.2578 498.555 23.8828C499.258 24.4818 499.609 25.263 499.609 26.2266C499.609 26.9818 499.453 27.6719 499.141 28.2969C498.854 28.8958 498.542 29.4818 498.203 30.0547C497.786 30.7839 497.409 31.4609 497.07 32.0859C496.758 32.6849 496.484 33.2969 496.25 33.9219C496.016 34.5208 495.82 35.1589 495.664 35.8359C495.508 36.487 495.391 37.2422 495.312 38.1016C495.312 39.0391 495.26 39.651 495.156 39.9375C495.052 40.224 494.753 40.3672 494.258 40.3672C493.997 40.3672 493.789 40.2891 493.633 40.1328C493.477 39.9766 493.346 39.7812 493.242 39.5469C493.164 39.2865 493.112 39.013 493.086 38.7266C493.06 38.4401 493.047 38.1667 493.047 37.9062C493.047 36.9948 493.138 36.1354 493.32 35.3281C493.503 34.5208 493.75 33.7396 494.062 32.9844C494.375 32.2292 494.727 31.5 495.117 30.7969C495.508 30.0938 495.911 29.4036 496.328 28.7266ZM493.828 41.6172C493.984 41.5651 494.102 41.5391 494.18 41.5391C494.31 41.5391 494.414 41.5521 494.492 41.5781C494.57 41.6042 494.635 41.6172 494.688 41.6172C494.792 41.6172 494.883 41.6172 494.961 41.6172C495.065 41.5911 495.156 41.5781 495.234 41.5781C495.807 41.5781 496.289 41.6823 496.68 41.8906C497.07 42.0729 497.383 42.3203 497.617 42.6328C497.852 42.9193 498.021 43.2578 498.125 43.6484C498.229 44.013 498.281 44.3776 498.281 44.7422C498.281 45.1328 498.203 45.5104 498.047 45.875C497.917 46.2656 497.721 46.6042 497.461 46.8906C497.227 47.2031 496.927 47.4505 496.562 47.6328C496.198 47.8411 495.807 47.9453 495.391 47.9453C494.948 47.9453 494.505 47.8672 494.062 47.7109C493.646 47.5547 493.268 47.3203 492.93 47.0078C492.617 46.7214 492.357 46.3568 492.148 45.9141C491.94 45.4714 491.836 44.9766 491.836 44.4297C491.836 43.7786 492.018 43.1927 492.383 42.6719C492.773 42.125 493.255 41.7734 493.828 41.6172ZM494.766 43.6484H494.375C494.245 43.7786 494.141 43.9479 494.062 44.1562C494.01 44.3646 493.984 44.5599 493.984 44.7422C493.984 45.1068 494.115 45.3672 494.375 45.5234C494.661 45.6797 494.948 45.7578 495.234 45.7578C495.573 45.7578 495.833 45.6536 496.016 45.4453C496.224 45.263 496.328 45.0286 496.328 44.7422C496.328 44.4036 496.237 44.1302 496.055 43.9219C495.872 43.6875 495.547 43.5703 495.078 43.5703C494.922 43.5703 494.818 43.5964 494.766 43.6484Z" fill="black"/>
<path d="M52.0957 144.912C52.0957 144.587 52.2422 144.326 52.5352 144.131C52.8607 143.903 53.2188 143.789 53.6094 143.789C53.9674 143.789 54.2767 143.903 54.5371 144.131C54.8301 144.326 54.9928 144.652 55.0254 145.107C54.7324 147.549 54.4069 149.99 54.0488 152.432C53.7233 154.873 53.3978 157.217 53.0723 159.463C52.9746 159.919 52.7793 160.26 52.4863 160.488C52.1934 160.749 51.9004 160.879 51.6074 160.879C51.3145 160.879 51.0378 160.781 50.7773 160.586C50.5169 160.423 50.3379 160.114 50.2402 159.658C49.1986 158.584 48.1406 157.461 47.0664 156.289C45.9922 155.085 44.9993 153.799 44.0879 152.432C43.9902 152.334 43.8926 152.236 43.7949 152.139C43.6973 152.041 43.5833 151.992 43.4531 151.992C43.3229 151.992 43.0299 152.204 42.5742 152.627C42.151 153.018 41.6139 153.555 40.9629 154.238C40.3444 154.889 39.6445 155.622 38.8633 156.436C38.1146 157.217 37.3496 157.998 36.5684 158.779C36.3079 159.04 35.9987 159.284 35.6406 159.512C35.3151 159.707 34.9896 159.805 34.6641 159.805C34.4036 159.805 34.1758 159.561 33.9805 159.072C33.7852 158.551 33.6061 157.884 33.4434 157.07C33.2806 156.257 33.1341 155.329 33.0039 154.287C32.8737 153.245 32.7598 152.188 32.6621 151.113C32.5645 150.039 32.4831 149.014 32.418 148.037C32.3529 147.028 32.304 146.149 32.2715 145.4C32.2715 144.945 32.4017 144.587 32.6621 144.326C32.9551 144.033 33.2806 143.887 33.6387 143.887C33.9967 143.887 34.3223 144.001 34.6152 144.229C34.9408 144.456 35.1361 144.814 35.2012 145.303C35.2988 146.963 35.429 148.704 35.5918 150.527C35.7871 152.35 35.9824 153.962 36.1777 155.361L41.3535 149.795C42.0371 149.046 42.7695 148.672 43.5508 148.672C43.9089 148.672 44.2669 148.77 44.625 148.965C44.9831 149.128 45.2923 149.404 45.5527 149.795C46.3014 150.934 47.099 152.09 47.9453 153.262C48.8242 154.401 49.7194 155.459 50.6309 156.436C50.7611 155.654 50.8913 154.775 51.0215 153.799C51.1842 152.822 51.3307 151.813 51.4609 150.771C51.5911 149.697 51.7051 148.656 51.8027 147.646C51.9329 146.637 52.0306 145.726 52.0957 144.912ZM63.6191 145.205C64.0423 144.912 64.6608 144.717 65.4746 144.619C66.321 144.489 67.1999 144.424 68.1113 144.424C69.9993 144.424 71.3828 144.993 72.2617 146.133C73.1406 147.24 73.5801 149.079 73.5801 151.65C73.5801 152.985 73.515 154.238 73.3848 155.41C73.2546 156.549 73.0755 157.559 72.8477 158.438C72.6523 159.284 72.3919 159.951 72.0664 160.439C71.7409 160.928 71.3828 161.172 70.9922 161.172C70.6667 161.172 70.39 161.042 70.1621 160.781C69.9342 160.521 69.8203 160.163 69.8203 159.707C69.8203 159.121 69.8691 158.503 69.9668 157.852C70.0645 157.201 70.1784 156.517 70.3086 155.801C70.4388 155.085 70.5527 154.368 70.6504 153.652C70.748 152.904 70.7969 152.188 70.7969 151.504C70.7969 150.169 70.569 149.128 70.1133 148.379C69.6901 147.598 68.8275 147.207 67.5254 147.207C66.8743 147.207 66.2396 147.321 65.6211 147.549C65.0026 147.777 64.4329 147.891 63.9121 147.891C63.5866 147.891 63.3262 147.76 63.1309 147.5C62.9355 147.24 62.8379 146.947 62.8379 146.621C62.8379 146.361 62.8867 146.1 62.9844 145.84C63.1146 145.579 63.3262 145.368 63.6191 145.205ZM62.1543 136.807C61.9915 138.076 61.8613 139.574 61.7637 141.299C61.6986 143.024 61.666 144.831 61.666 146.719C61.666 148.607 61.7311 150.495 61.8613 152.383C61.9915 154.238 62.0566 155.898 62.0566 157.363C62.0566 157.982 61.9102 158.47 61.6172 158.828C61.3242 159.186 60.9661 159.365 60.543 159.365C60.0547 159.365 59.6803 158.926 59.4199 158.047C59.1921 157.168 59.0293 156.094 58.9316 154.824C58.834 153.555 58.7852 152.22 58.7852 150.82C58.7852 149.388 58.7852 148.135 58.7852 147.061C58.7852 145.173 58.8177 143.317 58.8828 141.494C58.9479 139.671 59.0618 137.979 59.2246 136.416C59.2572 135.83 59.4362 135.423 59.7617 135.195C60.1198 134.967 60.4779 134.854 60.8359 134.854C61.194 134.854 61.5033 135.016 61.7637 135.342C62.0241 135.635 62.1543 136.025 62.1543 136.514V136.807ZM89.8887 157.607C90.4421 157.607 90.849 157.738 91.1094 157.998C91.3698 158.226 91.5 158.535 91.5 158.926C91.5 159.349 91.3861 159.674 91.1582 159.902C90.9629 160.098 90.7025 160.244 90.377 160.342C90.084 160.439 89.7422 160.488 89.3516 160.488C88.9935 160.488 88.668 160.488 88.375 160.488C87.0078 160.488 85.6406 160.326 84.2734 160C82.9388 159.642 81.7344 159.121 80.6602 158.438C79.5859 157.754 78.707 156.908 78.0234 155.898C77.3398 154.889 76.998 153.734 76.998 152.432C76.998 151.032 77.3724 149.827 78.1211 148.818C78.9023 147.777 79.8626 146.914 81.002 146.23C82.1413 145.547 83.362 145.042 84.6641 144.717C85.9661 144.391 87.1706 144.229 88.2773 144.229C88.8307 144.229 89.3841 144.294 89.9375 144.424C90.5234 144.554 91.0443 144.782 91.5 145.107C91.9557 145.433 92.3301 145.872 92.623 146.426C92.916 146.979 93.0625 147.679 93.0625 148.525C93.0625 149.535 92.737 150.397 92.0859 151.113C91.4349 151.829 90.6536 152.432 89.7422 152.92C88.8307 153.408 87.8704 153.766 86.8613 153.994C85.8522 154.222 85.0059 154.352 84.3223 154.385C83.9642 154.385 83.6875 154.255 83.4922 153.994C83.3294 153.701 83.248 153.376 83.248 153.018C83.248 152.725 83.3294 152.432 83.4922 152.139C83.6549 151.813 83.9316 151.65 84.3223 151.65C84.9408 151.65 85.5918 151.585 86.2754 151.455C86.9915 151.325 87.6426 151.13 88.2285 150.869C88.847 150.576 89.3516 150.218 89.7422 149.795C90.1328 149.372 90.3281 148.867 90.3281 148.281C90.3281 147.402 89.6608 146.963 88.3262 146.963C87.4473 146.963 86.5195 147.093 85.543 147.354C84.5664 147.581 83.6712 147.939 82.8574 148.428C82.0436 148.916 81.36 149.535 80.8066 150.283C80.2858 150.999 80.0254 151.846 80.0254 152.822C80.0254 153.571 80.2533 154.238 80.709 154.824C81.1973 155.41 81.8158 155.931 82.5645 156.387C83.3457 156.81 84.2246 157.135 85.2012 157.363C86.2103 157.591 87.252 157.705 88.3262 157.705C88.5866 157.705 88.847 157.705 89.1074 157.705C89.3678 157.673 89.6283 157.64 89.8887 157.607ZM101.314 145.205C101.835 144.88 102.438 144.652 103.121 144.521C103.837 144.391 104.57 144.326 105.318 144.326C106.36 144.391 107.255 144.57 108.004 144.863C108.753 145.156 109.371 145.596 109.859 146.182C110.348 146.735 110.706 147.467 110.934 148.379C111.161 149.258 111.275 150.348 111.275 151.65C111.275 152.985 111.21 154.238 111.08 155.41C110.95 156.549 110.771 157.559 110.543 158.438C110.315 159.284 110.038 159.951 109.713 160.439C109.42 160.96 109.078 161.221 108.688 161.221C108.395 161.221 108.134 161.123 107.906 160.928C107.678 160.732 107.564 160.423 107.564 160C107.564 159.577 107.613 159.04 107.711 158.389C107.841 157.705 107.971 156.989 108.102 156.24C108.264 155.459 108.395 154.678 108.492 153.896C108.622 153.083 108.688 152.334 108.688 151.65C108.688 150.706 108.606 149.958 108.443 149.404C108.313 148.818 108.102 148.363 107.809 148.037C107.548 147.679 107.206 147.435 106.783 147.305C106.36 147.142 105.872 147.028 105.318 146.963C104.635 146.963 103.951 147.077 103.268 147.305C102.584 147.533 101.998 147.646 101.51 147.646C101.217 147.646 100.973 147.533 100.777 147.305C100.615 147.077 100.533 146.816 100.533 146.523C100.533 146.296 100.582 146.068 100.68 145.84C100.81 145.579 101.021 145.368 101.314 145.205ZM99.166 144.717C99.166 146.865 99.1823 149.046 99.2148 151.26C99.2474 153.441 99.3939 155.426 99.6543 157.217V157.559C99.6543 158.112 99.5078 158.535 99.2148 158.828C98.9544 159.089 98.6615 159.219 98.3359 159.219C98.043 159.219 97.7663 159.089 97.5059 158.828C97.2454 158.568 97.0827 158.161 97.0176 157.607C96.8548 156.045 96.7246 154.434 96.627 152.773C96.5293 151.113 96.4805 149.404 96.4805 147.646C96.4805 147.288 96.4642 146.882 96.4316 146.426C96.3991 145.97 96.3991 145.547 96.4316 145.156C96.4967 144.733 96.627 144.391 96.8223 144.131C97.0501 143.838 97.3919 143.691 97.8477 143.691C98.1732 143.691 98.4661 143.805 98.7266 144.033C99.0195 144.229 99.166 144.456 99.166 144.717ZM121.139 140.908C121.399 140.452 121.627 139.964 121.822 139.443C122.05 138.923 122.164 138.434 122.164 137.979C122.164 137.523 122.018 137.165 121.725 136.904C121.464 136.644 121.008 136.514 120.357 136.514C119.999 136.514 119.625 136.562 119.234 136.66C118.876 136.725 118.518 136.807 118.16 136.904C117.835 137.002 117.525 137.1 117.232 137.197C116.972 137.262 116.76 137.295 116.598 137.295C116.24 137.295 115.979 137.132 115.816 136.807C115.654 136.481 115.572 136.172 115.572 135.879C115.572 135.456 115.735 135.114 116.061 134.854C116.386 134.561 116.793 134.333 117.281 134.17C117.802 134.007 118.355 133.893 118.941 133.828C119.56 133.73 120.162 133.682 120.748 133.682C122.018 133.682 123.076 134.072 123.922 134.854C124.801 135.602 125.24 136.579 125.24 137.783C125.24 138.727 125.045 139.59 124.654 140.371C124.296 141.12 123.906 141.852 123.482 142.568C122.962 143.48 122.49 144.326 122.066 145.107C121.676 145.856 121.334 146.621 121.041 147.402C120.748 148.151 120.504 148.949 120.309 149.795C120.113 150.609 119.967 151.553 119.869 152.627C119.869 153.799 119.804 154.564 119.674 154.922C119.544 155.28 119.169 155.459 118.551 155.459C118.225 155.459 117.965 155.361 117.77 155.166C117.574 154.971 117.411 154.727 117.281 154.434C117.184 154.108 117.118 153.766 117.086 153.408C117.053 153.05 117.037 152.708 117.037 152.383C117.037 151.243 117.151 150.169 117.379 149.16C117.607 148.151 117.916 147.174 118.307 146.23C118.697 145.286 119.137 144.375 119.625 143.496C120.113 142.617 120.618 141.755 121.139 140.908ZM118.014 157.021C118.209 156.956 118.355 156.924 118.453 156.924C118.616 156.924 118.746 156.94 118.844 156.973C118.941 157.005 119.023 157.021 119.088 157.021C119.218 157.021 119.332 157.021 119.43 157.021C119.56 156.989 119.674 156.973 119.771 156.973C120.488 156.973 121.09 157.103 121.578 157.363C122.066 157.591 122.457 157.9 122.75 158.291C123.043 158.649 123.255 159.072 123.385 159.561C123.515 160.016 123.58 160.472 123.58 160.928C123.58 161.416 123.482 161.888 123.287 162.344C123.124 162.832 122.88 163.255 122.555 163.613C122.262 164.004 121.887 164.313 121.432 164.541C120.976 164.801 120.488 164.932 119.967 164.932C119.413 164.932 118.86 164.834 118.307 164.639C117.786 164.443 117.314 164.15 116.891 163.76C116.5 163.402 116.174 162.946 115.914 162.393C115.654 161.839 115.523 161.221 115.523 160.537C115.523 159.723 115.751 158.991 116.207 158.34C116.695 157.656 117.298 157.217 118.014 157.021ZM119.186 159.561H118.697C118.535 159.723 118.404 159.935 118.307 160.195C118.242 160.456 118.209 160.7 118.209 160.928C118.209 161.383 118.372 161.709 118.697 161.904C119.055 162.1 119.413 162.197 119.771 162.197C120.195 162.197 120.52 162.067 120.748 161.807C121.008 161.579 121.139 161.286 121.139 160.928C121.139 160.505 121.025 160.163 120.797 159.902C120.569 159.609 120.162 159.463 119.576 159.463C119.381 159.463 119.251 159.495 119.186 159.561Z" fill="black"/>
<path d="M136.076 243.123C136.33 242.947 136.701 242.83 137.189 242.771C137.697 242.693 138.225 242.654 138.771 242.654C139.904 242.654 140.734 242.996 141.262 243.68C141.789 244.344 142.053 245.447 142.053 246.99C142.053 247.791 142.014 248.543 141.936 249.246C141.857 249.93 141.75 250.535 141.613 251.062C141.496 251.57 141.34 251.971 141.145 252.264C140.949 252.557 140.734 252.703 140.5 252.703C140.305 252.703 140.139 252.625 140.002 252.469C139.865 252.312 139.797 252.098 139.797 251.824C139.797 251.473 139.826 251.102 139.885 250.711C139.943 250.32 140.012 249.91 140.09 249.48C140.168 249.051 140.236 248.621 140.295 248.191C140.354 247.742 140.383 247.312 140.383 246.902C140.383 246.102 140.246 245.477 139.973 245.027C139.719 244.559 139.201 244.324 138.42 244.324C138.029 244.324 137.648 244.393 137.277 244.529C136.906 244.666 136.564 244.734 136.252 244.734C136.057 244.734 135.9 244.656 135.783 244.5C135.666 244.344 135.607 244.168 135.607 243.973C135.607 243.816 135.637 243.66 135.695 243.504C135.773 243.348 135.9 243.221 136.076 243.123ZM135.197 238.084C135.1 238.846 135.021 239.744 134.963 240.779C134.924 241.814 134.904 242.898 134.904 244.031C134.904 245.164 134.943 246.297 135.021 247.43C135.1 248.543 135.139 249.539 135.139 250.418C135.139 250.789 135.051 251.082 134.875 251.297C134.699 251.512 134.484 251.619 134.23 251.619C133.938 251.619 133.713 251.355 133.557 250.828C133.42 250.301 133.322 249.656 133.264 248.895C133.205 248.133 133.176 247.332 133.176 246.492C133.176 245.633 133.176 244.881 133.176 244.236C133.176 243.104 133.195 241.99 133.234 240.896C133.273 239.803 133.342 238.787 133.439 237.85C133.459 237.498 133.566 237.254 133.762 237.117C133.977 236.98 134.191 236.912 134.406 236.912C134.621 236.912 134.807 237.01 134.963 237.205C135.119 237.381 135.197 237.615 135.197 237.908V238.084ZM147.268 242.537C147.502 242.439 147.678 242.391 147.795 242.391C147.951 242.391 148.107 242.439 148.264 242.537C148.4 242.518 148.547 242.498 148.703 242.479C148.879 242.439 149.025 242.42 149.143 242.42C149.787 242.42 150.373 242.557 150.9 242.83C151.428 243.084 151.877 243.436 152.248 243.885C152.639 244.334 152.941 244.861 153.156 245.467C153.371 246.072 153.479 246.717 153.479 247.4C153.479 248.006 153.361 248.592 153.127 249.158C152.912 249.705 152.6 250.193 152.189 250.623C151.799 251.053 151.34 251.395 150.812 251.648C150.285 251.902 149.729 252.029 149.143 252.029C148.42 252.029 147.756 251.912 147.15 251.678C146.545 251.443 146.027 251.121 145.598 250.711C145.168 250.301 144.826 249.812 144.572 249.246C144.338 248.68 144.221 248.064 144.221 247.4C144.221 246.873 144.279 246.336 144.396 245.789C144.514 245.223 144.699 244.705 144.953 244.236C145.207 243.768 145.52 243.377 145.891 243.064C146.281 242.752 146.74 242.576 147.268 242.537ZM147.619 244.061C147.209 244.119 146.896 244.275 146.682 244.529C146.467 244.764 146.301 245.047 146.184 245.379C146.086 245.711 146.027 246.062 146.008 246.434C145.988 246.785 145.979 247.107 145.979 247.4C145.979 247.752 146.037 248.113 146.154 248.484C146.271 248.836 146.457 249.158 146.711 249.451C146.984 249.725 147.316 249.949 147.707 250.125C148.098 250.301 148.576 250.389 149.143 250.389C149.572 250.389 149.953 250.311 150.285 250.154C150.637 249.979 150.92 249.754 151.135 249.48C151.369 249.188 151.545 248.865 151.662 248.514C151.779 248.162 151.838 247.791 151.838 247.4C151.838 246.385 151.594 245.555 151.105 244.91C150.617 244.246 149.963 243.885 149.143 243.826H148.586C148.43 243.826 148.264 243.865 148.088 243.943C147.912 244.021 147.756 244.061 147.619 244.061ZM167.541 242.947C167.541 242.752 167.629 242.596 167.805 242.479C168 242.342 168.215 242.273 168.449 242.273C168.664 242.273 168.85 242.342 169.006 242.479C169.182 242.596 169.279 242.791 169.299 243.064C169.123 244.529 168.928 245.994 168.713 247.459C168.518 248.924 168.322 250.33 168.127 251.678C168.068 251.951 167.951 252.156 167.775 252.293C167.6 252.449 167.424 252.527 167.248 252.527C167.072 252.527 166.906 252.469 166.75 252.352C166.594 252.254 166.486 252.068 166.428 251.795C165.803 251.15 165.168 250.477 164.523 249.773C163.879 249.051 163.283 248.279 162.736 247.459C162.678 247.4 162.619 247.342 162.561 247.283C162.502 247.225 162.434 247.195 162.355 247.195C162.277 247.195 162.102 247.322 161.828 247.576C161.574 247.811 161.252 248.133 160.861 248.543C160.49 248.934 160.07 249.373 159.602 249.861C159.152 250.33 158.693 250.799 158.225 251.268C158.068 251.424 157.883 251.57 157.668 251.707C157.473 251.824 157.277 251.883 157.082 251.883C156.926 251.883 156.789 251.736 156.672 251.443C156.555 251.131 156.447 250.73 156.35 250.242C156.252 249.754 156.164 249.197 156.086 248.572C156.008 247.947 155.939 247.312 155.881 246.668C155.822 246.023 155.773 245.408 155.734 244.822C155.695 244.217 155.666 243.689 155.646 243.24C155.646 242.967 155.725 242.752 155.881 242.596C156.057 242.42 156.252 242.332 156.467 242.332C156.682 242.332 156.877 242.4 157.053 242.537C157.248 242.674 157.365 242.889 157.404 243.182C157.463 244.178 157.541 245.223 157.639 246.316C157.756 247.41 157.873 248.377 157.99 249.217L161.096 245.877C161.506 245.428 161.945 245.203 162.414 245.203C162.629 245.203 162.844 245.262 163.059 245.379C163.273 245.477 163.459 245.643 163.615 245.877C164.064 246.561 164.543 247.254 165.051 247.957C165.578 248.641 166.115 249.275 166.662 249.861C166.74 249.393 166.818 248.865 166.896 248.279C166.994 247.693 167.082 247.088 167.16 246.463C167.238 245.818 167.307 245.193 167.365 244.588C167.443 243.982 167.502 243.436 167.541 242.947ZM175.217 240.545C175.373 240.271 175.51 239.979 175.627 239.666C175.764 239.354 175.832 239.061 175.832 238.787C175.832 238.514 175.744 238.299 175.568 238.143C175.412 237.986 175.139 237.908 174.748 237.908C174.533 237.908 174.309 237.938 174.074 237.996C173.859 238.035 173.645 238.084 173.43 238.143C173.234 238.201 173.049 238.26 172.873 238.318C172.717 238.357 172.59 238.377 172.492 238.377C172.277 238.377 172.121 238.279 172.023 238.084C171.926 237.889 171.877 237.703 171.877 237.527C171.877 237.273 171.975 237.068 172.17 236.912C172.365 236.736 172.609 236.6 172.902 236.502C173.215 236.404 173.547 236.336 173.898 236.297C174.27 236.238 174.631 236.209 174.982 236.209C175.744 236.209 176.379 236.443 176.887 236.912C177.414 237.361 177.678 237.947 177.678 238.67C177.678 239.236 177.561 239.754 177.326 240.223C177.111 240.672 176.877 241.111 176.623 241.541C176.311 242.088 176.027 242.596 175.773 243.064C175.539 243.514 175.334 243.973 175.158 244.441C174.982 244.891 174.836 245.369 174.719 245.877C174.602 246.365 174.514 246.932 174.455 247.576C174.455 248.279 174.416 248.738 174.338 248.953C174.26 249.168 174.035 249.275 173.664 249.275C173.469 249.275 173.312 249.217 173.195 249.1C173.078 248.982 172.98 248.836 172.902 248.66C172.844 248.465 172.805 248.26 172.785 248.045C172.766 247.83 172.756 247.625 172.756 247.43C172.756 246.746 172.824 246.102 172.961 245.496C173.098 244.891 173.283 244.305 173.518 243.738C173.752 243.172 174.016 242.625 174.309 242.098C174.602 241.57 174.904 241.053 175.217 240.545ZM173.342 250.213C173.459 250.174 173.547 250.154 173.605 250.154C173.703 250.154 173.781 250.164 173.84 250.184C173.898 250.203 173.947 250.213 173.986 250.213C174.064 250.213 174.133 250.213 174.191 250.213C174.27 250.193 174.338 250.184 174.396 250.184C174.826 250.184 175.188 250.262 175.48 250.418C175.773 250.555 176.008 250.74 176.184 250.975C176.359 251.189 176.486 251.443 176.564 251.736C176.643 252.01 176.682 252.283 176.682 252.557C176.682 252.85 176.623 253.133 176.506 253.406C176.408 253.699 176.262 253.953 176.066 254.168C175.891 254.402 175.666 254.588 175.393 254.725C175.119 254.881 174.826 254.959 174.514 254.959C174.182 254.959 173.85 254.9 173.518 254.783C173.205 254.666 172.922 254.49 172.668 254.256C172.434 254.041 172.238 253.768 172.082 253.436C171.926 253.104 171.848 252.732 171.848 252.322C171.848 251.834 171.984 251.395 172.258 251.004C172.551 250.594 172.912 250.33 173.342 250.213ZM174.045 251.736H173.752C173.654 251.834 173.576 251.961 173.518 252.117C173.479 252.273 173.459 252.42 173.459 252.557C173.459 252.83 173.557 253.025 173.752 253.143C173.967 253.26 174.182 253.318 174.396 253.318C174.65 253.318 174.846 253.24 174.982 253.084C175.139 252.947 175.217 252.771 175.217 252.557C175.217 252.303 175.148 252.098 175.012 251.941C174.875 251.766 174.631 251.678 174.279 251.678C174.162 251.678 174.084 251.697 174.045 251.736Z" fill="black"/>
<path d="M236.562 95.8594C236.562 95.3385 236.797 94.9219 237.266 94.6094C237.786 94.2448 238.359 94.0625 238.984 94.0625C239.557 94.0625 240.052 94.2448 240.469 94.6094C240.938 94.9219 241.198 95.4427 241.25 96.1719C240.781 100.078 240.26 103.984 239.688 107.891C239.167 111.797 238.646 115.547 238.125 119.141C237.969 119.87 237.656 120.417 237.188 120.781C236.719 121.198 236.25 121.406 235.781 121.406C235.312 121.406 234.87 121.25 234.453 120.938C234.036 120.677 233.75 120.182 233.594 119.453C231.927 117.734 230.234 115.938 228.516 114.062C226.797 112.135 225.208 110.078 223.75 107.891C223.594 107.734 223.438 107.578 223.281 107.422C223.125 107.266 222.943 107.188 222.734 107.188C222.526 107.188 222.057 107.526 221.328 108.203C220.651 108.828 219.792 109.688 218.75 110.781C217.76 111.823 216.641 112.995 215.391 114.297C214.193 115.547 212.969 116.797 211.719 118.047C211.302 118.464 210.807 118.854 210.234 119.219C209.714 119.531 209.193 119.688 208.672 119.688C208.255 119.688 207.891 119.297 207.578 118.516C207.266 117.682 206.979 116.615 206.719 115.312C206.458 114.01 206.224 112.526 206.016 110.859C205.807 109.193 205.625 107.5 205.469 105.781C205.312 104.062 205.182 102.422 205.078 100.859C204.974 99.2448 204.896 97.8385 204.844 96.6406C204.844 95.9115 205.052 95.3385 205.469 94.9219C205.938 94.4531 206.458 94.2188 207.031 94.2188C207.604 94.2188 208.125 94.401 208.594 94.7656C209.115 95.1302 209.427 95.7031 209.531 96.4844C209.688 99.1406 209.896 101.927 210.156 104.844C210.469 107.76 210.781 110.339 211.094 112.578L219.375 103.672C220.469 102.474 221.641 101.875 222.891 101.875C223.464 101.875 224.036 102.031 224.609 102.344C225.182 102.604 225.677 103.047 226.094 103.672C227.292 105.495 228.568 107.344 229.922 109.219C231.328 111.042 232.76 112.734 234.219 114.297C234.427 113.047 234.635 111.641 234.844 110.078C235.104 108.516 235.339 106.901 235.547 105.234C235.755 103.516 235.938 101.849 236.094 100.234C236.302 98.6198 236.458 97.1615 236.562 95.8594ZM255 96.3281C255.677 95.8594 256.667 95.5469 257.969 95.3906C259.323 95.1823 260.729 95.0781 262.188 95.0781C265.208 95.0781 267.422 95.9896 268.828 97.8125C270.234 99.5833 270.938 102.526 270.938 106.641C270.938 108.776 270.833 110.781 270.625 112.656C270.417 114.479 270.13 116.094 269.766 117.5C269.453 118.854 269.036 119.922 268.516 120.703C267.995 121.484 267.422 121.875 266.797 121.875C266.276 121.875 265.833 121.667 265.469 121.25C265.104 120.833 264.922 120.26 264.922 119.531C264.922 118.594 265 117.604 265.156 116.562C265.312 115.521 265.495 114.427 265.703 113.281C265.911 112.135 266.094 110.99 266.25 109.844C266.406 108.646 266.484 107.5 266.484 106.406C266.484 104.271 266.12 102.604 265.391 101.406C264.714 100.156 263.333 99.5312 261.25 99.5312C260.208 99.5312 259.193 99.7135 258.203 100.078C257.214 100.443 256.302 100.625 255.469 100.625C254.948 100.625 254.531 100.417 254.219 100C253.906 99.5833 253.75 99.1146 253.75 98.5938C253.75 98.1771 253.828 97.7604 253.984 97.3438C254.193 96.9271 254.531 96.5885 255 96.3281ZM252.656 82.8906C252.396 84.9219 252.188 87.3177 252.031 90.0781C251.927 92.8385 251.875 95.7292 251.875 98.75C251.875 101.771 251.979 104.792 252.188 107.812C252.396 110.781 252.5 113.438 252.5 115.781C252.5 116.771 252.266 117.552 251.797 118.125C251.328 118.698 250.755 118.984 250.078 118.984C249.297 118.984 248.698 118.281 248.281 116.875C247.917 115.469 247.656 113.75 247.5 111.719C247.344 109.688 247.266 107.552 247.266 105.312C247.266 103.021 247.266 101.016 247.266 99.2969C247.266 96.276 247.318 93.3073 247.422 90.3906C247.526 87.474 247.708 84.7656 247.969 82.2656C248.021 81.3281 248.307 80.6771 248.828 80.3125C249.401 79.9479 249.974 79.7656 250.547 79.7656C251.12 79.7656 251.615 80.026 252.031 80.5469C252.448 81.0156 252.656 81.6406 252.656 82.4219V82.8906ZM286.719 98.9844H284.688C283.802 99.4531 283.125 100.078 282.656 100.859C282.188 101.641 281.823 102.474 281.562 103.359C281.354 104.193 281.224 105 281.172 105.781C281.12 106.562 281.094 107.188 281.094 107.656C281.094 108.698 281.224 109.688 281.484 110.625C281.797 111.562 282.214 112.396 282.734 113.125C283.307 113.802 283.958 114.349 284.688 114.766C285.417 115.182 286.25 115.391 287.188 115.391C288.854 115.391 290.13 115.026 291.016 114.297C291.953 113.568 292.63 112.656 293.047 111.562C293.516 110.469 293.802 109.297 293.906 108.047C294.01 106.745 294.062 105.547 294.062 104.453C293.958 103.776 293.724 103.099 293.359 102.422C292.995 101.693 292.526 101.068 291.953 100.547C291.432 100.026 290.833 99.6094 290.156 99.2969C289.531 98.9323 288.88 98.75 288.203 98.75C287.682 98.75 287.188 98.8281 286.719 98.9844ZM297.344 112.578C296.771 114.974 295.495 116.797 293.516 118.047C291.536 119.297 289.349 119.922 286.953 119.922C285.234 119.922 283.698 119.557 282.344 118.828C281.042 118.047 279.948 117.057 279.062 115.859C278.177 114.609 277.5 113.229 277.031 111.719C276.615 110.156 276.406 108.594 276.406 107.031C276.406 105.781 276.562 104.427 276.875 102.969C277.188 101.458 277.682 100.078 278.359 98.8281C279.036 97.5781 279.922 96.5365 281.016 95.7031C282.109 94.8177 283.438 94.375 285 94.375C285.833 94.375 286.406 94.4531 286.719 94.6094C286.979 94.5573 287.214 94.5312 287.422 94.5312C287.63 94.5312 287.865 94.5312 288.125 94.5312C290.573 94.5312 292.5 95.0521 293.906 96.0938C295.312 97.1354 296.432 98.4896 297.266 100.156C298.151 101.771 298.854 103.568 299.375 105.547C299.896 107.526 300.521 109.427 301.25 111.25C301.458 111.875 301.771 112.578 302.188 113.359C302.604 114.089 303.021 114.818 303.438 115.547C303.854 116.276 304.193 116.927 304.453 117.5C304.766 118.073 304.922 118.516 304.922 118.828C304.922 119.401 304.714 119.844 304.297 120.156C303.88 120.469 303.411 120.625 302.891 120.625C302.37 120.625 301.823 120.417 301.25 120C300.729 119.531 300.208 118.932 299.688 118.203C299.219 117.474 298.776 116.615 298.359 115.625C297.943 114.635 297.604 113.62 297.344 112.578ZM330.625 119.922C325.521 119.505 321.771 117.812 319.375 114.844C316.979 111.875 315.781 107.63 315.781 102.109V98.8281C313.75 98.8281 312.057 98.6458 310.703 98.2812C309.349 97.8646 308.672 97.0052 308.672 95.7031C308.776 95.2344 309.01 94.8438 309.375 94.5312C309.74 94.1667 310.26 93.9844 310.938 93.9844C311.562 93.9844 312.318 94.0625 313.203 94.2188C314.089 94.375 315.052 94.4531 316.094 94.4531C316.094 92.7865 316.146 91.0938 316.25 89.375C316.354 87.6042 316.536 86.0156 316.797 84.6094C317.109 83.2031 317.5 82.0573 317.969 81.1719C318.438 80.2344 319.062 79.7656 319.844 79.7656C320.417 79.7656 320.938 80.026 321.406 80.5469C321.875 81.0156 322.109 81.6667 322.109 82.5C322.109 83.8021 321.953 85.5469 321.641 87.7344C321.328 89.9219 321.094 92.2135 320.938 94.6094C321.354 94.6615 321.771 94.7135 322.188 94.7656C322.656 94.7656 323.125 94.7656 323.594 94.7656C324.427 94.7656 325.26 94.7396 326.094 94.6875C326.979 94.6354 327.865 94.5573 328.75 94.4531C329.479 94.4531 330.078 94.6615 330.547 95.0781C331.016 95.4948 331.25 95.9635 331.25 96.4844C331.25 97.2135 331.042 97.7604 330.625 98.125C330.208 98.4375 329.661 98.6719 328.984 98.8281C328.359 98.9323 327.604 98.9844 326.719 98.9844C325.885 98.9844 325.052 98.9844 324.219 98.9844H320.625C320.573 99.5573 320.547 100.104 320.547 100.625C320.547 101.146 320.547 101.667 320.547 102.188C320.547 104.062 320.703 105.755 321.016 107.266C321.38 108.724 321.979 110.026 322.812 111.172C323.646 112.318 324.74 113.255 326.094 113.984C327.448 114.714 329.115 115.234 331.094 115.547C331.667 115.651 332.083 115.885 332.344 116.25C332.604 116.615 332.734 117.031 332.734 117.5C332.734 118.125 332.552 118.698 332.188 119.219C331.875 119.688 331.354 119.922 330.625 119.922ZM347.812 89.4531C348.229 88.724 348.594 87.9427 348.906 87.1094C349.271 86.276 349.453 85.4948 349.453 84.7656C349.453 84.0365 349.219 83.4635 348.75 83.0469C348.333 82.6302 347.604 82.4219 346.562 82.4219C345.99 82.4219 345.391 82.5 344.766 82.6562C344.193 82.7604 343.62 82.8906 343.047 83.0469C342.526 83.2031 342.031 83.3594 341.562 83.5156C341.146 83.6198 340.807 83.6719 340.547 83.6719C339.974 83.6719 339.557 83.4115 339.297 82.8906C339.036 82.3698 338.906 81.875 338.906 81.4062C338.906 80.7292 339.167 80.1823 339.688 79.7656C340.208 79.2969 340.859 78.9323 341.641 78.6719C342.474 78.4115 343.359 78.2292 344.297 78.125C345.286 77.9688 346.25 77.8906 347.188 77.8906C349.219 77.8906 350.911 78.5156 352.266 79.7656C353.672 80.9635 354.375 82.526 354.375 84.4531C354.375 85.9635 354.062 87.3438 353.438 88.5938C352.865 89.7917 352.24 90.9635 351.562 92.1094C350.729 93.5677 349.974 94.9219 349.297 96.1719C348.672 97.3698 348.125 98.5938 347.656 99.8438C347.188 101.042 346.797 102.318 346.484 103.672C346.172 104.974 345.938 106.484 345.781 108.203C345.781 110.078 345.677 111.302 345.469 111.875C345.26 112.448 344.661 112.734 343.672 112.734C343.151 112.734 342.734 112.578 342.422 112.266C342.109 111.953 341.849 111.562 341.641 111.094C341.484 110.573 341.38 110.026 341.328 109.453C341.276 108.88 341.25 108.333 341.25 107.812C341.25 105.99 341.432 104.271 341.797 102.656C342.161 101.042 342.656 99.4792 343.281 97.9688C343.906 96.4583 344.609 95 345.391 93.5938C346.172 92.1875 346.979 90.8073 347.812 89.4531ZM342.812 115.234C343.125 115.13 343.359 115.078 343.516 115.078C343.776 115.078 343.984 115.104 344.141 115.156C344.297 115.208 344.427 115.234 344.531 115.234C344.74 115.234 344.922 115.234 345.078 115.234C345.286 115.182 345.469 115.156 345.625 115.156C346.771 115.156 347.734 115.365 348.516 115.781C349.297 116.146 349.922 116.641 350.391 117.266C350.859 117.839 351.198 118.516 351.406 119.297C351.615 120.026 351.719 120.755 351.719 121.484C351.719 122.266 351.562 123.021 351.25 123.75C350.99 124.531 350.599 125.208 350.078 125.781C349.609 126.406 349.01 126.901 348.281 127.266C347.552 127.682 346.771 127.891 345.938 127.891C345.052 127.891 344.167 127.734 343.281 127.422C342.448 127.109 341.693 126.641 341.016 126.016C340.391 125.443 339.87 124.714 339.453 123.828C339.036 122.943 338.828 121.953 338.828 120.859C338.828 119.557 339.193 118.385 339.922 117.344C340.703 116.25 341.667 115.547 342.812 115.234ZM344.688 119.297H343.906C343.646 119.557 343.438 119.896 343.281 120.312C343.177 120.729 343.125 121.12 343.125 121.484C343.125 122.214 343.385 122.734 343.906 123.047C344.479 123.359 345.052 123.516 345.625 123.516C346.302 123.516 346.823 123.307 347.188 122.891C347.604 122.526 347.812 122.057 347.812 121.484C347.812 120.807 347.63 120.26 347.266 119.844C346.901 119.375 346.25 119.141 345.312 119.141C345 119.141 344.792 119.193 344.688 119.297Z" fill="black"/>
<defs>
<filter id="filter0_d" x="376" y="143" width="143" height="132" filterUnits="userSpaceOnUse" color-interpolation-filters="sRGB">
<feFlood flood-opacity="0" result="BackgroundImageFix"/>
<feColorMatrix in="SourceAlpha" type="matrix" values="0 0 0 0 0 0 0 0 0 0 0 0 0 0 0 0 0 0 127 0"/>
<feOffset dy="4"/>
<feGaussianBlur stdDeviation="2"/>
<feColorMatrix type="matrix" values="0 0 0 0 0 0 0 0 0 0 0 0 0 0 0 0 0 0 0.25 0"/>
<feBlend mode="normal" in2="BackgroundImageFix" result="effect1_dropShadow"/>
<feBlend mode="normal" in="SourceGraphic" in2="effect1_dropShadow" result="shape"/>
</filter>
<filter id="filter1_d" x="405" y="0" width="124" height="114.548" filterUnits="userSpaceOnUse" color-interpolation-filters="sRGB">
<feFlood flood-opacity="0" result="BackgroundImageFix"/>
<feColorMatrix in="SourceAlpha" type="matrix" values="0 0 0 0 0 0 0 0 0 0 0 0 0 0 0 0 0 0 127 0"/>
<feOffset dy="4"/>
<feGaussianBlur stdDeviation="2"/>
<feColorMatrix type="matrix" values="0 0 0 0 0 0 0 0 0 0 0 0 0 0 0 0 0 0 0.25 0"/>
<feBlend mode="normal" in2="BackgroundImageFix" result="effect1_dropShadow"/>
<feBlend mode="normal" in="SourceGraphic" in2="effect1_dropShadow" result="shape"/>
</filter>
<filter id="filter2_d" x="0" y="102" width="155" height="143.022" filterUnits="userSpaceOnUse" color-interpolation-filters="sRGB">
<feFlood flood-opacity="0" result="BackgroundImageFix"/>
<feColorMatrix in="SourceAlpha" type="matrix" values="0 0 0 0 0 0 0 0 0 0 0 0 0 0 0 0 0 0 127 0"/>
<feOffset dy="4"/>
<feGaussianBlur stdDeviation="2"/>
<feColorMatrix type="matrix" values="0 0 0 0 0 0 0 0 0 0 0 0 0 0 0 0 0 0 0.25 0"/>
<feBlend mode="normal" in2="BackgroundImageFix" result="effect1_dropShadow"/>
<feBlend mode="normal" in="SourceGraphic" in2="effect1_dropShadow" result="shape"/>
</filter>
<filter id="filter3_d" x="140" y="18" width="271" height="254.898" filterUnits="userSpaceOnUse" color-interpolation-filters="sRGB">
<feFlood flood-opacity="0" result="BackgroundImageFix"/>
<feColorMatrix in="SourceAlpha" type="matrix" values="0 0 0 0 0 0 0 0 0 0 0 0 0 0 0 0 0 0 127 0"/>
<feOffset dy="4"/>
<feGaussianBlur stdDeviation="2"/>
<feColorMatrix type="matrix" values="0 0 0 0 0 0 0 0 0 0 0 0 0 0 0 0 0 0 0.25 0"/>
<feBlend mode="normal" in2="BackgroundImageFix" result="effect1_dropShadow"/>
<feBlend mode="normal" in="SourceGraphic" in2="effect1_dropShadow" result="shape"/>
</filter>
<filter id="filter4_d" x="102" y="211" width="108" height="109" filterUnits="userSpaceOnUse" color-interpolation-filters="sRGB">
<feFlood flood-opacity="0" result="BackgroundImageFix"/>
<feColorMatrix in="SourceAlpha" type="matrix" values="0 0 0 0 0 0 0 0 0 0 0 0 0 0 0 0 0 0 127 0"/>
<feOffset dy="4"/>
<feGaussianBlur stdDeviation="2"/>
<feColorMatrix type="matrix" values="0 0 0 0 0 0 0 0 0 0 0 0 0 0 0 0 0 0 0.25 0"/>
<feBlend mode="normal" in2="BackgroundImageFix" result="effect1_dropShadow"/>
<feBlend mode="normal" in="SourceGraphic" in2="effect1_dropShadow" result="shape"/>
</filter>
</defs>
</svg>
