<svg width="212" height="203" viewBox="0 0 212 203" fill="none" xmlns="http://www.w3.org/2000/svg">
<g filter="url(#filter0_d)">
<path d="M49.2191 188C55.9382 172 208 151.5 208 151.5C208 151.5 191.865 109.844 183.5 82.5003C174.024 51.5263 163.243 2.06936 163.243 2.06936L42.5 33.8367C42.5 33.8367 19 39.0004 12 44.0002C4.99998 49 42.5 204 49.2191 188Z" fill="#FFDF00"/>
<path d="M46.1322 119.77C45.7509 119.646 45.334 119.482 44.8816 119.277C44.4292 119.072 43.959 118.847 43.471 118.602C43.1351 119.313 42.6985 119.926 42.1615 120.441C41.6416 120.926 40.9973 121.27 40.2285 121.473C38.8541 121.834 37.6482 121.89 36.611 121.64C35.5909 121.36 34.7027 120.872 33.9462 120.174C33.1898 119.476 32.5688 118.631 32.0833 117.638C31.5917 116.621 31.1988 115.554 30.9046 114.436C30.4449 112.688 30.339 111.197 30.5867 109.961C30.8283 108.702 31.328 107.524 32.0858 106.428C32.3396 106.162 32.5946 105.995 32.8509 105.928C32.8092 105.864 32.773 105.774 32.7424 105.658C32.6443 105.285 32.7976 104.921 33.2022 104.565C33.6068 104.21 34.1935 103.931 34.9623 103.729C36.1737 103.41 37.2637 103.434 38.2322 103.802C39.2008 104.17 40.0462 104.732 40.7683 105.489C41.4904 106.245 42.0972 107.132 42.5888 108.148C43.0743 109.142 43.4427 110.116 43.694 111.071C43.9392 112.003 44.0881 112.947 44.1407 113.905C44.2167 114.856 44.1811 115.762 44.0339 116.623C44.3282 116.795 44.6721 116.966 45.0656 117.136C45.4531 117.283 45.8203 117.448 46.1672 117.631C46.5314 117.784 46.8373 117.953 47.0849 118.137C47.3498 118.291 47.5097 118.473 47.5649 118.683C47.6323 118.939 47.609 119.182 47.495 119.411C47.3748 119.617 47.175 119.757 46.8954 119.831C46.6625 119.892 46.408 119.872 46.1322 119.77ZM41.5658 117.609C41.2249 117.449 40.8663 117.27 40.4899 117.07C40.1307 116.84 39.7893 116.631 39.4656 116.443C39.1591 116.224 38.8936 116.02 38.6693 115.83C38.4621 115.611 38.334 115.408 38.2849 115.221C38.2053 114.919 38.2427 114.635 38.3972 114.37C38.575 114.099 38.792 113.93 39.0482 113.862C39.2346 113.813 39.4424 113.846 39.6717 113.96C39.9243 114.068 40.1744 114.214 40.422 114.398C40.6869 114.552 40.9462 114.733 41.1999 114.94C41.477 115.141 41.7333 115.31 41.9687 115.448C42.003 114.916 41.9841 114.323 41.9118 113.669C41.8395 113.016 41.7114 112.34 41.5275 111.641C41.362 111.012 41.1168 110.317 40.792 109.555C40.4904 108.788 40.0962 108.094 39.6095 107.475C39.1167 106.833 38.5264 106.34 37.8385 105.998C37.174 105.65 36.3992 105.592 35.5139 105.825C35.1645 105.917 34.9027 106.011 34.7286 106.107C34.5484 106.179 34.4061 106.254 34.3019 106.331C34.2149 106.379 34.1511 106.42 34.1106 106.456C34.0935 106.485 34.0499 106.509 33.9801 106.528C33.8869 106.552 33.8109 106.547 33.752 106.513L33.7888 106.653C33.8868 107.025 33.8157 107.418 33.5754 107.83C33.1573 108.513 32.8789 109.395 32.7403 110.478C32.6017 111.561 32.6887 112.696 33.0012 113.884C33.2342 114.769 33.551 115.595 33.9519 116.361C34.3528 117.128 34.8224 117.776 35.3606 118.307C35.8988 118.838 36.5081 119.213 37.1886 119.433C37.8691 119.652 38.6053 119.658 39.3974 119.45C39.9099 119.315 40.3427 119.114 40.6958 118.846C41.0661 118.55 41.3561 118.137 41.5658 117.609ZM59.0325 105.466L59.1796 106.025C59.4677 107.12 59.6895 108.295 59.8452 109.549C60.0241 110.797 60.0387 111.989 59.8891 113.124C59.7566 114.23 59.4182 115.216 58.8737 116.081C58.3232 116.924 57.4772 117.495 56.3357 117.795C55.5203 118.01 54.6823 118.043 53.8216 117.896C52.9781 117.72 52.2602 117.311 51.6681 116.669C51.2243 116.213 50.7676 115.661 50.298 115.012C49.8518 114.358 49.4196 113.662 49.0016 112.925C48.6007 112.159 48.2317 111.371 47.8946 110.563C47.5807 109.749 47.3196 108.946 47.1112 108.154C47.0315 107.851 47.0634 107.594 47.2069 107.382C47.3675 107.14 47.5876 106.983 47.8672 106.909C48.1467 106.836 48.4275 106.861 48.7095 106.986C48.9853 107.088 49.1809 107.311 49.2961 107.654C49.6479 108.707 50.0347 109.751 50.4564 110.786C50.9014 111.815 51.3771 112.723 51.8834 113.512C52.4069 114.271 52.9721 114.857 53.579 115.27C54.2092 115.677 54.8737 115.789 55.5726 115.605C56.155 115.452 56.6154 115.119 56.9538 114.606C57.2861 114.071 57.5117 113.413 57.6307 112.635C57.773 111.85 57.8 110.959 57.7118 109.961C57.6174 108.939 57.4231 107.87 57.1289 106.751L56.9175 105.948C56.8317 105.622 56.8605 105.352 57.004 105.14C57.1646 104.899 57.373 104.744 57.6293 104.677C57.8855 104.61 58.1547 104.638 58.4367 104.763C58.7125 104.865 58.9111 105.099 59.0325 105.466ZM72.8623 111.168C73.2583 111.064 73.574 111.08 73.8094 111.218C74.0387 111.332 74.1901 111.529 74.2637 111.808C74.3433 112.111 74.3231 112.365 74.2029 112.571C74.0999 112.748 73.9412 112.902 73.7266 113.033C73.5353 113.158 73.2999 113.257 73.0203 113.331C72.7641 113.398 72.5311 113.46 72.3215 113.515C71.3431 113.772 70.334 113.913 69.2943 113.938C68.2717 113.933 67.3117 113.787 66.4142 113.5C65.5168 113.213 64.7284 112.773 64.0492 112.179C63.37 111.586 62.9078 110.823 62.6627 109.891C62.3991 108.889 62.4402 107.957 62.786 107.094C63.149 106.201 63.6738 105.403 64.3604 104.699C65.0471 103.996 65.8257 103.405 66.6962 102.927C67.5668 102.449 68.398 102.105 69.1901 101.897C69.5861 101.793 69.9944 101.735 70.415 101.724C70.8588 101.707 71.2744 101.772 71.6619 101.919C72.0493 102.066 72.3999 102.31 72.7138 102.651C73.0277 102.992 73.2643 103.465 73.4236 104.071C73.6136 104.793 73.5431 105.472 73.212 106.107C72.8809 106.742 72.4352 107.32 71.8749 107.841C71.3145 108.362 70.6947 108.799 70.0155 109.152C69.3362 109.505 68.755 109.758 68.2719 109.91C68.0157 109.977 67.7932 109.936 67.6044 109.787C67.4327 109.608 67.3132 109.39 67.2458 109.134C67.1906 108.924 67.1937 108.699 67.255 108.459C67.3102 108.195 67.4776 108.027 67.7571 107.953C68.1997 107.837 68.6534 107.667 69.1181 107.445C69.6061 107.217 70.0352 106.955 70.4055 106.658C70.793 106.332 71.0866 105.981 71.2865 105.605C71.4864 105.228 71.5311 104.83 71.4208 104.411C71.2553 103.782 70.695 103.593 69.7399 103.845C69.1109 104.01 68.4715 104.278 67.8217 104.648C67.1657 104.995 66.5925 105.42 66.102 105.923C65.6116 106.425 65.2388 106.996 64.9837 107.636C64.7458 108.247 64.7188 108.902 64.9027 109.601C65.0437 110.136 65.3324 110.571 65.7689 110.905C66.2286 111.232 66.7693 111.488 67.3909 111.673C68.0297 111.829 68.72 111.897 69.4617 111.876C70.2268 111.849 70.9937 111.734 71.7625 111.532C71.9489 111.483 72.1352 111.434 72.3216 111.385C72.5018 111.313 72.6821 111.24 72.8623 111.168ZM78.634 101.579C78.2637 101.876 78.1368 102.246 78.2532 102.688C78.3268 102.968 78.6253 103.25 79.1488 103.536C79.6956 103.816 80.2921 104.095 80.9382 104.373C81.6015 104.622 82.2384 104.865 82.849 105.103C83.4596 105.341 83.8887 105.552 84.1364 105.736C84.6145 106.133 84.921 106.588 85.0558 107.101C85.1968 107.636 85.1937 108.098 85.0466 108.485C84.9227 108.867 84.6873 109.203 84.3403 109.493C84.0166 109.778 83.6077 110.022 83.1136 110.227C82.6427 110.426 82.1394 110.595 81.6036 110.736C81.2309 110.834 80.7736 110.942 80.2316 111.06C79.6897 111.178 79.1502 111.257 78.6132 111.299C78.0995 111.334 77.6464 111.317 77.2541 111.246C76.8556 111.151 76.6196 110.964 76.5461 110.685C76.4848 110.452 76.4903 110.189 76.5627 109.896C76.635 109.603 76.7993 109.422 77.0556 109.355C77.0789 109.349 77.1052 109.354 77.1347 109.371C77.158 109.365 77.1929 109.356 77.2395 109.344C77.7888 109.349 78.4686 109.282 79.2791 109.144C80.0895 109.005 80.8675 108.838 81.6129 108.642C82.009 108.537 82.3198 108.393 82.5454 108.209C82.7649 108.002 82.8409 107.771 82.7735 107.514C82.7122 107.281 82.5314 107.067 82.231 106.872C81.9245 106.654 81.5628 106.463 81.1459 106.299C80.7524 106.128 80.3386 105.975 79.9046 105.841C79.4938 105.699 79.1358 105.569 78.8305 105.451C77.9502 105.134 77.2771 104.801 76.8112 104.45C76.3625 104.07 76.0677 103.612 75.9267 103.076C75.7674 102.47 75.7901 101.941 75.9948 101.489C76.2168 101.007 76.5417 100.585 76.9696 100.224C77.3976 99.862 77.8935 99.5696 78.4575 99.3465C79.0387 99.094 79.6088 98.8942 80.1679 98.7471C80.4941 98.6613 80.8233 98.5871 81.1556 98.5246C81.4878 98.4621 81.7943 98.4437 82.0751 98.4695C82.3498 98.4719 82.5901 98.5332 82.796 98.6534C82.9959 98.7503 83.1295 98.9268 83.1969 99.1831C83.2643 99.4394 83.2643 99.676 83.1969 99.893C83.1527 100.104 83.0142 100.24 82.7812 100.301C82.5716 100.356 82.2479 100.404 81.8102 100.445C81.3958 100.479 80.9206 100.567 80.3848 100.708C79.6627 100.898 79.079 101.188 78.634 101.579ZM97.6244 106.447C95.2923 106.861 93.4159 106.545 91.9949 105.499C90.5739 104.453 89.5386 102.696 88.8889 100.226L88.5028 98.7586C87.5943 98.9976 86.8157 99.1153 86.1671 99.1115C85.5124 99.0845 85.1084 98.7798 84.9552 98.1974C84.9466 97.9755 85.0055 97.7732 85.1318 97.5905C85.2519 97.3846 85.4634 97.2417 85.7663 97.1621C86.0458 97.0885 86.3928 97.0346 86.8072 97.0003C87.2216 96.966 87.6618 96.8875 88.1277 96.7649C87.9316 96.0195 87.7557 95.2562 87.6 94.4752C87.4382 93.6709 87.3328 92.9389 87.2838 92.2793C87.2581 91.6135 87.298 91.0551 87.4034 90.6039C87.5028 90.1294 87.7272 89.8462 88.0766 89.7542C88.3329 89.6868 88.5965 89.742 88.8674 89.9198C89.1322 90.0743 89.3137 90.3379 89.4118 90.7107C89.565 91.293 89.7004 92.0918 89.8181 93.107C89.9357 94.1222 90.1006 95.1748 90.3126 96.2648C90.5051 96.2391 90.6976 96.2133 90.8901 96.1876C91.0998 96.1324 91.3094 96.0773 91.5191 96.0221C91.8918 95.9241 92.2615 95.8143 92.6281 95.693C93.018 95.5655 93.4048 95.4264 93.7886 95.2756C94.1147 95.1898 94.4071 95.2125 94.6658 95.3437C94.9245 95.4749 95.0845 95.6569 95.1458 95.8899C95.2316 96.216 95.2028 96.4852 95.0593 96.6973C94.9097 96.8861 94.6927 97.0553 94.4083 97.2048C94.141 97.325 93.8093 97.4371 93.4133 97.5413C93.0406 97.6394 92.6678 97.7375 92.2951 97.8355L90.6877 98.2584C90.7318 98.5208 90.7845 98.7685 90.8458 99.0014C90.9071 99.2344 90.9684 99.4674 91.0297 99.7003C91.2503 100.539 91.5194 101.278 91.8369 101.916C92.1716 102.526 92.5927 103.038 93.1003 103.452C93.6079 103.867 94.2074 104.157 94.8989 104.324C95.5904 104.491 96.3972 104.528 97.3192 104.435C97.5877 104.414 97.8016 104.47 97.961 104.602C98.1204 104.734 98.2277 104.905 98.2828 105.115C98.3564 105.395 98.3423 105.672 98.2405 105.948C98.1559 106.195 97.9505 106.361 97.6244 106.447ZM101.373 93.4295C101.622 93.2395 101.816 93.1261 101.956 93.0893C102.143 93.0403 102.344 93.0495 102.561 93.1169C102.718 93.0507 102.887 92.9815 103.067 92.9091C103.264 92.8074 103.433 92.7381 103.573 92.7014C104.342 92.4991 105.083 92.4783 105.798 92.6389C106.507 92.7763 107.153 93.0547 107.737 93.474C108.343 93.8872 108.87 94.4212 109.316 95.076C109.762 95.7307 110.093 96.4658 110.307 97.2811C110.497 98.0033 110.541 98.7389 110.44 99.488C110.355 100.208 110.136 100.888 109.781 101.529C109.45 102.165 109.01 102.716 108.461 103.185C107.911 103.653 107.287 103.979 106.588 104.163C105.726 104.39 104.898 104.458 104.102 104.369C103.306 104.279 102.588 104.057 101.946 103.703C101.305 103.348 100.744 102.873 100.264 102.277C99.8064 101.675 99.4736 100.978 99.2652 100.186C99.0997 99.5573 99.001 98.8983 98.9692 98.2092C98.9312 97.4969 98.9901 96.8213 99.1459 96.1825C99.3016 95.5438 99.5518 94.9798 99.8963 94.4906C100.264 93.9953 100.756 93.6416 101.373 93.4295ZM102.271 95.1363C101.8 95.3349 101.476 95.6193 101.299 95.9896C101.117 96.3365 101.008 96.7264 100.972 97.1592C100.96 97.5859 101 98.0236 101.093 98.4723C101.18 98.8978 101.27 99.2852 101.362 99.6347C101.472 100.054 101.655 100.467 101.912 100.872C102.162 101.255 102.484 101.581 102.879 101.851C103.291 102.091 103.757 102.255 104.278 102.342C104.8 102.429 105.398 102.384 106.073 102.206C106.586 102.071 107.016 101.858 107.363 101.568C107.727 101.248 107.994 100.891 108.165 100.498C108.352 100.075 108.461 99.6351 108.49 99.179C108.52 98.7229 108.473 98.2619 108.351 97.796C108.032 96.5846 107.48 95.6711 106.695 95.0556C105.905 94.4168 105.011 94.1911 104.014 94.3786L103.35 94.5533C103.164 94.6024 102.978 94.701 102.793 94.8494C102.608 94.9977 102.434 95.0934 102.271 95.1363ZM114.574 100.717C114.482 99.8941 114.364 99.1155 114.221 98.3811C114.095 97.6173 113.937 96.8743 113.747 96.1521C113.373 94.731 112.847 93.3002 112.169 91.8595C112.127 91.7958 112.091 91.7056 112.06 91.5892C111.975 91.263 111.997 90.9706 112.128 90.7119C112.283 90.4471 112.5 90.2779 112.78 90.2043C113.082 90.1247 113.331 90.1713 113.526 90.3442C113.744 90.5109 113.931 90.7482 114.087 91.0559C114.237 91.3404 114.372 91.6659 114.493 92.0325C114.632 92.3697 114.779 92.6922 114.935 92.9999C115.158 92.6174 115.466 92.2251 115.858 91.8229C116.25 91.4208 116.675 91.0475 117.133 90.703C117.613 90.3523 118.106 90.0483 118.611 89.7909C119.11 89.5101 119.593 89.3085 120.059 89.1859C120.315 89.1185 120.564 89.1651 120.805 89.3257C121.047 89.4863 121.201 89.6948 121.269 89.951C121.33 90.184 121.322 90.4353 121.243 90.705C121.158 90.9515 120.965 91.1145 120.662 91.1942C120.103 91.3413 119.548 91.5994 118.997 91.9684C118.441 92.3141 117.934 92.7089 117.478 93.1527C117.045 93.5904 116.68 94.0477 116.382 94.5246C116.107 94.9954 115.946 95.4239 115.898 95.8101C115.974 96.2883 116.087 96.8566 116.235 97.515C116.4 98.144 116.513 98.7619 116.573 99.3688C116.65 99.9463 116.648 100.458 116.566 100.903C116.484 101.348 116.256 101.619 115.883 101.717C115.65 101.779 115.396 101.758 115.12 101.657C114.868 101.549 114.695 101.32 114.603 100.971C114.579 100.877 114.569 100.793 114.574 100.717ZM132.245 86.6522C132.326 86.1079 132.633 85.6659 133.166 85.3263C133.7 84.9867 134.281 84.7342 134.91 84.5687C136.292 84.3297 137.326 84.5682 138.012 85.2843C138.699 86.0003 139.245 87.1271 139.649 88.6646C139.9 89.6198 140.09 90.5289 140.217 91.3921C140.339 92.2319 140.397 92.9762 140.394 93.6248C140.413 94.2672 140.356 94.8055 140.221 95.2395C140.103 95.6441 139.916 95.8801 139.66 95.9475C139.45 96.0027 139.239 95.9585 139.027 95.8151C138.838 95.6655 138.701 95.4276 138.615 95.1015C138.505 94.6822 138.42 94.2187 138.361 93.7111C138.296 93.1802 138.243 92.6462 138.201 92.1092C138.16 91.5722 138.107 91.0382 138.042 90.5073C137.977 89.9765 137.88 89.4664 137.751 88.9772C137.494 87.9988 137.146 87.2931 136.708 86.8603C136.265 86.4042 135.67 86.2742 134.924 86.4703C134.517 86.6272 134.173 86.8798 133.891 87.228C133.603 87.5529 133.459 87.952 133.459 88.4252C133.543 88.652 133.619 88.8936 133.687 89.1498C133.777 89.4 133.859 89.6648 133.933 89.9444C134.184 90.8995 134.377 91.8203 134.51 92.7067C134.667 93.5871 134.75 94.3748 134.758 95.07C134.761 95.7419 134.698 96.3065 134.569 96.7638C134.457 97.1917 134.262 97.4424 133.982 97.516C133.749 97.5773 133.527 97.5362 133.315 97.3927C133.126 97.2431 132.989 97.0053 132.903 96.6791C132.792 96.2598 132.711 95.808 132.658 95.3237C132.623 94.81 132.576 94.2993 132.517 93.7917C132.475 93.2547 132.425 92.7324 132.366 92.2248C132.324 91.6877 132.239 91.1746 132.11 90.6854C131.871 89.7769 131.573 89.0706 131.217 88.5667C130.877 88.0333 130.346 87.8617 129.624 88.0517C129.158 88.1742 128.755 88.3925 128.414 88.7063C128.067 88.9969 127.812 89.1636 127.649 89.2065C127.462 89.2556 127.275 89.2053 127.086 89.0557C126.921 88.9 126.81 88.7173 126.755 88.5076C126.688 88.2514 126.723 88.0055 126.86 87.7701C127.014 87.5053 127.228 87.2748 127.5 87.0787C127.766 86.8592 128.076 86.6655 128.431 86.4976C128.785 86.3296 129.137 86.1997 129.486 86.1077C129.975 85.979 130.457 85.9643 130.932 86.0637C131.423 86.1336 131.861 86.3298 132.245 86.6522ZM125.506 87.4537C125.593 87.8792 125.695 88.3132 125.812 88.7558C125.922 89.1752 126.035 89.6061 126.152 90.0488C126.464 91.2368 126.797 92.4071 127.15 93.5597C127.52 94.6828 127.898 95.6919 128.283 96.5869C128.387 96.9829 128.371 97.2987 128.233 97.5341C128.113 97.74 127.925 97.8767 127.669 97.9441C127.436 98.0054 127.204 97.9791 126.975 97.865C126.746 97.751 126.565 97.537 126.433 97.2231C126.023 96.2349 125.636 95.1909 125.272 94.0911C124.908 92.9913 124.57 91.8473 124.257 90.6592C124.178 90.3564 124.074 90.01 123.947 89.6201C123.819 89.2302 123.733 88.8544 123.687 88.4927C123.642 88.131 123.659 87.8153 123.737 87.5456C123.833 87.2464 124.055 87.0509 124.405 86.9589C124.638 86.8977 124.869 86.924 125.098 87.0381C125.321 87.1288 125.457 87.2674 125.506 87.4537ZM144.004 83.6331C144.099 84.1811 144.199 84.7525 144.306 85.3471C144.436 85.9357 144.58 86.5328 144.74 87.1385C144.967 88.0004 145.228 88.8532 145.525 89.6967C145.845 90.5341 146.112 91.3605 146.327 92.1759C146.449 92.6418 146.425 93.0219 146.253 93.3161C146.105 93.6042 145.902 93.782 145.646 93.8494C145.413 93.9107 145.194 93.8813 144.988 93.7611C144.799 93.6115 144.644 93.3534 144.522 92.9868C144.177 91.9569 143.856 91.0202 143.559 90.1766C143.279 89.3036 143.023 88.4245 142.79 87.5393C142.698 87.1898 142.57 86.7503 142.406 86.2206C142.259 85.6615 142.144 85.1312 142.062 84.6298C141.997 84.0989 142 83.6373 142.071 83.2449C142.16 82.8231 142.39 82.5632 142.763 82.4652C142.996 82.4039 143.222 82.4566 143.44 82.6234C143.681 82.784 143.848 83.039 143.94 83.3885L144.004 83.6331ZM140.231 76.1072C140.312 76.0361 140.387 75.9914 140.457 75.973C140.55 75.9485 140.635 75.9387 140.711 75.9436C140.81 75.9423 140.883 75.9356 140.93 75.9233C141.04 75.8694 141.142 75.8302 141.235 75.8057C141.322 75.7578 141.424 75.7186 141.54 75.688C142.309 75.4857 142.947 75.5918 143.455 76.0062C143.986 76.4146 144.328 76.9099 144.481 77.4923C144.555 77.7719 144.564 78.0931 144.51 78.456C144.48 78.8128 144.373 79.1647 144.19 79.5116C144.025 79.8292 143.78 80.1302 143.456 80.4146C143.133 80.699 142.726 80.9056 142.237 81.0343C141.911 81.1201 141.587 81.1183 141.264 81.0287C140.942 80.9392 140.645 80.8056 140.374 80.6278C140.097 80.4267 139.86 80.19 139.664 79.9178C139.462 79.6223 139.321 79.3232 139.241 79.0203C139.119 78.5544 139.141 78.0254 139.309 77.4332C139.501 76.8349 139.808 76.3929 140.231 76.1072ZM141.548 77.7036L141.268 77.7772C141.164 77.8544 141.104 77.9574 141.088 78.0862C141.072 78.2149 141.079 78.3375 141.11 78.454C141.165 78.6636 141.299 78.8402 141.511 78.9837C141.717 79.1038 141.89 79.1455 142.029 79.1087C142.379 79.0168 142.584 78.8507 142.646 78.6104C142.701 78.3468 142.704 78.1218 142.655 77.9354C142.44 77.5933 142.158 77.4683 141.809 77.5602C141.762 77.5725 141.675 77.6203 141.548 77.7036ZM151.946 80.8712C152.257 80.5401 152.645 80.2637 153.11 80.0418C153.598 79.8138 154.11 79.6293 154.646 79.4883C155.403 79.3388 156.078 79.2983 156.669 79.367C157.26 79.4357 157.785 79.6338 158.245 79.9611C158.698 80.2652 159.093 80.722 159.427 81.3314C159.756 81.9174 160.043 82.6764 160.288 83.6082C160.539 84.5633 160.729 85.4725 160.856 86.3357C160.977 87.1755 161.039 87.9314 161.042 88.6033C161.038 89.2519 160.966 89.7815 160.824 90.1923C160.713 90.6202 160.517 90.8709 160.238 90.9444C160.028 90.9996 159.823 90.9787 159.624 90.8819C159.424 90.785 159.284 90.5851 159.204 90.2823C159.125 89.9795 159.058 89.5859 159.006 89.1016C158.97 88.5878 158.928 88.0508 158.881 87.4905C158.85 86.9008 158.796 86.3171 158.719 85.7397C158.659 85.1328 158.565 84.5847 158.436 84.0955C158.258 83.4199 158.059 82.8994 157.838 82.534C157.635 82.1392 157.397 81.8529 157.127 81.6751C156.873 81.4679 156.582 81.3576 156.255 81.3441C155.921 81.3072 155.55 81.3177 155.142 81.3753C154.653 81.504 154.185 81.7142 153.739 82.006C153.293 82.2978 152.895 82.4896 152.545 82.5816C152.336 82.6367 152.139 82.6012 151.957 82.4749C151.797 82.3424 151.69 82.1714 151.635 81.9617C151.592 81.7987 151.584 81.6264 151.611 81.4449C151.655 81.2341 151.767 81.0428 151.946 80.8712ZM150.316 80.9262C150.721 82.4638 151.143 84.0215 151.583 85.5995C152.017 87.1542 152.496 88.5476 153.019 89.7799L153.084 90.0245C153.188 90.4205 153.163 90.7509 153.008 91.0158C152.871 91.2512 152.686 91.3995 152.453 91.4608C152.243 91.516 152.021 91.4749 151.785 91.3375C151.55 91.2002 151.357 90.9397 151.206 90.5559C150.795 89.4683 150.399 88.3397 150.016 87.17C149.634 86.0003 149.277 84.7865 148.946 83.5285C148.879 83.2723 148.79 82.9841 148.681 82.6641C148.572 82.3441 148.492 82.0413 148.442 81.7556C148.409 81.4405 148.438 81.1714 148.529 80.9482C148.637 80.6957 148.854 80.5265 149.18 80.4407C149.413 80.3794 149.644 80.4057 149.873 80.5198C150.12 80.6044 150.267 80.7399 150.316 80.9262ZM175.251 87.3682C175.352 88.0389 175.256 88.7616 174.962 89.5365C174.674 90.3346 174.254 91.1052 173.702 91.8482C173.173 92.585 172.542 93.2618 171.807 93.8785C171.079 94.5184 170.337 95.0125 169.582 95.3607C169.542 95.3962 169.475 95.4262 169.382 95.4508C169.079 95.5304 168.797 95.455 168.537 95.2245C168.278 94.994 168.105 94.7157 168.019 94.3895C167.964 94.1799 167.958 93.9696 168.002 93.7587C168.076 93.565 168.22 93.4025 168.435 93.2714C169.103 92.971 169.729 92.5572 170.312 92.0301C170.919 91.4968 171.441 90.9236 171.878 90.3106C172.314 89.6976 172.64 89.0888 172.854 88.4844C173.069 87.88 173.13 87.3534 173.036 86.9046C172.626 85.3438 172.186 83.8155 171.718 82.3196C171.244 80.8005 170.758 79.2844 170.26 77.7714C170.008 77.7628 169.772 77.7628 169.55 77.7714C169.328 77.78 169.106 77.7885 168.884 77.7971L167.564 78.0324C166.306 78.3634 165.45 78.8998 164.998 79.6415C164.539 80.36 164.411 81.1036 164.614 81.8723C164.969 83.2235 165.654 84.0769 166.67 84.4325C167.708 84.782 168.926 84.7729 170.324 84.4051L170.708 84.304C170.895 84.2549 171.094 84.3022 171.306 84.4456C171.541 84.583 171.693 84.7797 171.76 85.036C171.852 85.3854 171.812 85.6576 171.639 85.8526C171.489 86.0414 171.146 86.2063 170.611 86.3472C169.423 86.6598 168.369 86.775 167.451 86.6928C166.55 86.5812 165.764 86.3396 165.093 85.9681C164.417 85.5732 163.861 85.0717 163.427 84.4636C163.016 83.8493 162.713 83.1694 162.517 82.424C162.315 81.6552 162.277 80.9428 162.403 80.2869C162.546 79.6015 162.822 78.9934 163.231 78.4625C163.662 77.9255 164.188 77.4633 164.809 77.0759C165.452 76.6824 166.182 76.3784 166.997 76.1639C167.58 76.0106 168.151 75.9101 168.711 75.8623C169.272 75.8146 169.745 75.8146 170.131 75.8624C170.259 75.7791 170.392 75.719 170.532 75.6822C170.812 75.6087 171.083 75.5995 171.347 75.6547C171.61 75.7099 171.808 75.8944 171.941 76.2083C172.413 77.5288 172.867 78.8291 173.303 80.1091C173.757 81.3597 174.149 82.614 174.48 83.872C174.633 84.4544 174.775 85.0398 174.905 85.6284C175.029 86.1936 175.144 86.7735 175.251 87.3682Z" fill="black"/>
</g>
<defs>
<filter id="filter0_d" x="0.303833" y="0.583618" width="211.696" height="202.062" filterUnits="userSpaceOnUse" color-interpolation-filters="sRGB">
<feFlood flood-opacity="0" result="BackgroundImageFix"/>
<feColorMatrix in="SourceAlpha" type="matrix" values="0 0 0 0 0 0 0 0 0 0 0 0 0 0 0 0 0 0 127 0"/>
<feOffset dy="4"/>
<feGaussianBlur stdDeviation="2"/>
<feColorMatrix type="matrix" values="0 0 0 0 0 0 0 0 0 0 0 0 0 0 0 0 0 0 0.25 0"/>
<feBlend mode="normal" in2="BackgroundImageFix" result="effect1_dropShadow"/>
<feBlend mode="normal" in="SourceGraphic" in2="effect1_dropShadow" result="shape"/>
</filter>
</defs>
</svg>
