<svg width="221" height="206" viewBox="0 0 221 206" fill="none" xmlns="http://www.w3.org/2000/svg">
<g filter="url(#filter0_d)">
<path d="M53.7303 3.42921L208.572 43.7302L177.5 197.5L4.50001 153L53.7303 3.42921Z" fill="#FFDF00"/>
<path d="M64.4417 64.0276C64.9022 62.9278 65.3788 61.6704 65.8716 60.2554C66.3704 58.817 66.8079 57.3752 67.184 55.9299C67.4935 54.741 67.7351 53.6215 67.9088 52.5715C68.0886 51.4982 68.1585 50.6079 68.1186 49.9006C68.0668 49.8124 68.0622 49.6868 68.1047 49.5236C67.382 49.3355 66.7146 49.1742 66.1024 49.0398C65.5196 48.8881 65.0159 48.7197 64.5911 48.5344C64.1897 48.3553 63.8937 48.1538 63.7031 47.9299C63.5124 47.7061 63.4626 47.4193 63.5536 47.0696C63.6143 46.8365 63.7621 46.651 63.9972 46.513C64.2555 46.3811 64.5595 46.3607 64.9092 46.4517C65.3167 46.6075 65.7855 46.7669 66.3156 46.9297C66.869 47.0987 67.4488 47.262 68.0549 47.4198C69.2671 47.7353 70.497 48.0305 71.7447 48.3055C72.9984 48.5571 74.0484 48.7308 74.8947 48.8266L75.1045 48.8812C75.3842 48.954 75.5931 49.108 75.731 49.343C75.875 49.5547 75.9167 49.7771 75.856 50.0103C75.7711 50.3366 75.5528 50.5536 75.2012 50.6612C74.873 50.7749 74.4519 50.8147 73.9381 50.7805C73.4476 50.7524 72.8846 50.6681 72.2491 50.5276C71.6136 50.3871 70.9578 50.2288 70.2818 50.0529C70.3086 50.9062 70.2023 51.9364 69.9628 53.1435C69.7527 54.3333 69.4807 55.5693 69.147 56.8515C68.9347 57.6674 68.702 58.4656 68.4491 59.2461C68.2195 60.0326 67.9757 60.7781 67.7177 61.4826C67.4829 62.1931 67.2517 62.8423 67.0241 63.4302C66.8024 63.9948 66.6167 64.4692 66.467 64.8534C66.3354 65.1676 66.1318 65.376 65.8562 65.4785C65.6039 65.5871 65.3613 65.611 65.1281 65.5503C64.8717 65.4836 64.6482 65.3383 64.4575 65.1144C64.2902 64.8967 64.249 64.6246 64.3339 64.2982C64.3643 64.1817 64.4002 64.0914 64.4417 64.0276ZM83.5035 68.5408C83.8998 68.6439 84.1669 68.813 84.3049 69.0481C84.4489 69.2598 84.4845 69.5055 84.4117 69.7853C84.3328 70.0883 84.1905 70.3002 83.9849 70.4209C83.8086 70.5244 83.5948 70.5807 83.3435 70.59C83.1155 70.6053 82.8616 70.5766 82.5819 70.5038C82.3254 70.437 82.0923 70.3764 81.8825 70.3218C80.9034 70.0669 79.9547 69.6955 79.0362 69.2076C78.1472 68.7024 77.3817 68.1049 76.7398 67.4151C76.098 66.7253 75.6263 65.9554 75.3248 65.1053C75.0234 64.2552 74.994 63.364 75.2367 62.4315C75.4976 61.4291 75.9902 60.6363 76.7144 60.0532C77.4681 59.4528 78.3166 59.0141 79.2599 58.7369C80.2032 58.4597 81.1715 58.3259 82.1646 58.3355C83.1578 58.345 84.0507 58.453 84.8433 58.6593C85.2396 58.7624 85.6237 58.9122 85.9958 59.1086C86.3911 59.311 86.7216 59.5713 86.9873 59.8894C87.253 60.2074 87.4392 60.5919 87.5458 61.0428C87.6525 61.4937 87.627 62.0222 87.4692 62.6284C87.2811 63.351 86.8872 63.9081 86.2875 64.2996C85.6878 64.6911 85.016 64.9768 84.2723 65.1566C83.5285 65.3364 82.7741 65.4138 82.009 65.3889C81.2438 65.364 80.6134 65.2995 80.1178 65.1954C79.8614 65.1286 79.6875 64.9838 79.5962 64.7609C79.5342 64.5208 79.5366 64.2725 79.6034 64.0161C79.658 63.8062 79.7709 63.6116 79.942 63.4321C80.1193 63.2294 80.3478 63.1644 80.6275 63.2372C81.0704 63.3525 81.5488 63.4272 82.0626 63.4614C82.5997 63.5016 83.1024 63.4831 83.5705 63.4058C84.0681 63.3113 84.4961 63.1489 84.8548 62.9186C85.2134 62.6884 85.4473 62.3635 85.5565 61.9438C85.7203 61.3144 85.3244 60.8753 84.3686 60.6266C83.7391 60.4627 83.0505 60.3831 82.3026 60.3875C81.5608 60.3687 80.8529 60.4583 80.1791 60.6563C79.5053 60.8543 78.9005 61.1698 78.3646 61.6028C77.8582 62.0186 77.5139 62.5762 77.3319 63.2755C77.1923 63.8117 77.2311 64.332 77.4483 64.8366C77.6888 65.3472 78.0346 65.8355 78.4858 66.3014C78.9664 66.7501 79.5352 67.147 80.1921 67.4922C80.8723 67.8435 81.597 68.1193 82.3663 68.3195C82.5528 68.368 82.7393 68.4166 82.9258 68.4651C83.1184 68.4903 83.3109 68.5156 83.5035 68.5408ZM94.4575 63.1778L93.5483 62.9411C93.0974 63.0478 92.7216 63.2487 92.4207 63.5437C92.1199 63.8388 91.8597 64.1693 91.64 64.5353C91.4496 64.884 91.2973 65.2302 91.183 65.5738C91.0687 65.9174 90.9842 66.1941 90.9296 66.4039C90.8082 66.8702 90.7512 67.3282 90.7586 67.7782C90.7892 68.2342 90.8787 68.6557 91.0268 69.0428C91.2044 69.4126 91.4321 69.7332 91.7099 70.0046C91.9877 70.2761 92.3365 70.4664 92.7561 70.5756C93.502 70.7698 94.1157 70.7552 94.5969 70.532C95.1015 70.3149 95.5107 69.9858 95.8246 69.5448C96.1618 69.1098 96.4266 68.6187 96.6188 68.0713C96.8171 67.5007 96.98 66.9706 97.1074 66.481C97.1397 66.1658 97.1136 65.8355 97.0293 65.49C96.9511 65.1211 96.8141 64.7868 96.6183 64.4869C96.4459 64.1931 96.2263 63.9368 95.9597 63.7181C95.7224 63.4821 95.4522 63.3247 95.1492 63.2458C94.9161 63.1851 94.6855 63.1624 94.4575 63.1778ZM97.6295 70.4999C97.094 71.5055 96.3105 72.1728 95.279 72.5017C94.2475 72.8306 93.1956 72.8556 92.1233 72.5764C91.354 72.3762 90.7088 72.0341 90.1876 71.5499C89.6958 71.0486 89.3216 70.4782 89.0648 69.8389C88.8141 69.1763 88.6719 68.4796 88.638 67.749C88.6335 67.0011 88.7223 66.2775 88.9043 65.5781C89.0499 65.0186 89.2776 64.4307 89.5874 63.8144C89.9032 63.1747 90.2855 62.6146 90.7341 62.134C91.1828 61.6534 91.7005 61.2903 92.2871 61.0447C92.8798 60.7758 93.5258 60.7324 94.2252 60.9144C94.5982 61.0115 94.8455 61.1132 94.9672 61.2196C95.0898 61.2266 95.1977 61.2422 95.291 61.2665C95.3842 61.2908 95.4891 61.3181 95.6057 61.3484C96.7013 61.6336 97.5032 62.0912 98.0113 62.7213C98.5194 63.3513 98.8628 64.0879 99.0416 64.9309C99.2499 65.7568 99.3552 66.6429 99.3578 67.5895C99.3603 68.536 99.4186 69.4597 99.5326 70.3605C99.5531 70.6645 99.611 71.0157 99.7065 71.4139C99.8081 71.7888 99.9096 72.1637 100.011 72.5386C100.113 72.9135 100.188 73.2443 100.238 73.5311C100.311 73.8239 100.33 74.0403 100.293 74.1802C100.227 74.4366 100.082 74.6105 99.8588 74.7018C99.6359 74.7931 99.4079 74.8085 99.1748 74.7478C98.9417 74.6871 98.7212 74.5302 98.5133 74.2769C98.3348 74.0064 98.1715 73.6777 98.0233 73.2906C97.8984 72.9097 97.8004 72.4735 97.7292 71.982C97.6579 71.4905 97.6247 70.9965 97.6295 70.4999ZM113.644 67.4994C113.981 67.0644 114.465 66.8296 115.097 66.7948C115.728 66.7599 116.358 66.8245 116.988 66.9883C118.31 67.4567 119.094 68.1713 119.342 69.1318C119.59 70.0924 119.514 71.342 119.113 72.8806C118.864 73.8364 118.584 74.7217 118.273 75.5367C117.967 76.3283 117.654 77.006 117.333 77.5696C117.035 78.1393 116.721 78.5803 116.391 78.8927C116.09 79.1877 115.812 79.3019 115.555 79.2352C115.345 79.1805 115.183 79.0388 115.068 78.8098C114.977 78.5869 114.974 78.3123 115.059 77.9859C115.168 77.5663 115.321 77.1208 115.519 76.6494C115.722 76.1548 115.937 75.6632 116.164 75.1746C116.391 74.686 116.606 74.1944 116.809 73.6997C117.013 73.205 117.178 72.7129 117.305 72.2234C117.56 71.2443 117.603 70.4589 117.433 69.8671C117.27 69.2521 116.815 68.8475 116.069 68.6533C115.637 68.5907 115.213 68.6421 114.797 68.8076C114.386 68.9497 114.065 69.227 113.834 69.6396C113.796 69.8788 113.744 70.1266 113.677 70.383C113.634 70.6455 113.576 70.9166 113.503 71.1964C113.254 72.1522 112.971 73.0492 112.653 73.8875C112.359 74.7318 112.045 75.4591 111.712 76.0694C111.385 76.6563 111.053 77.1176 110.717 77.4532C110.41 77.7716 110.117 77.8944 109.837 77.8216C109.604 77.7609 109.43 77.6161 109.315 77.3871C109.224 77.1642 109.221 76.8896 109.306 76.5632C109.415 76.1436 109.565 75.7098 109.757 75.2618C109.977 74.7965 110.186 74.3282 110.384 73.8568C110.61 73.3682 110.822 72.8883 111.02 72.4169C111.247 71.9283 111.424 71.4393 111.551 70.9497C111.788 70.0405 111.874 69.2789 111.81 68.6648C111.775 68.0335 111.396 67.6238 110.673 67.4357C110.207 67.3143 109.749 67.307 109.298 67.4136C108.853 67.497 108.549 67.5174 108.386 67.475C108.199 67.4264 108.06 67.2907 107.969 67.0678C107.901 66.851 107.894 66.6376 107.949 66.4278C108.016 66.1714 108.166 65.9742 108.402 65.8363C108.666 65.6811 108.965 65.5846 109.298 65.5469C109.638 65.4859 110.003 65.469 110.394 65.4962C110.785 65.5233 111.156 65.5824 111.506 65.6734C111.995 65.8008 112.422 66.024 112.787 66.343C113.182 66.6448 113.467 67.0303 113.644 67.4994ZM107.376 64.8974C107.244 65.3109 107.12 65.7392 107.005 66.1821C106.896 66.6017 106.783 67.033 106.668 67.4759C106.359 68.6648 106.075 69.8481 105.819 71.0259C105.591 72.1864 105.426 73.251 105.323 74.2199C105.22 74.6162 105.051 74.8833 104.816 75.0213C104.61 75.142 104.379 75.169 104.123 75.1023C103.89 75.0416 103.701 74.9054 103.557 74.6937C103.413 74.4819 103.36 74.2068 103.399 73.8683C103.526 72.8062 103.7 71.7065 103.921 70.5694C104.143 69.4322 104.408 68.2692 104.717 67.0803C104.796 66.7772 104.876 66.4245 104.956 66.0221C105.035 65.6198 105.144 65.2498 105.282 64.9123C105.419 64.5747 105.588 64.3076 105.789 64.1109C106.019 63.8969 106.309 63.8354 106.658 63.9264C106.892 63.9871 107.08 64.1233 107.224 64.335C107.374 64.5235 107.425 64.7109 107.376 64.8974ZM132.548 81.0817C133.038 79.9647 133.511 78.7189 133.969 77.3445C134.449 75.9761 134.872 74.5926 135.236 73.1938C135.527 72.0749 135.753 71.0137 135.915 70.0103C136.077 69.007 136.12 68.1719 136.044 67.5051C136.041 67.2305 135.879 67.039 135.559 66.9308C135.239 66.8225 134.892 66.7198 134.519 66.6228C134.169 66.5318 133.858 66.3885 133.586 66.1931C133.319 65.9743 133.246 65.6319 133.368 65.1656C133.428 64.9325 133.576 64.747 133.811 64.609C134.069 64.4771 134.374 64.4567 134.723 64.5477C135.177 64.7157 135.599 64.8629 135.99 64.9893C136.403 65.1219 136.797 65.2367 137.169 65.3337C137.706 65.4733 138.315 65.5697 138.998 65.6231C139.705 65.6825 140.466 65.8183 141.282 66.0307C141.562 66.1035 141.77 66.2574 141.908 66.4925C142.052 66.7042 142.094 66.9266 142.033 67.1597C141.954 67.4628 141.763 67.6742 141.458 67.7939C141.176 67.9198 140.848 67.9838 140.474 67.986C140.1 67.9883 139.712 67.9495 139.31 67.8696C138.907 67.7898 138.555 67.7104 138.252 67.6316C138.266 68.5315 138.145 69.6199 137.887 70.897C137.653 72.1801 137.363 73.486 137.017 74.8148C136.671 76.1436 136.276 77.4222 135.832 78.6507C135.417 79.862 135.06 80.8518 134.76 81.6201C135.11 81.7111 135.466 81.7788 135.827 81.8232C136.219 81.8504 136.647 81.9246 137.113 82.046C137.393 82.1188 137.602 82.2727 137.74 82.5077C137.884 82.7194 137.932 82.9186 137.883 83.1051C137.792 83.4547 137.548 83.6773 137.149 83.7728C136.751 83.8683 136.295 83.8989 135.781 83.8648C135.268 83.8306 134.743 83.7437 134.206 83.6042C133.664 83.4879 133.206 83.3813 132.834 83.2842C132.437 83.1811 132.006 83.0688 131.54 82.9475C131.097 82.8322 130.686 82.688 130.308 82.5149C129.93 82.3418 129.634 82.1403 129.42 81.9104C129.206 81.6805 129.142 81.4023 129.227 81.076C129.287 80.8429 129.432 80.669 129.661 80.5543C129.919 80.4224 130.223 80.402 130.573 80.493C130.73 80.5588 130.887 80.6246 131.044 80.6904C131.231 80.7389 131.417 80.7874 131.604 80.836L132.548 81.0817ZM152.807 70.5238C152.802 70.4478 152.814 70.3515 152.845 70.235C152.93 69.9086 153.09 69.6764 153.325 69.5385C153.56 69.4005 153.794 69.3619 154.027 69.4226C154.283 69.4893 154.501 69.6579 154.679 69.9284C154.864 70.1756 154.928 70.5034 154.871 70.9118C154.697 72.0611 154.46 73.3062 154.161 74.6471C153.861 75.988 153.53 77.3579 153.166 78.7566C152.802 80.1553 152.397 81.5185 151.952 82.8464C151.513 84.1509 151.08 85.3824 150.654 86.541C150.523 86.8552 150.345 87.058 150.122 87.1493C149.9 87.2407 149.695 87.2621 149.508 87.2135C149.369 87.1771 149.217 87.088 149.055 86.9462C148.669 86.9951 148.161 86.9873 147.531 86.9228C146.9 86.8583 146.294 86.7502 145.711 86.5985C144.941 86.3982 144.225 86.1372 143.562 85.8153C142.899 85.4934 142.345 85.0878 141.9 84.5986C141.478 84.1154 141.192 83.543 141.04 82.8814C140.895 82.1964 140.941 81.3993 141.177 80.4901C141.372 79.7441 141.674 79.0138 142.084 78.2991C142.5 77.5611 143.011 76.9351 143.618 76.4209C144.254 75.8895 144.973 75.5167 145.776 75.3024C146.608 75.0709 147.513 75.0826 148.492 75.3374C148.749 75.4041 149.014 75.4856 149.288 75.5817C149.561 75.6778 149.802 75.8028 150.011 75.9568C150.22 76.1107 150.37 76.2991 150.462 76.522C150.576 76.751 150.594 77.017 150.515 77.32C150.455 77.5531 150.345 77.7361 150.186 77.869C150.033 77.9785 149.875 78.012 149.711 77.9696C149.432 77.8967 149.176 77.7804 148.944 77.6204C148.711 77.4604 148.467 77.347 148.211 77.2803C147.185 77.0133 146.208 77.1821 145.279 77.7866C144.356 78.3678 143.688 79.451 143.275 81.0362C143.063 81.8521 143.173 82.5777 143.605 83.2128C144.066 83.8307 144.962 84.3126 146.29 84.6585C146.71 84.7677 147.177 84.8394 147.691 84.8735C148.204 84.9077 148.7 84.9622 149.179 85.0369C149.522 84.0061 149.878 82.8293 150.247 81.5066C150.616 80.1839 150.974 78.8581 151.32 77.5293C151.665 76.2006 151.961 74.921 152.207 73.6905C152.476 72.4662 152.676 71.4106 152.807 70.5238ZM163.09 89.255C163.487 89.3582 163.754 89.5273 163.892 89.7623C164.036 89.974 164.071 90.2198 163.998 90.4995C163.92 90.8026 163.777 91.0145 163.572 91.1352C163.395 91.2386 163.182 91.295 162.93 91.3043C162.702 91.3196 162.448 91.2908 162.169 91.218C161.912 91.1513 161.679 91.0906 161.469 91.036C160.49 90.7812 159.541 90.4098 158.623 89.9218C157.734 89.4166 156.968 88.8192 156.327 88.1294C155.685 87.4396 155.213 86.6697 154.912 85.8196C154.61 84.9695 154.581 84.0782 154.823 83.1457C155.084 82.1433 155.577 81.3506 156.301 80.7675C157.055 80.1671 157.903 79.7283 158.847 79.4511C159.79 79.1739 160.758 79.0401 161.751 79.0497C162.745 79.0593 163.637 79.1672 164.43 79.3735C164.826 79.4767 165.211 79.6264 165.583 79.8228C165.978 80.0253 166.308 80.2856 166.574 80.6036C166.84 80.9217 167.026 81.3062 167.133 81.7571C167.239 82.208 167.214 82.7365 167.056 83.3426C166.868 84.0653 166.474 84.6224 165.874 85.0139C165.275 85.4054 164.603 85.691 163.859 85.8708C163.115 86.0506 162.361 86.1281 161.596 86.1032C160.831 86.0782 160.2 86.0137 159.705 85.9096C159.448 85.8429 159.274 85.6981 159.183 85.4752C159.121 85.235 159.123 84.9867 159.19 84.7303C159.245 84.5205 159.358 84.3259 159.529 84.1464C159.706 83.9436 159.935 83.8786 160.214 83.9514C160.657 84.0667 161.136 84.1414 161.649 84.1756C162.187 84.2158 162.689 84.1973 163.157 84.12C163.655 84.0255 164.083 83.8631 164.442 83.6329C164.8 83.4026 165.034 83.0777 165.143 82.6581C165.307 82.0287 164.911 81.5896 163.955 81.3408C163.326 81.177 162.637 81.0973 161.889 81.1018C161.148 81.083 160.44 81.1725 159.766 81.3705C159.092 81.5685 158.487 81.884 157.951 82.3171C157.445 82.7328 157.101 83.2904 156.919 83.9898C156.779 84.5259 156.818 85.0463 157.035 85.5509C157.276 86.0615 157.621 86.5498 158.073 87.0157C158.553 87.4643 159.122 87.8613 159.779 88.2065C160.459 88.5578 161.184 88.8335 161.953 89.0337C162.14 89.0823 162.326 89.1308 162.513 89.1794C162.705 89.2046 162.898 89.2298 163.09 89.255ZM174.044 83.892L173.135 83.6554C172.684 83.7621 172.308 83.9629 172.008 84.258C171.707 84.5531 171.446 84.8836 171.227 85.2495C171.036 85.5983 170.884 85.9444 170.77 86.288C170.655 86.6317 170.571 86.9084 170.516 87.1182C170.395 87.5844 170.338 88.0425 170.345 88.4924C170.376 88.9485 170.465 89.37 170.614 89.757C170.791 90.1268 171.019 90.4475 171.297 90.7189C171.575 90.9903 171.923 91.1807 172.343 91.2899C173.089 91.484 173.702 91.4695 174.184 91.2463C174.688 91.0291 175.097 90.7 175.411 90.259C175.749 89.8241 176.013 89.3329 176.206 88.7856C176.404 88.2149 176.567 87.6848 176.694 87.1953C176.726 86.8801 176.7 86.5497 176.616 86.2042C176.538 85.8354 176.401 85.501 176.205 85.2012C176.033 84.9074 175.813 84.6511 175.546 84.4323C175.309 84.1964 175.039 84.0389 174.736 83.96C174.503 83.8994 174.272 83.8767 174.044 83.892ZM177.216 91.2142C176.681 92.2198 175.897 92.887 174.866 93.216C173.834 93.5449 172.782 93.5698 171.71 93.2907C170.941 93.0905 170.296 92.7483 169.774 92.2642C169.283 91.7628 168.908 91.1925 168.652 90.5532C168.401 89.8905 168.259 89.1939 168.225 88.4632C168.22 87.7153 168.309 86.9917 168.491 86.2924C168.637 85.7329 168.864 85.145 169.174 84.5286C169.49 83.889 169.872 83.3289 170.321 82.8483C170.77 82.3677 171.287 82.0046 171.874 81.759C172.467 81.4901 173.113 81.4467 173.812 81.6287C174.185 81.7258 174.432 81.8275 174.554 81.9338C174.677 81.9408 174.785 81.9565 174.878 81.9808C174.971 82.005 175.076 82.0323 175.192 82.0627C176.288 82.3478 177.09 82.8055 177.598 83.4355C178.106 84.0656 178.45 84.8021 178.628 85.6452C178.837 86.471 178.942 87.3572 178.945 88.3037C178.947 89.2502 179.005 90.1739 179.119 91.0748C179.14 91.3788 179.198 91.7299 179.293 92.1281C179.395 92.503 179.496 92.8779 179.598 93.2528C179.699 93.6278 179.775 93.9586 179.825 94.2454C179.898 94.5382 179.916 94.7545 179.88 94.8944C179.813 95.1509 179.669 95.3247 179.446 95.4161C179.223 95.5074 178.995 95.5227 178.762 95.4621C178.528 95.4014 178.308 95.2444 178.1 94.9912C177.922 94.7207 177.758 94.3919 177.61 94.0049C177.485 93.6239 177.387 93.1877 177.316 92.6962C177.245 92.2048 177.212 91.7108 177.216 91.2142ZM71.7929 105.931C71.3634 106.243 70.9388 106.344 70.5192 106.235C70.0996 106.125 69.7558 105.725 69.4879 105.033C69.22 104.341 68.9819 103.582 68.7737 102.756L68.0652 99.8834C68.0317 99.7254 68.0331 99.5764 68.0695 99.4365C68.1484 99.1335 68.3231 98.8927 68.5936 98.7142C68.8874 98.5417 69.1625 98.4889 69.4189 98.5556C69.652 98.6163 69.8508 98.9045 70.0153 99.4202C70.1858 99.9126 70.3295 100.46 70.4464 101.063C70.5926 101.649 70.7363 102.197 70.8775 102.706C71.0247 103.193 71.2032 103.463 71.413 103.518C71.5529 103.554 71.7054 103.494 71.8705 103.338C73.2136 102.194 74.2828 101.29 75.0779 100.626C75.9025 99.9444 76.5356 99.4247 76.9772 99.0667C77.4482 98.6915 77.7633 98.4374 77.9223 98.3046C78.1107 98.1545 78.249 98.0536 78.3371 98.0019C78.4799 97.7403 78.6627 97.5639 78.8856 97.4726C79.1379 97.364 79.3689 97.337 79.5787 97.3916C79.7885 97.4462 79.9771 97.5824 80.1444 97.8002C80.3118 98.018 80.3732 98.3078 80.3289 98.6696C80.211 99.983 79.9929 101.395 79.6745 102.905C79.3855 104.398 79.0408 105.914 78.6404 107.452C78.4219 108.292 78.1352 109.25 77.7801 110.327C77.4543 111.388 77.0941 112.389 76.6994 113.332C76.3108 114.251 75.9003 115.015 75.4679 115.625C75.0355 116.234 74.6328 116.49 74.2598 116.393C74.0034 116.326 73.7945 116.172 73.6333 115.931C73.4953 115.696 73.4779 115.381 73.581 114.984C73.6296 114.798 73.6776 114.661 73.7252 114.574C74.3741 113.324 74.9419 112.003 75.4286 110.611C75.9446 109.202 76.3756 107.834 76.7214 106.505C76.9884 105.479 77.2199 104.494 77.416 103.549C77.6121 102.605 77.793 101.718 77.9587 100.89L74.5568 103.776C73.9622 104.243 73.4147 104.673 72.9143 105.066C72.4372 105.464 72.0634 105.753 71.7929 105.931ZM68.2702 96.8005C67.917 97.6793 67.5533 98.7421 67.179 99.9888C66.8048 101.236 66.4356 102.558 66.0716 103.957C65.7075 105.356 65.3815 106.752 65.0934 108.145C64.8348 109.522 64.5689 110.734 64.2959 111.784C64.1745 112.25 63.9817 112.56 63.7172 112.716C63.4761 112.877 63.2274 112.924 62.9709 112.857C62.7611 112.803 62.5873 112.658 62.4493 112.423C62.3347 112.194 62.3056 111.875 62.3621 111.467C62.5448 110.096 62.8074 108.608 63.1501 107.005C63.5161 105.408 63.8993 103.84 64.2997 102.301C64.6031 101.135 64.906 100.019 65.2084 98.9532C65.5341 97.893 65.8796 96.9002 66.245 95.9747C66.3775 95.5612 66.5816 95.3031 66.8571 95.2006C67.156 95.1042 67.4337 95.0893 67.6901 95.1561C67.9466 95.2228 68.1377 95.397 68.2635 95.6787C68.3954 95.937 68.4158 96.241 68.3248 96.5907L68.2702 96.8005ZM86.4027 108.614L85.4936 108.377C85.0427 108.484 84.6668 108.685 84.366 108.98C84.0652 109.275 83.8049 109.605 83.5852 109.971C83.3949 110.32 83.2425 110.666 83.1282 111.01C83.0139 111.353 82.9294 111.63 82.8748 111.84C82.7535 112.306 82.6965 112.764 82.7038 113.214C82.7345 113.67 82.8239 114.092 82.9721 114.479C83.1496 114.849 83.3773 115.169 83.6551 115.441C83.933 115.712 84.2817 115.903 84.7013 116.012C85.4473 116.206 86.0609 116.191 86.5421 115.968C87.0467 115.751 87.4559 115.422 87.7698 114.981C88.1071 114.546 88.3718 114.055 88.564 113.507C88.7623 112.937 88.9252 112.407 89.0526 111.917C89.0849 111.602 89.0589 111.272 88.9745 110.926C88.8963 110.557 88.7593 110.223 88.5636 109.923C88.3911 109.629 88.1716 109.373 87.9049 109.154C87.6676 108.918 87.3975 108.761 87.0944 108.682C86.8613 108.621 86.6307 108.599 86.4027 108.614ZM89.5748 115.936C89.0392 116.942 88.2557 117.609 87.2242 117.938C86.1928 118.267 85.1409 118.292 84.0685 118.013C83.2992 117.812 82.654 117.47 82.1328 116.986C81.6411 116.485 81.2668 115.914 81.01 115.275C80.7593 114.612 80.6171 113.916 80.5832 113.185C80.5788 112.437 80.6675 111.714 80.8496 111.014C80.9952 110.455 81.2229 109.867 81.5326 109.25C81.8485 108.611 82.2307 108.051 82.6794 107.57C83.128 107.089 83.6457 106.726 84.2323 106.481C84.825 106.212 85.4711 106.169 86.1704 106.351C86.5434 106.448 86.7907 106.549 86.9124 106.656C87.035 106.663 87.143 106.678 87.2362 106.703C87.3295 106.727 87.4344 106.754 87.5509 106.785C88.6466 107.07 89.4484 107.527 89.9565 108.157C90.4646 108.787 90.808 109.524 90.9869 110.367C91.1951 111.193 91.3005 112.079 91.303 113.026C91.3056 113.972 91.3639 114.896 91.4779 115.797C91.4983 116.101 91.5563 116.452 91.6517 116.85C91.7533 117.225 91.8548 117.6 91.9564 117.975C92.058 118.35 92.1336 118.68 92.1835 118.967C92.2566 119.26 92.2749 119.476 92.2385 119.616C92.1718 119.873 92.027 120.047 91.8041 120.138C91.5812 120.229 91.3532 120.245 91.12 120.184C90.8869 120.123 90.6664 119.966 90.4585 119.713C90.28 119.443 90.1167 119.114 89.9685 118.727C89.8436 118.346 89.7456 117.91 89.6744 117.418C89.6032 116.927 89.57 116.433 89.5748 115.936ZM95.9772 126.339L95.9135 126.584C95.7982 127.027 95.5998 127.311 95.3181 127.437C95.0365 127.563 94.7674 127.592 94.511 127.526C94.2545 127.459 94.069 127.311 93.9544 127.082C93.8397 126.853 93.8076 126.546 93.8581 126.161C94.0136 125.181 94.2046 124.16 94.431 123.099C94.6513 122.061 94.9041 120.995 95.1892 119.899C95.5897 118.36 96.0074 116.851 96.4423 115.371C96.9006 113.898 97.3903 112.494 97.9115 111.161C98.0258 110.818 98.1914 110.612 98.4082 110.544C98.6544 110.459 98.9057 110.449 99.1622 110.516C99.3253 110.558 99.4941 110.627 99.6685 110.722C100.078 110.68 100.574 110.684 101.158 110.737C101.742 110.789 102.314 110.888 102.873 111.034C103.666 111.24 104.399 111.531 105.073 111.905C105.777 112.262 106.36 112.7 106.822 113.219C107.284 113.738 107.606 114.319 107.787 114.964C107.997 115.591 108.005 116.277 107.811 117.023C107.61 117.793 107.232 118.528 106.676 119.23C106.127 119.908 105.443 120.477 104.627 120.936C103.833 121.402 102.919 121.712 101.883 121.865C100.871 122.025 99.8055 121.959 98.6865 121.668C98.3601 121.583 98.1396 121.426 98.025 121.197C97.9337 120.974 97.9183 120.746 97.979 120.513C98.0397 120.28 98.1495 120.097 98.3086 119.964C98.4737 119.808 98.6642 119.745 98.88 119.777C99.5743 119.883 100.29 119.907 101.026 119.85C101.769 119.77 102.46 119.601 103.1 119.344C103.762 119.093 104.341 118.734 104.837 118.265C105.338 117.774 105.68 117.178 105.862 116.479C106.074 115.663 105.862 114.948 105.225 114.334C104.588 113.72 103.64 113.25 102.382 112.922C101.95 112.859 101.474 112.823 100.954 112.812C100.464 112.784 99.9757 112.794 99.4903 112.842C99.1473 113.872 98.7801 114.997 98.3886 116.214C98.0264 117.414 97.6876 118.62 97.3721 119.832C97.0566 121.045 96.7649 122.213 96.497 123.338C96.2523 124.469 96.0791 125.47 95.9772 126.339ZM110.174 130.034L110.11 130.279C109.995 130.722 109.797 131.006 109.515 131.132C109.233 131.258 108.964 131.288 108.708 131.221C108.451 131.154 108.266 131.006 108.151 130.777C108.037 130.548 108.005 130.241 108.055 129.856C108.211 128.876 108.402 127.855 108.628 126.794C108.848 125.756 109.101 124.69 109.386 123.594C109.787 122.055 110.204 120.546 110.639 119.066C111.098 117.593 111.587 116.189 112.108 114.856C112.223 114.513 112.388 114.307 112.605 114.239C112.851 114.154 113.103 114.144 113.359 114.211C113.522 114.254 113.691 114.322 113.865 114.418C114.275 114.375 114.771 114.38 115.355 114.432C115.939 114.484 116.511 114.583 117.07 114.729C117.863 114.935 118.596 115.226 119.27 115.6C119.974 115.958 120.557 116.396 121.019 116.914C121.481 117.433 121.803 118.014 121.984 118.659C122.194 119.286 122.202 119.972 122.008 120.718C121.807 121.488 121.429 122.223 120.873 122.925C120.323 123.603 119.64 124.172 118.824 124.631C118.03 125.097 117.116 125.407 116.08 125.56C115.068 125.72 114.002 125.654 112.883 125.363C112.557 125.278 112.337 125.121 112.222 124.892C112.131 124.669 112.115 124.441 112.176 124.208C112.237 123.975 112.346 123.792 112.506 123.659C112.671 123.503 112.861 123.441 113.077 123.472C113.771 123.578 114.487 123.602 115.223 123.545C115.966 123.465 116.657 123.296 117.297 123.039C117.959 122.789 118.538 122.429 119.033 121.961C119.535 121.469 119.877 120.873 120.059 120.174C120.271 119.358 120.059 118.643 119.422 118.029C118.785 117.415 117.837 116.945 116.579 116.617C116.147 116.555 115.671 116.518 115.151 116.507C114.661 116.479 114.173 116.489 113.687 116.537C113.344 117.568 112.977 118.692 112.585 119.909C112.223 121.109 111.885 122.315 111.569 123.527C111.254 124.74 110.962 125.908 110.694 127.033C110.449 128.164 110.276 129.165 110.174 130.034ZM128.09 118.867C127.904 119.391 127.712 119.938 127.513 120.509C127.338 121.085 127.172 121.677 127.014 122.283C126.79 123.145 126.6 124.017 126.446 124.898C126.314 125.785 126.143 126.636 125.93 127.452C125.809 127.918 125.601 128.237 125.308 128.41C125.037 128.588 124.774 128.644 124.517 128.578C124.284 128.517 124.107 128.384 123.986 128.178C123.895 127.955 123.886 127.654 123.96 127.275C124.163 126.208 124.342 125.234 124.497 124.353C124.681 123.455 124.888 122.563 125.118 121.677C125.209 121.328 125.313 120.882 125.429 120.34C125.575 119.78 125.735 119.262 125.909 118.784C126.112 118.29 126.341 117.889 126.595 117.581C126.879 117.257 127.207 117.143 127.58 117.24C127.813 117.301 127.984 117.457 128.093 117.71C128.224 117.968 128.245 118.272 128.154 118.622L128.09 118.867ZM128.487 110.457C128.592 110.435 128.68 110.433 128.75 110.451C128.843 110.475 128.922 110.508 128.985 110.549C129.073 110.597 129.139 110.627 129.186 110.639C129.309 110.646 129.417 110.662 129.51 110.686C129.609 110.687 129.717 110.703 129.834 110.733C130.603 110.933 131.107 111.338 131.347 111.948C131.61 112.564 131.665 113.164 131.514 113.746C131.441 114.026 131.292 114.311 131.067 114.601C130.866 114.897 130.6 115.152 130.271 115.365C129.971 115.56 129.611 115.703 129.189 115.792C128.767 115.882 128.312 115.863 127.822 115.735C127.496 115.65 127.214 115.49 126.977 115.254C126.74 115.018 126.546 114.756 126.397 114.468C126.254 114.157 126.164 113.835 126.126 113.502C126.095 113.145 126.118 112.815 126.197 112.512C126.318 112.046 126.597 111.596 127.034 111.162C127.494 110.734 127.978 110.499 128.487 110.457ZM128.853 112.494L128.573 112.421C128.444 112.437 128.341 112.498 128.264 112.602C128.188 112.706 128.134 112.817 128.104 112.934C128.049 113.143 128.079 113.363 128.194 113.592C128.314 113.797 128.445 113.918 128.584 113.955C128.934 114.046 129.195 114.002 129.366 113.822C129.543 113.619 129.656 113.425 129.704 113.238C129.685 112.835 129.5 112.588 129.151 112.497C129.104 112.485 129.005 112.484 128.853 112.494ZM136.366 120.349C136.8 120.213 137.274 120.162 137.788 120.196C138.325 120.236 138.861 120.326 139.398 120.465C140.132 120.706 140.739 121.001 141.221 121.351C141.702 121.7 142.063 122.13 142.304 122.641C142.55 123.128 142.67 123.719 142.664 124.414C142.663 125.086 142.541 125.889 142.299 126.821C142.05 127.777 141.77 128.662 141.458 129.477C141.152 130.269 140.836 130.958 140.509 131.545C140.188 132.109 139.866 132.535 139.541 132.824C139.235 133.142 138.941 133.265 138.661 133.192C138.452 133.138 138.283 133.019 138.157 132.837C138.03 132.655 138.006 132.412 138.085 132.109C138.164 131.806 138.299 131.43 138.49 130.982C138.711 130.517 138.937 130.028 139.17 129.516C139.432 128.987 139.671 128.452 139.887 127.911C140.132 127.352 140.318 126.828 140.445 126.339C140.621 125.663 140.703 125.111 140.689 124.685C140.705 124.241 140.638 123.875 140.489 123.587C140.37 123.282 140.17 123.044 139.892 122.872C139.619 122.676 139.29 122.504 138.906 122.354C138.417 122.226 137.906 122.181 137.374 122.216C136.842 122.252 136.401 122.224 136.051 122.133C135.841 122.079 135.688 121.952 135.59 121.752C135.516 121.559 135.507 121.357 135.561 121.147C135.604 120.984 135.681 120.83 135.794 120.685C135.935 120.523 136.126 120.411 136.366 120.349ZM134.919 119.598C134.518 121.137 134.124 122.702 133.734 124.293C133.351 125.861 133.086 127.311 132.939 128.641L132.875 128.886C132.772 129.282 132.588 129.558 132.324 129.713C132.089 129.851 131.855 129.89 131.621 129.829C131.412 129.775 131.238 129.63 131.1 129.395C130.962 129.16 130.921 128.838 130.978 128.43C131.152 127.28 131.359 126.102 131.599 124.895C131.838 123.688 132.122 122.455 132.45 121.196C132.516 120.94 132.581 120.645 132.642 120.313C132.704 119.98 132.783 119.677 132.879 119.404C133.004 119.113 133.161 118.892 133.35 118.742C133.567 118.575 133.84 118.533 134.166 118.618C134.399 118.679 134.588 118.815 134.732 119.027C134.905 119.222 134.967 119.412 134.919 119.598ZM153.502 137.428C153.262 138.063 152.824 138.646 152.188 139.177C151.546 139.732 150.802 140.198 149.957 140.575C149.135 140.959 148.253 141.24 147.311 141.417C146.363 141.619 145.474 141.686 144.645 141.62C144.592 141.631 144.519 141.624 144.426 141.6C144.123 141.521 143.914 141.317 143.801 140.989C143.687 140.661 143.673 140.334 143.758 140.007C143.812 139.797 143.91 139.611 144.052 139.449C144.211 139.316 144.416 139.245 144.668 139.236C145.397 139.301 146.146 139.247 146.913 139.074C147.703 138.906 148.439 138.662 149.12 138.341C149.801 138.021 150.383 137.649 150.866 137.228C151.349 136.806 151.66 136.376 151.798 135.939C152.205 134.378 152.57 132.83 152.895 131.296C153.225 129.74 153.544 128.18 153.851 126.617C153.636 126.486 153.43 126.37 153.232 126.269C153.035 126.168 152.837 126.067 152.639 125.965L151.373 125.524C150.114 125.196 149.106 125.245 148.348 125.67C147.596 126.072 147.12 126.657 146.92 127.426C146.568 128.779 146.748 129.858 147.458 130.666C148.193 131.479 149.259 132.068 150.658 132.432L151.042 132.532C151.229 132.58 151.38 132.719 151.494 132.948C151.632 133.183 151.668 133.429 151.601 133.685C151.51 134.035 151.341 134.252 151.095 134.338C150.872 134.429 150.493 134.405 149.957 134.265C148.768 133.956 147.793 133.54 147.033 133.019C146.302 132.48 145.735 131.885 145.332 131.232C144.936 130.556 144.697 129.847 144.617 129.104C144.559 128.368 144.628 127.626 144.822 126.88C145.022 126.111 145.338 125.471 145.769 124.961C146.23 124.434 146.769 124.039 147.385 123.776C148.024 123.52 148.709 123.374 149.44 123.341C150.194 123.313 150.979 123.405 151.794 123.617C152.377 123.769 152.925 123.961 153.437 124.194C153.948 124.427 154.361 124.659 154.674 124.89C154.826 124.879 154.972 124.892 155.112 124.929C155.392 125.002 155.633 125.127 155.836 125.304C156.039 125.481 156.121 125.739 156.083 126.078C155.847 127.46 155.606 128.816 155.36 130.146C155.143 131.458 154.87 132.744 154.543 134.003C154.391 134.586 154.228 135.165 154.053 135.742C153.884 136.296 153.7 136.858 153.502 137.428Z" fill="black"/>
</g>
<defs>
<filter id="filter0_d" x="0.5" y="0.918213" width="220.454" height="205.076" filterUnits="userSpaceOnUse" color-interpolation-filters="sRGB">
<feFlood flood-opacity="0" result="BackgroundImageFix"/>
<feColorMatrix in="SourceAlpha" type="matrix" values="0 0 0 0 0 0 0 0 0 0 0 0 0 0 0 0 0 0 127 0"/>
<feOffset dy="4"/>
<feGaussianBlur stdDeviation="2"/>
<feColorMatrix type="matrix" values="0 0 0 0 0 0 0 0 0 0 0 0 0 0 0 0 0 0 0.25 0"/>
<feBlend mode="normal" in2="BackgroundImageFix" result="effect1_dropShadow"/>
<feBlend mode="normal" in="SourceGraphic" in2="effect1_dropShadow" result="shape"/>
</filter>
</defs>
</svg>
