<svg width="278" height="260" viewBox="0 0 278 260" fill="none" xmlns="http://www.w3.org/2000/svg">
<path d="M104.141 151.437V120.095C104.141 111.78 106.444 98.8599 115.654 113.699C124.865 128.538 129.726 112.207 131.005 102.186C128.66 91.0992 122.69 72.2518 117.573 85.5558C112.456 98.8599 106.486 92.3785 104.141 87.4747V52.2956C99.2372 52.5088 85.8479 52.5515 71.5204 51.0164C57.1929 49.4812 71.5204 38.8636 71.5204 38.8636C71.5204 38.8636 71.5204 26.7108 53.6111 26.7108C35.7017 26.7108 38.2602 38.8636 38.2602 38.8636C38.2602 38.8636 45.9356 46.1126 43.3772 51.0164H5.00002V74.6823V89.3936C7.7717 91.952 13.9547 95.5339 16.5132 89.3936C19.7113 81.7181 24.1886 83.637 26.7471 87.4747C29.3056 91.3124 33.3595 98.1124 31.2244 104.744C28.9888 111.689 21.1184 128.538 16.5132 116.258C11.9079 103.977 6.91887 111.141 5.00002 116.258V151.437M104.141 151.437H71.5204C64.911 149.305 55.2741 143.889 69.6015 139.284C83.929 134.679 65.7638 127.984 54.8903 125.212C44.23 126.705 27.2588 131.864 44.6564 140.563C66.4034 151.437 8.83773 153.995 5.00002 151.437M104.141 151.437V186.616C101.582 188.535 108.618 193.652 109.898 193.652C111.177 193.652 111.816 192.372 114.375 186.616C116.933 180.859 122.69 179.58 127.807 186.616C132.924 193.652 129.939 201.753 129.086 207.723C126.954 214.119 121.283 224.353 115.654 214.119C110.026 203.886 105.633 209.855 104.141 214.119V250.578M104.141 151.437H138.041C142.945 149.518 149.938 144.273 138.68 138.644C127.423 133.016 142.518 127.344 151.473 125.212C157.229 125.639 168.743 127.259 168.743 130.329C170.235 132.248 172.324 136.725 168.743 139.284C165.161 141.842 162.56 142.482 161.707 142.482C160.214 145.467 159.276 151.437 167.463 151.437C175.65 151.437 193.901 151.437 202.003 151.437L203.282 184.697C204.135 190.24 207.631 198.641 214.795 187.895C221.959 177.149 225.669 189.174 225.669 189.174L226.948 207.723C226.948 207.723 225.157 217.445 220.552 217.957C215.946 218.469 212.876 210.921 212.876 210.921C212.876 210.921 206.864 206.572 203.282 212.201V249.299L168.743 250.578C164.478 250.365 156.59 240.344 162.986 239.704C169.382 239.065 169.595 239.278 170.022 237.146C170.448 235.014 170.022 229.982 164.905 226.912C159.788 223.842 147.422 225.633 141.879 226.912C141.879 226.912 135.269 230.536 135.482 232.668C135.696 234.8 137.657 239.832 143.797 242.902C149.938 245.973 144.224 249.299 140.599 250.578H104.141M5.00002 151.437V183.418C6.70567 189.174 11.78 197.233 18.432 183.418C22.0565 181.925 29.6893 182.778 31.2244 198.129C32.7595 213.48 24.615 217.318 20.3509 217.318C18.6452 216.465 15.106 213.608 14.5943 209.002C13.9547 203.246 5.00011 205.165 5.00002 216.038C4.99993 226.912 5.00002 249.299 5.00002 249.299H41.4584C45.5093 247.38 51.1806 242.519 41.4584 238.425C31.7362 234.331 39.5395 228.191 44.6564 225.633C51.2658 224.993 66.4035 226.912 66.4035 226.912C66.4035 226.912 73.4393 229.47 71.5204 235.227C69.9853 239.832 65.7639 240.131 63.845 239.704C61.9262 242.902 60.1353 249.299 68.3224 249.299C76.5095 249.299 95.6128 250.151 104.141 250.578" stroke="black"/>
<g filter="url(#filter0_d)">
<path d="M154.67 44.6193C159.148 23.5116 162.346 15.1967 162.346 15.1967C171.087 16.6892 190.105 20.3138 196.246 22.8723C202.386 25.4308 204.347 19.6741 204.561 16.476L198.804 11.3591C196.032 8.37418 193.303 2.14847 204.561 1.12508C218.632 -0.154159 229.506 8.80052 229.506 8.80052C229.506 8.80052 233.343 12.6384 231.425 16.476C229.506 20.3135 226.308 17.7554 223.749 18.3948C221.191 19.0343 219.272 21.5929 218.632 24.791C218.121 27.3495 221.83 29.2684 223.749 29.908L258.289 38.8627C256.37 49.3098 250.613 70.8437 250.613 70.8437C250.613 70.8437 249.974 76.1739 250.613 78.5191C252.532 80.8644 259.568 78.5191 259.568 78.5191C259.568 78.5191 264.475 74.6201 267.883 75.321C273.153 76.4051 272.959 82.733 273 88.1134C273.05 94.8157 265.324 103.464 265.324 103.464C265.324 103.464 258.672 111.907 255.091 102.185C251.509 92.4629 245.923 96.4285 243.577 99.6266L233.983 135.445C226.094 133.1 208.526 128.154 201.362 127.13C194.199 126.107 194.645 120.265 196.885 116.257C198.812 112.809 204.818 116.642 206.479 113.059C207.882 110.035 206.479 107.302 204.561 104.744C202.642 102.185 186.012 96.4287 180.895 97.0681C175.778 97.7076 169.254 102.569 176.417 109.221C183.581 115.873 176.417 118.815 171.94 119.455L138.68 109.861C141.451 100.906 146.867 82.2289 146.355 79.1588C145.843 76.0886 148.7 73.189 150.193 72.1229C152.538 71.0569 157.229 70.0761 157.229 74.6814C157.229 79.2867 160.64 82.1436 162.346 82.9965C165.331 83.4229 172.068 81.2055 175.138 68.9248C178.208 56.6441 168.742 50.3758 168.742 50.3758C168.742 50.3758 150.193 65.7269 154.67 44.6193Z" fill="#FFDF00"/>
<path d="M154.67 44.6193C159.148 23.5116 162.346 15.1967 162.346 15.1967C171.087 16.6892 190.105 20.3138 196.246 22.8723C202.386 25.4308 204.347 19.6741 204.561 16.476L198.804 11.3591C196.032 8.37418 193.303 2.14847 204.561 1.12508C218.632 -0.154159 229.506 8.80052 229.506 8.80052C229.506 8.80052 233.343 12.6384 231.425 16.476C229.506 20.3135 226.308 17.7554 223.749 18.3948C221.191 19.0343 219.272 21.5929 218.632 24.791C218.121 27.3495 221.83 29.2684 223.749 29.908L258.289 38.8627C256.37 49.3098 250.613 70.8437 250.613 70.8437C250.613 70.8437 249.974 76.1739 250.613 78.5191C252.532 80.8644 259.568 78.5191 259.568 78.5191C259.568 78.5191 264.475 74.6201 267.883 75.321C273.153 76.4051 272.959 82.733 273 88.1134C273.05 94.8157 265.324 103.464 265.324 103.464C265.324 103.464 258.672 111.907 255.091 102.185C251.509 92.4629 245.923 96.4285 243.577 99.6266L233.983 135.445C226.094 133.1 208.526 128.154 201.362 127.13C194.199 126.107 194.645 120.265 196.885 116.257C198.812 112.809 204.818 116.642 206.479 113.059C207.882 110.035 206.479 107.302 204.561 104.744C202.642 102.185 186.012 96.4287 180.895 97.0681C175.778 97.7076 169.254 102.569 176.417 109.221C183.581 115.873 176.417 118.815 171.94 119.455L138.68 109.861C141.451 100.906 146.867 82.2289 146.355 79.1588C145.843 76.0886 148.7 73.189 150.193 72.1229C152.538 71.0569 157.229 70.0761 157.229 74.6814C157.229 79.2867 160.64 82.1436 162.346 82.9965C165.331 83.4229 172.068 81.2055 175.138 68.9248C178.208 56.6441 168.742 50.3758 168.742 50.3758C168.742 50.3758 150.193 65.7269 154.67 44.6193Z" stroke="black"/>
</g>
<path fill-rule="evenodd" clip-rule="evenodd" d="M5.00004 183.418V151.437C8.83775 153.995 66.4035 151.437 44.6564 140.563C27.2588 131.864 44.23 126.705 54.8903 125.212C65.7639 127.984 83.929 134.679 69.6016 139.284C55.2741 143.889 64.911 149.305 71.5204 151.437H104.141V186.616C101.582 188.535 108.618 193.652 109.898 193.652C111.177 193.652 111.817 192.372 114.375 186.616C116.933 180.859 122.69 179.58 127.807 186.616C132.009 192.394 130.747 198.892 129.689 204.337C129.459 205.522 129.239 206.657 129.086 207.723C126.954 214.12 121.283 224.353 115.654 214.12C110.026 203.886 105.633 209.855 104.141 214.12V250.578C95.6128 250.151 76.5095 249.299 68.3224 249.299C60.1353 249.299 61.9262 242.902 63.8451 239.704C65.7639 240.131 69.9853 239.832 71.5204 235.227C73.4393 229.47 66.4035 226.912 66.4035 226.912C66.4035 226.912 51.2658 224.993 44.6564 225.633C39.5395 228.191 31.7362 234.332 41.4584 238.425C51.1806 242.519 45.5093 247.38 41.4584 249.299H5.00004V216.038C5.00013 205.165 13.9547 203.246 14.5943 209.003C15.106 213.608 18.6452 216.465 20.3509 217.318C24.615 217.318 32.7595 213.48 31.2244 198.129C29.6893 182.778 22.0565 181.925 18.432 183.418C11.78 197.234 6.70569 189.174 5.00004 183.418Z" fill="white"/>
<path d="M43.3772 51.0165H5.00004V74.6824V89.3937C7.77172 91.9522 13.9547 95.534 16.5132 89.3937C19.7113 81.7182 24.1886 83.6371 26.7471 87.4748C29.3056 91.3125 33.3595 98.1125 31.2244 104.745C28.9888 111.689 21.1184 128.538 16.5132 116.258C11.9079 103.977 6.9189 111.141 5.00004 116.258V151.437C8.83775 153.995 66.4035 151.437 44.6564 140.563C27.2588 131.864 44.23 126.705 54.8903 125.212C65.7639 127.984 83.929 134.679 69.6016 139.284C55.2741 143.889 64.911 149.305 71.5204 151.437H104.141V120.095C104.141 111.78 106.444 98.8601 115.654 113.699C124.865 128.538 129.726 112.207 131.005 102.186C128.66 91.0993 122.69 72.2519 117.573 85.556C112.456 98.8601 106.486 92.3786 104.141 87.4748V52.2957C99.2373 52.5089 85.8479 52.5516 71.5204 51.0165C57.193 49.4814 71.5204 38.8637 71.5204 38.8637C71.5204 38.8637 71.5204 26.7109 53.6111 26.7109C35.7018 26.7109 38.2602 38.8637 38.2602 38.8637C38.2602 38.8637 45.9357 46.1127 43.3772 51.0165Z" fill="white"/>
<path d="M104.141 214.12V250.578H140.599C144.224 249.299 149.938 245.973 143.797 242.902C137.657 239.832 135.696 234.801 135.482 232.669C135.269 230.536 141.879 226.912 141.879 226.912C147.422 225.633 159.788 223.842 164.905 226.912C170.022 229.982 170.448 235.014 170.022 237.146C169.638 239.064 169.427 239.084 164.734 239.534C164.209 239.584 163.629 239.64 162.986 239.704C156.59 240.344 164.478 250.365 168.743 250.578L203.282 249.299V212.201C206.864 206.572 212.876 210.921 212.876 210.921C212.876 210.921 215.946 218.469 220.552 217.957C225.157 217.446 226.948 207.723 226.948 207.723L225.669 189.174C225.669 189.174 221.959 177.15 214.795 187.895C207.631 198.641 204.135 190.24 203.282 184.697L202.003 151.437H167.463C159.276 151.437 160.214 145.467 161.707 142.482C162.56 142.482 165.161 141.843 168.743 139.284C172.324 136.726 170.235 132.248 168.743 130.329C168.743 127.259 157.229 125.639 151.473 125.212C142.518 127.344 127.423 133.016 138.681 138.644C149.938 144.273 142.945 149.518 138.041 151.437H104.141V186.616C101.582 188.535 108.618 193.652 109.898 193.652C111.177 193.652 111.817 192.372 114.375 186.616C116.933 180.859 122.69 179.58 127.807 186.616C132.009 192.394 130.747 198.892 129.689 204.337C129.459 205.522 129.239 206.657 129.086 207.723C126.954 214.12 121.283 224.353 115.654 214.12C110.026 203.886 105.633 209.855 104.141 214.12Z" fill="white"/>
<path d="M104.141 151.437V120.095C104.141 111.78 106.444 98.8601 115.654 113.699C124.865 128.538 129.726 112.207 131.005 102.186C128.66 91.0993 122.69 72.2519 117.573 85.556C112.456 98.8601 106.486 92.3786 104.141 87.4748V52.2957C99.2373 52.5089 85.8479 52.5516 71.5204 51.0165C57.193 49.4814 71.5204 38.8637 71.5204 38.8637C71.5204 38.8637 71.5204 26.7109 53.6111 26.7109C35.7018 26.7109 38.2602 38.8637 38.2602 38.8637C38.2602 38.8637 45.9357 46.1127 43.3772 51.0165H5.00004V74.6824V89.3937C7.77172 91.9522 13.9547 95.534 16.5132 89.3937C19.7113 81.7182 24.1886 83.6371 26.7471 87.4748C29.3056 91.3125 33.3595 98.1125 31.2244 104.745C28.9888 111.689 21.1184 128.538 16.5132 116.258C11.9079 103.977 6.9189 111.141 5.00004 116.258V151.437M104.141 151.437H71.5204C64.911 149.305 55.2741 143.889 69.6016 139.284C83.929 134.679 65.7639 127.984 54.8903 125.212C44.23 126.705 27.2588 131.864 44.6564 140.563C66.4035 151.437 8.83775 153.995 5.00004 151.437M104.141 151.437V186.616C101.582 188.535 108.618 193.652 109.898 193.652C111.177 193.652 111.817 192.372 114.375 186.616C116.933 180.859 122.69 179.58 127.807 186.616C132.009 192.394 130.747 198.892 129.689 204.337C129.459 205.522 129.239 206.657 129.086 207.723C126.954 214.12 121.283 224.353 115.654 214.12C110.026 203.886 105.633 209.855 104.141 214.12V250.578M104.141 151.437H138.041C142.945 149.518 149.938 144.273 138.681 138.644C127.423 133.016 142.518 127.344 151.473 125.212C157.229 125.639 168.743 127.259 168.743 130.329C170.235 132.248 172.324 136.726 168.743 139.284C165.161 141.843 162.56 142.482 161.707 142.482C160.214 145.467 159.276 151.437 167.463 151.437M5.00004 151.437V183.418C6.70569 189.174 11.78 197.234 18.432 183.418C22.0565 181.925 29.6893 182.778 31.2244 198.129C32.7595 213.48 24.615 217.318 20.3509 217.318C18.6452 216.465 15.106 213.608 14.5943 209.003C13.9547 203.246 5.00013 205.165 5.00004 216.038M5.00004 216.038C4.99995 226.912 5.00004 249.299 5.00004 249.299M5.00004 216.038V249.299M5.00004 249.299H41.4584C45.5093 247.38 51.1806 242.519 41.4584 238.425C31.7362 234.332 39.5395 228.191 44.6564 225.633C51.2658 224.993 66.4035 226.912 66.4035 226.912C66.4035 226.912 73.4393 229.47 71.5204 235.227C69.9853 239.832 65.7639 240.131 63.8451 239.704C61.9262 242.902 60.1353 249.299 68.3224 249.299C76.5095 249.299 95.6128 250.151 104.141 250.578M104.141 250.578H140.599C144.224 249.299 149.938 245.973 143.797 242.902C137.657 239.832 135.696 234.801 135.482 232.669C135.269 230.536 141.879 226.912 141.879 226.912C147.422 225.633 159.788 223.842 164.905 226.912C170.022 229.982 170.448 235.014 170.022 237.146C169.638 239.064 169.427 239.084 164.734 239.534C164.209 239.584 163.629 239.64 162.986 239.704C156.59 240.344 164.478 250.365 168.743 250.578L203.282 249.299V212.201C206.864 206.572 212.876 210.921 212.876 210.921C212.876 210.921 215.946 218.469 220.552 217.957C225.157 217.446 226.948 207.723 226.948 207.723L225.669 189.174C225.669 189.174 221.959 177.15 214.795 187.895C207.631 198.641 204.135 190.24 203.282 184.697L202.003 151.437M167.463 151.437C175.65 151.437 193.901 151.437 202.003 151.437M167.463 151.437H202.003" stroke="black"/>
<g filter="url(#filter1_d)">
<path fill-rule="evenodd" clip-rule="evenodd" d="M5.00004 183.418V151.437C8.83775 153.995 66.4035 151.437 44.6564 140.563C27.2588 131.864 44.23 126.705 54.8903 125.212C65.7639 127.984 83.929 134.679 69.6016 139.284C55.2741 143.889 64.911 149.305 71.5204 151.437H104.141V186.616C101.582 188.535 108.618 193.652 109.898 193.652C111.177 193.652 111.817 192.372 114.375 186.616C116.933 180.859 122.69 179.58 127.807 186.616C132.009 192.394 130.747 198.892 129.689 204.337C129.459 205.522 129.239 206.657 129.086 207.723C126.954 214.12 121.283 224.353 115.654 214.12C110.026 203.886 105.633 209.855 104.141 214.12V250.578C95.6128 250.151 76.5095 249.299 68.3224 249.299C60.1353 249.299 61.9262 242.902 63.8451 239.704C65.7639 240.131 69.9853 239.832 71.5204 235.227C73.4393 229.47 66.4035 226.912 66.4035 226.912C66.4035 226.912 51.2658 224.993 44.6564 225.633C39.5395 228.191 31.7362 234.332 41.4584 238.425C51.1806 242.519 45.5093 247.38 41.4584 249.299H5.00004V216.038C5.00013 205.165 13.9547 203.246 14.5943 209.003C15.106 213.608 18.6452 216.465 20.3509 217.318C24.615 217.318 32.7595 213.48 31.2244 198.129C29.6893 182.778 22.0565 181.925 18.432 183.418C11.78 197.234 6.70569 189.174 5.00004 183.418Z" fill="black"/>
<path d="M104.141 151.437V120.095C104.141 111.78 106.444 98.8601 115.654 113.699C124.865 128.538 129.726 112.207 131.005 102.186C128.66 91.0993 122.69 72.2519 117.573 85.556C112.456 98.8601 106.486 92.3786 104.141 87.4748V52.2957C99.2373 52.5089 85.8479 52.5516 71.5204 51.0165C57.193 49.4814 71.5204 38.8637 71.5204 38.8637C71.5204 38.8637 71.5204 26.7109 53.6111 26.7109C35.7018 26.7109 38.2602 38.8637 38.2602 38.8637C38.2602 38.8637 45.9357 46.1127 43.3772 51.0165H5.00004V74.6824V89.3937C7.77172 91.9522 13.9547 95.534 16.5132 89.3937C19.7113 81.7182 24.1886 83.6371 26.7471 87.4748C29.3056 91.3125 33.3595 98.1125 31.2244 104.745C28.9888 111.689 21.1184 128.538 16.5132 116.258C11.9079 103.977 6.9189 111.141 5.00004 116.258V151.437M104.141 151.437H71.5204C64.911 149.305 55.2741 143.889 69.6016 139.284C83.929 134.679 65.7639 127.984 54.8903 125.212C44.23 126.705 27.2588 131.864 44.6564 140.563C66.4035 151.437 8.83775 153.995 5.00004 151.437M104.141 151.437V186.616C101.582 188.535 108.618 193.652 109.898 193.652C111.177 193.652 111.817 192.372 114.375 186.616C116.933 180.859 122.69 179.58 127.807 186.616C132.009 192.394 130.747 198.892 129.689 204.337C129.459 205.522 129.239 206.657 129.086 207.723C126.954 214.12 121.283 224.353 115.654 214.12C110.026 203.886 105.633 209.855 104.141 214.12V250.578M104.141 151.437H138.041C142.945 149.518 149.938 144.273 138.681 138.644C127.423 133.016 142.518 127.344 151.473 125.212C157.229 125.639 168.743 127.259 168.743 130.329C170.235 132.248 172.324 136.726 168.743 139.284C165.161 141.843 162.56 142.482 161.707 142.482C160.214 145.467 159.276 151.437 167.463 151.437M5.00004 151.437V183.418C6.70569 189.174 11.78 197.234 18.432 183.418C22.0565 181.925 29.6893 182.778 31.2244 198.129C32.7595 213.48 24.615 217.318 20.3509 217.318C18.6452 216.465 15.106 213.608 14.5943 209.003C13.9547 203.246 5.00013 205.165 5.00004 216.038M5.00004 216.038C4.99995 226.912 5.00004 249.299 5.00004 249.299M5.00004 216.038V249.299M5.00004 249.299H41.4584C45.5093 247.38 51.1806 242.519 41.4584 238.425C31.7362 234.332 39.5395 228.191 44.6564 225.633C51.2658 224.993 66.4035 226.912 66.4035 226.912C66.4035 226.912 73.4393 229.47 71.5204 235.227C69.9853 239.832 65.7639 240.131 63.8451 239.704C61.9262 242.902 60.1353 249.299 68.3224 249.299C76.5095 249.299 95.6128 250.151 104.141 250.578M104.141 250.578H140.599C144.224 249.299 149.938 245.973 143.797 242.902C137.657 239.832 135.696 234.801 135.482 232.669C135.269 230.536 141.879 226.912 141.879 226.912C147.422 225.633 159.788 223.842 164.905 226.912C170.022 229.982 170.448 235.014 170.022 237.146C169.638 239.064 169.427 239.084 164.734 239.534C164.209 239.584 163.629 239.64 162.986 239.704C156.59 240.344 164.478 250.365 168.743 250.578L203.282 249.299V212.201C206.864 206.572 212.876 210.921 212.876 210.921C212.876 210.921 215.946 218.469 220.552 217.957C225.157 217.446 226.948 207.723 226.948 207.723L225.669 189.174C225.669 189.174 221.959 177.15 214.795 187.895C207.631 198.641 204.135 190.24 203.282 184.697L202.003 151.437M167.463 151.437C175.65 151.437 193.901 151.437 202.003 151.437M167.463 151.437H202.003" stroke="black"/>
</g>
<defs>
<filter id="filter0_d" x="134.051" y="0.5" width="143.449" height="143.571" filterUnits="userSpaceOnUse" color-interpolation-filters="sRGB">
<feFlood flood-opacity="0" result="BackgroundImageFix"/>
<feColorMatrix in="SourceAlpha" type="matrix" values="0 0 0 0 0 0 0 0 0 0 0 0 0 0 0 0 0 0 127 0"/>
<feOffset dy="4"/>
<feGaussianBlur stdDeviation="2"/>
<feColorMatrix type="matrix" values="0 0 0 0 0 0 0 0 0 0 0 0 0 0 0 0 0 0 0.25 0"/>
<feBlend mode="normal" in2="BackgroundImageFix" result="effect1_dropShadow"/>
<feBlend mode="normal" in="SourceGraphic" in2="effect1_dropShadow" result="shape"/>
</filter>
<filter id="filter1_d" x="0.5" y="26.2109" width="230.951" height="232.867" filterUnits="userSpaceOnUse" color-interpolation-filters="sRGB">
<feFlood flood-opacity="0" result="BackgroundImageFix"/>
<feColorMatrix in="SourceAlpha" type="matrix" values="0 0 0 0 0 0 0 0 0 0 0 0 0 0 0 0 0 0 127 0"/>
<feOffset dy="4"/>
<feGaussianBlur stdDeviation="2"/>
<feColorMatrix type="matrix" values="0 0 0 0 0 0 0 0 0 0 0 0 0 0 0 0 0 0 0.25 0"/>
<feBlend mode="normal" in2="BackgroundImageFix" result="effect1_dropShadow"/>
<feBlend mode="normal" in="SourceGraphic" in2="effect1_dropShadow" result="shape"/>
</filter>
</defs>
</svg>
